<?xml version="1.0" encoding="UTF-8"?><svg xmlns="http://www.w3.org/2000/svg" viewBox="0 0 1300 1080"><defs><style>.d{fill:none;}.e{fill:#6c6c93;}</style></defs><g id="a"/><g id="b"><g id="c"><g><path class="e" d="M707.84,559.23h1.98v5.29h-1.98v-5.29Zm3.27,0h1.98v5.29h-1.98v-5.29Z"/><path class="e" d="M714.29,559.23h3.97c1.88,0,2.76,.99,2.76,2.52,0,1.08-.47,2.04-1.58,2.26v.03c1.32,.11,1.87,1.26,1.87,2.31,0,1.75-.85,2.98-3.04,2.98h-3.97v-10.1Zm2.63,3.96h.64c.55,0,.83-.47,.83-1.02s-.28-1.05-.83-1.05h-.64v2.07Zm0,4.24h.74c.5,0,.93-.41,.93-1.24s-.44-1.22-.93-1.22h-.74v2.46Z"/><path class="e" d="M722.04,559.23h5.98v2.15h-3.35v1.73h3.14v2.07h-3.14v2.01h3.48v2.15h-6.11v-10.1Z"/><path class="e" d="M728.74,559.23h2.63v10.1h-2.63v-10.1Z"/><path class="e" d="M735.62,559.23h3.82c3.04,0,3.2,2.41,3.2,5.05s-.16,5.05-3.2,5.05h-3.82v-10.1Zm2.63,8.2h.52c1.02,0,1.15-.42,1.15-3.15s-.13-3.15-1.15-3.15h-.52v6.31Z"/><path class="e" d="M743.46,559.23h5.98v2.15h-3.35v1.73h3.14v2.07h-3.14v2.01h3.48v2.15h-6.11v-10.1Z"/><path class="e" d="M750.25,559.23h4.12c2.01,0,2.77,1.13,2.77,2.69,0,1.36-.52,2.22-1.73,2.41v.03c1.26,.11,1.66,.92,1.66,2.26v.86c0,.52,0,1.19,.13,1.4,.07,.11,.13,.21,.3,.31v.14h-2.8c-.25-.52-.25-1.51-.25-1.92v-.68c0-1.15-.23-1.44-.86-1.44h-.69v4.05h-2.63v-10.1Zm2.63,4.27h.52c.75,0,1.1-.48,1.1-1.2,0-.83-.33-1.17-1.12-1.17h-.51v2.38Z"/><path class="e" d="M764.88,563.84h3.39v5.49h-1.78l-.06-.89h-.03c-.34,.88-1.29,1.09-2.18,1.09-2.67,0-2.91-1.91-2.91-5.25s.65-5.25,3.76-5.25c1.85,0,3.2,.95,3.2,3.4h-2.55c0-.52-.04-.92-.14-1.17-.1-.3-.31-.44-.61-.44-.86,0-.95,.74-.95,3.47s.1,3.47,.89,3.47c.55,0,.89-.37,.89-2.12h-.93v-1.78Z"/><path class="e" d="M768.97,559.23h2.63v10.1h-2.63v-10.1Z"/><path class="e" d="M772.47,559.23h5.98v2.15h-3.35v1.73h3.14v2.07h-3.14v2.01h3.48v2.15h-6.11v-10.1Z"/><path class="e" d="M779.26,559.23h3.82c3.04,0,3.2,2.41,3.2,5.05s-.16,5.05-3.2,5.05h-3.82v-10.1Zm2.63,8.2h.52c1.02,0,1.15-.42,1.15-3.15s-.13-3.15-1.15-3.15h-.52v6.31Z"/><path class="e" d="M787.1,559.23h5.98v2.15h-3.35v1.73h3.14v2.07h-3.14v2.01h3.48v2.15h-6.11v-10.1Z"/><path class="e" d="M793.89,559.23h2.63v7.95h3.24v2.15h-5.87v-10.1Z"/><path class="e" d="M800.31,559.23h1.98v5.29h-1.98v-5.29Zm3.27,0h1.98v5.29h-1.98v-5.29Z"/></g><g><path class="e" d="M636.1,637.44h3.97c1.88,0,2.76,.99,2.76,2.52,0,1.08-.47,2.04-1.58,2.26v.03c1.32,.11,1.87,1.26,1.87,2.31,0,1.75-.85,2.98-3.04,2.98h-3.97v-10.1Zm2.63,3.96h.64c.55,0,.83-.47,.83-1.02s-.28-1.05-.83-1.05h-.64v2.07Zm0,4.24h.74c.5,0,.93-.41,.93-1.25,0-.79-.44-1.22-.93-1.22h-.74v2.46Z"/><path class="e" d="M643.76,637.44h2.63v10.1h-2.63v-10.1Z"/><path class="e" d="M651.19,640.35v-.24c0-.61-.24-1.09-.75-1.09-.57,0-.82,.44-.82,.89,0,1.99,4.3,1.02,4.3,4.71,0,2.15-1.26,3.11-3.58,3.11-2.18,0-3.4-.75-3.4-2.84v-.35h2.55v.24c0,.86,.35,1.17,.86,1.17,.55,0,.85-.42,.85-.98,0-1.99-4.13-1-4.13-4.58,0-2.05,1.09-3.15,3.31-3.15s3.27,.95,3.27,3.11h-2.46Z"/><path class="e" d="M655.9,639.67h-1.98v-2.24h6.59v2.24h-1.98v7.86h-2.63v-7.86Z"/><path class="e" d="M660.82,637.44h4.12c2.01,0,2.77,1.13,2.77,2.69,0,1.36-.52,2.22-1.73,2.4v.03c1.26,.11,1.66,.92,1.66,2.26v.86c0,.52,0,1.19,.13,1.4,.07,.11,.13,.21,.3,.31v.14h-2.8c-.25-.52-.25-1.51-.25-1.92v-.68c0-1.15-.23-1.44-.86-1.44h-.69v4.05h-2.63v-10.1Zm2.63,4.27h.52c.75,0,1.1-.48,1.1-1.2,0-.83-.33-1.17-1.12-1.17h-.51v2.38Z"/><path class="e" d="M671.97,637.24c2.69,0,3.61,1.47,3.61,5.25s-.92,5.25-3.61,5.25-3.61-1.47-3.61-5.25,.92-5.25,3.61-5.25Zm0,8.71c.79,0,.89-.74,.89-3.47s-.1-3.47-.89-3.47-.89,.74-.89,3.47,.1,3.47,.89,3.47Z"/><path class="e" d="M679.64,637.44h3.82c3.04,0,3.2,2.4,3.2,5.05s-.16,5.05-3.2,5.05h-3.82v-10.1Zm2.63,8.2h.52c1.02,0,1.15-.42,1.15-3.15s-.13-3.15-1.15-3.15h-.52v6.31Z"/><path class="e" d="M687.48,637.44h5.98v2.15h-3.35v1.73h3.14v2.06h-3.14v2.01h3.48v2.15h-6.11v-10.1Z"/><path class="e" d="M697.66,637.44h2.63v7.95h3.24v2.15h-5.87v-10.1Z"/><path class="e" d="M705.59,637.44h3.31l2.46,10.1h-2.8l-.27-1.77h-2.09l-.27,1.77h-2.8l2.46-10.1Zm1.67,2.07h-.03l-.72,4.29h1.47l-.72-4.29Z"/><path class="e" d="M718.3,642.05h3.39v5.49h-1.78l-.06-.89h-.03c-.34,.88-1.29,1.09-2.18,1.09-2.67,0-2.91-1.91-2.91-5.25s.65-5.25,3.76-5.25c1.85,0,3.2,.95,3.2,3.39h-2.55c0-.52-.04-.92-.14-1.17-.1-.3-.31-.44-.61-.44-.86,0-.95,.74-.95,3.47s.1,3.47,.89,3.47c.55,0,.89-.37,.89-2.12h-.93v-1.78Z"/><path class="e" d="M724.15,637.44h3.31l2.46,10.1h-2.8l-.27-1.77h-2.09l-.27,1.77h-2.8l2.46-10.1Zm1.67,2.07h-.03l-.72,4.29h1.47l-.72-4.29Z"/><path class="e" d="M730.08,637.44h4.12c2.01,0,2.77,1.13,2.77,2.69,0,1.36-.52,2.22-1.73,2.4v.03c1.26,.11,1.66,.92,1.66,2.26v.86c0,.52,0,1.19,.13,1.4,.07,.11,.13,.21,.3,.31v.14h-2.8c-.25-.52-.25-1.51-.25-1.92v-.68c0-1.15-.23-1.44-.86-1.44h-.69v4.05h-2.63v-10.1Zm2.63,4.27h.52c.75,0,1.1-.48,1.1-1.2,0-.83-.33-1.17-1.12-1.17h-.51v2.38Z"/><path class="e" d="M737.91,637.44h5.98v2.15h-3.35v1.73h3.14v2.06h-3.14v2.01h3.48v2.15h-6.11v-10.1Z"/></g><g><path class="e" d="M174.01,988.63h2.63v7.95h3.24v2.15h-5.87v-10.1Z"/><path class="e" d="M180.28,988.63h5.98v2.15h-3.35v1.73h3.14v2.07h-3.14v2.01h3.48v2.15h-6.11v-10.1Z"/><path class="e" d="M190.37,988.63h3.95c2.01,0,2.91,1.36,2.91,3.11,0,2.08-1.16,3.14-3.31,3.14h-.92v3.85h-2.63v-10.1Zm2.63,4.36h.5c.67,0,1.02-.38,1.02-1.23s-.34-1.23-1.02-1.23h-.5v2.46Z"/><path class="e" d="M197.78,988.63h4.12c2.01,0,2.77,1.13,2.77,2.69,0,1.36-.52,2.22-1.73,2.4v.03c1.26,.11,1.65,.92,1.65,2.26v.86c0,.52,0,1.19,.13,1.4,.07,.11,.13,.21,.3,.31v.14h-2.8c-.25-.52-.25-1.51-.25-1.92v-.68c0-1.15-.23-1.44-.86-1.44h-.69v4.04h-2.63v-10.1Zm2.63,4.27h.52c.75,0,1.1-.48,1.1-1.2,0-.83-.33-1.17-1.12-1.17h-.51v2.38Z"/><path class="e" d="M205.62,988.63h5.98v2.15h-3.35v1.73h3.14v2.07h-3.14v2.01h3.48v2.15h-6.11v-10.1Z"/><path class="e" d="M216.34,991.55v-.24c0-.61-.24-1.09-.75-1.09-.57,0-.82,.44-.82,.89,0,1.99,4.3,1.02,4.3,4.71,0,2.15-1.26,3.11-3.58,3.11-2.18,0-3.4-.75-3.4-2.84v-.35h2.55v.24c0,.86,.35,1.17,.86,1.17,.55,0,.85-.42,.85-.98,0-1.99-4.13-1-4.13-4.58,0-2.05,1.09-3.15,3.31-3.15s3.27,.95,3.27,3.11h-2.46Z"/><path class="e" d="M219.81,988.63h3.97c1.88,0,2.76,.99,2.76,2.52,0,1.08-.47,2.04-1.58,2.26v.03c1.32,.11,1.87,1.26,1.87,2.31,0,1.75-.85,2.98-3.04,2.98h-3.97v-10.1Zm2.63,3.96h.64c.55,0,.83-.47,.83-1.02s-.28-1.05-.83-1.05h-.64v2.07Zm0,4.24h.74c.5,0,.93-.41,.93-1.25,0-.79-.44-1.22-.93-1.22h-.74v2.46Z"/><path class="e" d="M229.3,994.76l-2.57-6.12h2.89l.99,3.52h.03l.99-3.52h2.89l-2.57,6.12v3.97h-2.63v-3.97Z"/><path class="e" d="M235.97,990.87h-1.98v-2.24h6.59v2.24h-1.98v7.86h-2.63v-7.86Z"/><path class="e" d="M240.89,988.63h5.98v2.15h-3.35v1.73h3.14v2.07h-3.14v2.01h3.48v2.15h-6.11v-10.1Zm1.32-2.79h2.38l.62,2.07h-1.64l-1.36-2.07Z"/><path class="e" d="M247.68,988.63h4.12c2.01,0,2.77,1.13,2.77,2.69,0,1.36-.52,2.22-1.73,2.4v.03c1.26,.11,1.65,.92,1.65,2.26v.86c0,.52,0,1.19,.13,1.4,.07,.11,.13,.21,.3,.31v.14h-2.8c-.25-.52-.25-1.51-.25-1.92v-.68c0-1.15-.23-1.44-.86-1.44h-.69v4.04h-2.63v-10.1Zm2.63,4.27h.52c.75,0,1.1-.48,1.1-1.2,0-.83-.33-1.17-1.12-1.17h-.51v2.38Z"/><path class="e" d="M255.52,988.63h5.98v2.15h-3.35v1.73h3.14v2.07h-3.14v2.01h3.48v2.15h-6.11v-10.1Z"/></g><g><path class="e" d="M144.58,804.27h3.97c1.88,0,2.76,.99,2.76,2.52,0,1.08-.47,2.04-1.58,2.26v.03c1.32,.11,1.87,1.26,1.87,2.31,0,1.75-.85,2.98-3.04,2.98h-3.97v-10.1Zm2.63,3.96h.64c.55,0,.83-.47,.83-1.02s-.28-1.05-.83-1.05h-.64v2.07Zm0,4.24h.74c.5,0,.93-.41,.93-1.25,0-.79-.44-1.22-.93-1.22h-.74v2.46Z"/><path class="e" d="M152.33,804.27h4.12c2.01,0,2.77,1.13,2.77,2.69,0,1.36-.52,2.22-1.73,2.4v.03c1.26,.11,1.66,.92,1.66,2.26v.86c0,.52,0,1.19,.13,1.4,.07,.11,.13,.21,.3,.31v.14h-2.8c-.25-.52-.25-1.51-.25-1.92v-.68c0-1.15-.23-1.44-.86-1.44h-.69v4.05h-2.63v-10.1Zm2.63,4.27h.52c.75,0,1.1-.48,1.1-1.2,0-.83-.33-1.17-1.12-1.17h-.51v2.38Z"/><path class="e" d="M161.82,804.27h3.31l2.46,10.1h-2.8l-.27-1.77h-2.09l-.27,1.77h-2.8l2.46-10.1Zm1.67,2.07h-.03l-.72,4.29h1.47l-.72-4.29Z"/><path class="e" d="M171.69,807.19v-.24c0-.61-.24-1.09-.75-1.09-.57,0-.82,.44-.82,.89,0,1.99,4.3,1.02,4.3,4.71,0,2.15-1.26,3.11-3.58,3.11-2.18,0-3.4-.75-3.4-2.84v-.35h2.55v.24c0,.86,.35,1.17,.86,1.17,.55,0,.85-.42,.85-.98,0-1.99-4.13-1-4.13-4.58,0-2.05,1.09-3.15,3.31-3.15s3.27,.95,3.27,3.11h-2.46Z"/><path class="e" d="M179,807.19v-.24c0-.61-.24-1.09-.75-1.09-.57,0-.82,.44-.82,.89,0,1.99,4.3,1.02,4.3,4.71,0,2.15-1.26,3.11-3.58,3.11-2.18,0-3.39-.75-3.39-2.84v-.35h2.55v.24c0,.86,.35,1.17,.86,1.17,.55,0,.85-.42,.85-.98,0-1.99-4.13-1-4.13-4.58,0-2.05,1.09-3.15,3.31-3.15s3.27,.95,3.27,3.11h-2.46Z"/><path class="e" d="M182.38,804.27h5.98v2.15h-3.35v1.73h3.14v2.06h-3.14v2.01h3.48v2.15h-6.11v-10.1Z"/><path class="e" d="M189.17,804.27h4.12c2.01,0,2.77,1.13,2.77,2.69,0,1.36-.52,2.22-1.73,2.4v.03c1.26,.11,1.66,.92,1.66,2.26v.86c0,.52,0,1.19,.13,1.4,.07,.11,.13,.21,.3,.31v.14h-2.8c-.25-.52-.25-1.51-.25-1.92v-.68c0-1.15-.23-1.44-.86-1.44h-.69v4.05h-2.63v-10.1Zm2.63,4.27h.52c.75,0,1.1-.48,1.1-1.2,0-.83-.33-1.17-1.12-1.17h-.51v2.38Z"/><path class="e" d="M196.91,804.27h2.63v10.1h-2.63v-10.1Z"/><path class="e" d="M200.41,804.27h5.98v2.15h-3.35v1.73h3.14v2.06h-3.14v2.01h3.48v2.15h-6.11v-10.1Z"/><path class="e" d="M210.59,804.27h3.82c3.04,0,3.2,2.4,3.2,5.05s-.16,5.05-3.2,5.05h-3.82v-10.1Zm2.63,8.2h.52c1.02,0,1.15-.42,1.15-3.15s-.13-3.15-1.15-3.15h-.52v6.31Z"/><path class="e" d="M218.43,804.27h5.98v2.15h-3.35v1.73h3.14v2.06h-3.14v2.01h3.48v2.15h-6.11v-10.1Z"/><path class="e" d="M228.62,804.27h2.63v7.95h3.24v2.15h-5.87v-10.1Z"/><path class="e" d="M236.54,804.27h3.31l2.46,10.1h-2.8l-.27-1.77h-2.09l-.27,1.77h-2.8l2.46-10.1Zm1.67,2.07h-.03l-.72,4.29h1.47l-.72-4.29Z"/><path class="e" d="M245.77,804.27h3.76l1.06,5.98h.03l1.06-5.98h3.76v10.1h-2.46v-7.53h-.03l-1.4,7.53h-1.9l-1.4-7.53h-.03v7.53h-2.46v-10.1Z"/><path class="e" d="M256.21,804.27h2.63v10.1h-2.63v-10.1Z"/><path class="e" d="M259.7,804.27h2.94l1.7,6.22h.03v-6.22h2.46v10.1h-2.89l-1.75-6.24h-.03v6.24h-2.46v-10.1Z"/><path class="e" d="M267.79,804.27h5.98v2.15h-3.35v1.73h3.14v2.06h-3.14v2.01h3.48v2.15h-6.11v-10.1Z"/></g><g><path class="e" d="M70.46,900.08h3.31l2.46,10.1h-2.8l-.27-1.77h-2.09l-.27,1.77h-2.8l2.46-10.1Zm1.67,2.07h-.03l-.72,4.29h1.47l-.72-4.29Z"/><path class="e" d="M78.77,900.08v7.28c0,.98,.3,1.23,.79,1.23s.79-.25,.79-1.23v-7.28h2.63v6.62c0,2.83-1.22,3.68-3.42,3.68s-3.42-.85-3.42-3.68v-6.62h2.63Z"/><path class="e" d="M83.92,900.08h3.97c1.88,0,2.76,.99,2.76,2.52,0,1.08-.47,2.04-1.58,2.26v.03c1.32,.11,1.87,1.26,1.87,2.3,0,1.75-.85,2.99-3.04,2.99h-3.97v-10.1Zm2.63,3.96h.64c.55,0,.83-.47,.83-1.02s-.28-1.05-.83-1.05h-.64v2.06Zm0,4.24h.74c.5,0,.93-.41,.93-1.25,0-.79-.44-1.22-.93-1.22h-.74v2.46Z"/><path class="e" d="M91.67,900.08h5.98v2.15h-3.35v1.73h3.14v2.06h-3.14v2.01h3.48v2.15h-6.11v-10.1Z"/><path class="e" d="M98.46,900.08h4.12c2.01,0,2.77,1.13,2.77,2.69,0,1.36-.52,2.22-1.73,2.4v.03c1.26,.11,1.65,.92,1.65,2.26v.86c0,.52,0,1.19,.13,1.4,.07,.11,.13,.21,.3,.31v.14h-2.8c-.25-.52-.25-1.51-.25-1.92v-.68c0-1.15-.23-1.44-.86-1.44h-.69v4.05h-2.63v-10.1Zm2.63,4.27h.52c.75,0,1.1-.48,1.1-1.2,0-.83-.33-1.17-1.12-1.17h-.51v2.38Z"/><path class="e" d="M109.69,904.69h3.4v5.49h-1.78l-.06-.89h-.03c-.34,.88-1.29,1.09-2.18,1.09-2.67,0-2.91-1.91-2.91-5.25s.65-5.25,3.76-5.25c1.85,0,3.2,.95,3.2,3.39h-2.55c0-.52-.04-.92-.14-1.17-.1-.3-.31-.44-.61-.44-.86,0-.95,.74-.95,3.47s.1,3.46,.89,3.46c.55,0,.89-.37,.89-2.12h-.93v-1.78Z"/><path class="e" d="M113.88,900.08h5.98v2.15h-3.35v1.73h3.14v2.06h-3.14v2.01h3.48v2.15h-6.11v-10.1Z"/><path class="e" d="M124.07,900.08h3.82c3.04,0,3.2,2.4,3.2,5.05s-.16,5.05-3.2,5.05h-3.82v-10.1Zm2.63,8.2h.52c1.02,0,1.15-.42,1.15-3.15s-.13-3.15-1.15-3.15h-.52v6.31Z"/><path class="e" d="M131.91,900.08h5.98v2.15h-3.35v1.73h3.14v2.06h-3.14v2.01h3.48v2.15h-6.11v-10.1Z"/><path class="e" d="M142.09,900.08h2.63v7.95h3.24v2.15h-5.87v-10.1Z"/><path class="e" d="M150.02,900.08h3.31l2.46,10.1h-2.8l-.27-1.77h-2.09l-.27,1.77h-2.8l2.46-10.1Zm1.67,2.07h-.03l-.72,4.29h1.47l-.72-4.29Z"/><path class="e" d="M159.24,900.08h3.95c2.01,0,2.91,1.36,2.91,3.11,0,2.08-1.16,3.14-3.31,3.14h-.92v3.85h-2.63v-10.1Zm2.63,4.36h.5c.66,0,1.02-.38,1.02-1.23s-.34-1.23-1.02-1.23h-.5v2.46Z"/><path class="e" d="M166.66,900.08h4.12c2.01,0,2.77,1.13,2.77,2.69,0,1.36-.52,2.22-1.73,2.4v.03c1.26,.11,1.65,.92,1.65,2.26v.86c0,.52,0,1.19,.13,1.4,.07,.11,.13,.21,.3,.31v.14h-2.8c-.25-.52-.25-1.51-.25-1.92v-.68c0-1.15-.23-1.44-.86-1.44h-.69v4.05h-2.63v-10.1Zm2.63,4.27h.52c.75,0,1.1-.48,1.1-1.2,0-.83-.33-1.17-1.12-1.17h-.51v2.38Z"/><path class="e" d="M177.8,899.88c2.69,0,3.61,1.47,3.61,5.25s-.92,5.25-3.61,5.25-3.61-1.47-3.61-5.25,.92-5.25,3.61-5.25Zm0,8.71c.79,0,.89-.74,.89-3.46s-.1-3.47-.89-3.47-.89,.74-.89,3.47,.1,3.46,.89,3.46Z"/><path class="e" d="M181.98,900.08h3.76l1.06,5.98h.03l1.06-5.98h3.76v10.1h-2.46v-7.53h-.03l-1.4,7.53h-1.9l-1.4-7.53h-.03v7.53h-2.46v-10.1Z"/><path class="e" d="M192.52,900.08h5.98v2.15h-3.35v1.73h3.14v2.06h-3.14v2.01h3.48v2.15h-6.11v-10.1Z"/><path class="e" d="M199.31,900.08h2.94l1.7,6.22h.03v-6.22h2.46v10.1h-2.89l-1.75-6.24h-.03v6.24h-2.46v-10.1Z"/><path class="e" d="M209.06,900.08h3.31l2.46,10.1h-2.8l-.27-1.77h-2.09l-.27,1.77h-2.8l2.46-10.1Zm1.67,2.07h-.03l-.72,4.29h1.47l-.72-4.29Z"/><path class="e" d="M214.99,900.08h3.82c3.04,0,3.2,2.4,3.2,5.05s-.16,5.05-3.2,5.05h-3.82v-10.1Zm2.63,8.2h.52c1.02,0,1.15-.42,1.15-3.15s-.13-3.15-1.15-3.15h-.52v6.31Z"/><path class="e" d="M222.82,900.08h5.98v2.15h-3.35v1.73h3.14v2.06h-3.14v2.01h3.48v2.15h-6.11v-10.1Z"/></g><rect class="d" width="1300" height="1080"/></g></g></svg>