<?xml version="1.0" encoding="UTF-8"?><svg xmlns="http://www.w3.org/2000/svg" viewBox="0 0 1300 1080"><defs><style>.d{fill:#89823d;}.e{fill:none;}</style></defs><g id="a"/><g id="b"><g id="c"><g><path class="d" d="M384.48,790.03l2.07-1.62,4.9,6.27,2.55-2,1.32,1.7-4.63,3.62-6.22-7.96Z"/><path class="d" d="M390.11,785.64l4.72-3.68,1.32,1.7-2.64,2.06,1.06,1.36,2.48-1.93,1.27,1.63-2.48,1.93,1.23,1.58,2.74-2.14,1.32,1.7-4.82,3.76-6.21-7.96Z"/><path class="d" d="M401.5,779.6l-1.56,1.22-1.37-1.76,5.21-4.05,1.37,1.76-1.56,1.21,4.83,6.21-2.08,1.62-4.83-6.21Z"/><path class="d" d="M404.7,774.28l3.25-2.52c1.59-1.23,2.89-.8,3.84,.43,.83,1.07,.95,2.08,.11,2.96l.02,.02c1.06-.68,1.87-.29,2.7,.78l.53,.68c.32,.41,.73,.94,.96,1.03,.12,.05,.23,.09,.43,.06l.09,.11-2.21,1.72c-.52-.26-1.13-1.04-1.38-1.37l-.42-.54c-.7-.91-1.06-1-1.57-.61l-.55,.42,2.48,3.2-2.08,1.61-6.19-7.99Zm4.7,1.77l.41-.32c.59-.46,.58-1.06,.14-1.63-.51-.66-.98-.73-1.6-.24l-.4,.31,1.46,1.88Z"/><path class="d" d="M412.91,767.92l2.62-2.02,8.13,6.49-2.22,1.71-1.29-1.24-1.66,1.28,.87,1.56-2.22,1.71-4.23-9.5Zm2.58,.61l-.02,.02,2.05,3.83,1.16-.9-3.19-2.95Z"/><path class="d" d="M418.18,763.85l2.08-1.61,6.17,8-2.08,1.61-6.17-8Z"/><path class="d" d="M421.63,761.19l2.33-1.79,5.14,3.9,.02-.02-3.79-4.93,1.95-1.5,6.16,8.01-2.29,1.76-5.19-3.88-.02,.02,3.8,4.95-1.95,1.5-6.16-8.01Z"/><path class="d" d="M432.06,753.19l3-2.28,4.47,4.12,.02-.02-2.78-5.41,3-2.28,6.11,8.04-1.96,1.49-4.55-5.99-.02,.02,3.44,6.84-1.51,1.15-5.67-5.14-.02,.02,4.55,5.99-1.96,1.49-6.11-8.04Z"/><path class="d" d="M441.07,746.33l2.1-1.58,6.08,8.07-2.1,1.58-6.08-8.07Z"/><path class="d" d="M444.57,743.7l2.36-1.75,5.08,3.98,.02-.02-3.71-5,1.98-1.47,6.02,8.11-2.32,1.72-5.13-3.96-.02,.02,3.72,5.01-1.98,1.47-6.02-8.11Z"/><path class="d" d="M451.77,738.38l2.13-1.54,5.91,8.19-2.13,1.54-5.9-8.19Z"/><path class="d" d="M455.61,735.57l5.03-3.24,1.16,1.81-2.82,1.82,.93,1.45,2.64-1.7,1.12,1.74-2.64,1.7,1.09,1.69,2.93-1.88,1.16,1.81-5.14,3.31-5.47-8.5Z"/><path class="d" d="M462.41,731.32l3.57-2.05c1.74-1,2.97-.4,3.74,.95,.68,1.18,.65,2.19-.3,2.95v.02c1.16-.53,1.91-.03,2.58,1.14l.43,.75c.26,.45,.59,1.03,.81,1.15,.12,.06,.22,.12,.41,.12l.07,.12-2.43,1.4c-.48-.33-.98-1.19-1.18-1.54l-.34-.59c-.57-.99-.92-1.14-1.47-.82l-.6,.35,2.02,3.51-2.28,1.31-5.03-8.76Zm4.41,2.39l.45-.26c.65-.37,.72-.97,.36-1.59-.42-.72-.87-.86-1.55-.46l-.44,.25,1.18,2.06Z"/><path class="d" d="M475.8,728.76l1.13-2.4,1.15,1.91-.61,1.29,1.43,.07,1.15,1.91-2.65-.12-1.6-2.67Zm2.3-1.39l1.13-2.4,1.15,1.91-.61,1.29,1.43,.07,1.15,1.91-2.65-.12-1.6-2.67Z"/><path class="d" d="M479.02,721.67l3.11-2.13,4.26,4.34,.02-.02-2.51-5.54,3.1-2.13,5.72,8.33-2.03,1.39-4.26-6.21-.02,.02,3.11,7-1.56,1.07-5.42-5.42-.02,.02,4.26,6.21-2.03,1.39-5.72-8.33Z"/><path class="d" d="M487.96,715.33l2.04-1.66,6.38,7.83-2.04,1.66-6.38-7.83Z"/><path class="d" d="M491.07,712.87l2.08-2.08,5.6,3.21,.02-.02-4.4-4.41,1.74-1.74,7.14,7.16-2.04,2.04-5.65-3.18-.02,.02,4.41,4.42-1.74,1.74-7.14-7.16Z"/><path class="d" d="M496.8,706.87l1.6-2.09,8.04,6.12-1.59,2.09-8.04-6.12Z"/><path class="d" d="M497.26,701.49l1.1-2.1,2.12,.41-.76,1.45-2.46,.24Zm1.86,2.46l2.78-5.3,1.9,1-1.56,2.97,1.53,.8,1.46-2.78,1.83,.96-1.46,2.78,1.78,.93,1.62-3.08,1.9,1-2.84,5.41-8.94-4.7Z"/><path class="d" d="M502.32,697.5l1.54-3.82c.75-1.86,2.09-2.15,3.53-1.57,1.26,.51,1.86,1.32,1.58,2.5h.03c.58-1.12,1.47-1.18,2.72-.68l.8,.32c.49,.2,1.1,.44,1.35,.41,.13-.02,.24-.04,.4-.16l.13,.05-1.05,2.6c-.58,.04-1.5-.33-1.88-.48l-.63-.25c-1.06-.43-1.42-.33-1.66,.26l-.26,.64,3.75,1.51-.98,2.44-9.37-3.78Zm4.95-.84l.2-.49c.28-.7-.03-1.2-.7-1.47-.77-.31-1.21-.14-1.51,.6l-.19,.47,2.21,.89Z"/><path class="d" d="M505.43,689.68l2.07-5.62,2.02,.74-1.16,3.15,1.62,.6,1.09-2.95,1.94,.71-1.09,2.95,1.88,.7,1.21-3.27,2.02,.74-2.12,5.74-9.48-3.5Z"/><path class="d" d="M512.05,679.92l-.23-.08c-.57-.2-1.11-.13-1.28,.35-.19,.53,.14,.92,.57,1.07,1.88,.66,2.39-3.72,5.87-2.5,2.03,.71,2.52,2.22,1.75,4.41-.72,2.06-1.83,2.96-3.81,2.26l-.33-.12,.84-2.4,.23,.08c.81,.29,1.23,.06,1.39-.43,.18-.52-.12-.94-.64-1.12-1.88-.66-2.32,3.57-5.69,2.38-1.94-.68-2.62-2.07-1.88-4.17,.76-2.18,1.98-2.77,4.02-2.05l-.82,2.32Z"/><path class="d" d="M510.67,675.03l1.27-3.76c.6-1.78,1.82-2.29,3.27-1.81,1.02,.34,1.78,1.09,1.64,2.23h.03c.53-1.2,1.79-1.36,2.78-1.02,1.66,.56,2.55,1.76,1.85,3.84l-1.27,3.76-9.57-3.24Zm4.59-1.22l.2-.6c.18-.52-.17-.94-.7-1.12-.54-.18-1.08-.07-1.26,.46l-.2,.6,1.96,.66Zm4.02,1.36l.24-.7c.16-.47-.09-1.02-.88-1.28-.75-.25-1.29,.03-1.45,.49l-.24,.7,2.33,.79Z"/><path class="d" d="M514.16,664.57l6.92,2.28c.93,.31,1.26,.1,1.42-.37,.16-.47,0-.83-.92-1.14l-6.92-2.28,.82-2.5,6.29,2.07c2.69,.89,3.11,2.31,2.42,4.4-.69,2.1-1.88,2.99-4.57,2.1l-6.29-2.07,.82-2.5Z"/><path class="d" d="M515.98,659.03l.9-2.8,6.45,.29v-.03l-5.92-1.91,.75-2.34,9.62,3.09-.88,2.75-6.48-.24v.03l5.93,1.91-.75,2.34-9.62-3.09Z"/><path class="d" d="M518.7,650.57l.89-2.81,6.45,.25v-.03l-5.93-1.87,.74-2.35,9.63,3.04-.87,2.75-6.48-.21v.03l5.94,1.88-.74,2.35-9.63-3.04Z"/><path class="d" d="M527.89,644.07l-.4-1.37-1.11,.9-2.13-.67,2.06-1.67,2.97,.93,.75,2.54-2.13-.67Zm.8-2.57l-.4-1.37-1.11,.9-2.13-.67,2.06-1.67,2.97,.93,.75,2.54-2.13-.67Z"/></g><g><path class="d" d="M860.74,399l1.38-2.24,6.78,4.17,1.7-2.76,1.83,1.13-3.08,5-8.61-5.29Z"/><path class="d" d="M864.38,393.1l3.21-5.05,1.82,1.15-1.8,2.83,1.46,.93,1.68-2.65,1.74,1.11-1.68,2.65,1.7,1.08,1.87-2.94,1.82,1.15-3.28,5.16-8.53-5.41Z"/><path class="d" d="M872.96,383.97l-1.11,1.64-1.85-1.25,3.69-5.46,1.85,1.25-1.11,1.64,6.52,4.4-1.47,2.18-6.52-4.4Z"/><path class="d" d="M874.31,377.98l2.41-3.34c1.17-1.63,2.54-1.59,3.8-.68,1.1,.79,1.5,1.72,.95,2.81l.02,.02c.83-.96,1.71-.81,2.81-.02l.7,.5c.42,.31,.96,.69,1.21,.72,.13,0,.25,.02,.43-.06l.12,.08-1.64,2.27c-.57-.1-1.38-.68-1.71-.92l-.55-.4c-.93-.67-1.3-.66-1.68-.14l-.4,.56,3.29,2.37-1.54,2.14-8.2-5.9Zm5.01,.36l.31-.42c.44-.61,.25-1.18-.33-1.6-.68-.49-1.14-.42-1.61,.22l-.3,.41,1.93,1.39Z"/><path class="d" d="M880.51,369.58l2.07-2.58,9.42,4.4-1.75,2.18-1.55-.9-1.31,1.63,1.21,1.32-1.75,2.18-6.34-8.24Zm2.65,0l-.02,.02,2.89,3.24,.92-1.15-3.79-2.12Z"/><path class="d" d="M884.94,364.23l1.79-1.93,7.41,6.87-1.79,1.93-7.41-6.87Z"/><path class="d" d="M888.74,360.2l2.37-1.75,5.07,4,.02-.02-3.7-5.01,1.98-1.46,6,8.13-2.32,1.72-5.12-3.98-.02,.02,3.71,5.02-1.98,1.46-6-8.13Z"/><path class="d" d="M906.67,360.99l-2.78-6.22-1.73,.77-.67-1.5c1.47-.66,1.94-1.27,1.77-2.49l1.73-.77,4.08,9.14-2.4,1.07Z"/><path class="d" d="M913.1,355.78c.13,.33,.28,.53,.44,.62,.14,.09,.33,.09,.56,0,.36-.13,.57-.54,.36-1.12l-.54-1.5h-.03c-.05,.53-.59,1.05-1.32,1.31-1.34,.49-2.48,.16-3.28-2.05-.92-2.55-.15-3.96,1.87-4.69,2.16-.78,3.6-.25,4.71,2.84l.38,1.04c1.05,2.9,1.21,4.71-1.6,5.72-2.43,.88-3.4-.09-3.85-1.35l2.31-.84Zm-.26-2.79c.47-.17,.57-.58,.13-1.79s-.73-1.48-1.25-1.29c-.46,.17-.57,.58-.13,1.79,.44,1.21,.73,1.48,1.25,1.29Z"/><path class="d" d="M918.8,345.82c2.23-.68,3.57,.01,4.76,3.88s.47,5.2-1.76,5.88c-2.23,.69-3.57-.01-4.76-3.88-1.19-3.87-.47-5.2,1.76-5.88Zm1.24,6.69c.42,1.35,.75,1.66,1.28,1.5s.63-.61,.21-1.96l-.97-3.16c-.42-1.35-.75-1.66-1.27-1.5-.53,.16-.63,.61-.21,1.96l.97,3.16Z"/><path class="d" d="M926.36,343.64c2.25-.62,3.57,.12,4.64,4.02,1.07,3.9,.31,5.21-1.94,5.83-2.25,.62-3.57-.12-4.64-4.02s-.31-5.21,1.94-5.83Zm1.04,6.73c.37,1.36,.7,1.69,1.23,1.54,.53-.15,.65-.59,.27-1.95l-.87-3.19c-.37-1.36-.7-1.69-1.23-1.54-.53,.15-.65,.59-.27,1.95l.88,3.19Z"/></g><rect class="e" width="1300" height="1080"/></g></g></svg>