<?xml version="1.0" encoding="UTF-8"?><svg xmlns="http://www.w3.org/2000/svg" viewBox="0 0 1300 1080"><defs><style>.d{fill:#3b3d3c;}.e{fill:#ad773e;}.f{fill:#a0563a;}.g,.h,.i,.j{fill:none;}.k{fill:#193949;}.h{stroke:#3b3d3c;}.h,.i,.j{stroke-miterlimit:10;}.h,.j{stroke-width:6.06px;}.i{stroke-width:.93px;}.i,.j{stroke:#abbdbe;}</style></defs><g id="a"/><g id="b"><g id="c"><g><g><path class="j" d="M379.86,357.75s2.86,8.49,12.97,11.52c10.11,3.03,13.14,4.04,14.15,7.07,1.01,3.03-1.01,30.32,6.06,29.31,7.07-1.01,20.21,4.04,26.28-6.06,6.06-10.11,18.19-37.39,22.23-44.47s3.03-9.1,11.12-12.13c8.08-3.03,17.18-16.17,22.23-21.22,5.05-5.05,29.31-16.17,40.42-22.23s24.25-12.13,31.33-12.13h26.28"/><g><path class="i" d="M1175.02,413.73l2.02-16.17,25.26-2.02-7.07-66.7-18.19,1.01-26.78-94.49,30.67-.85v-66.7l-56.95-26.44-112.18,32.34-100.05,6.06-32.34,89.94,40.42,24.25,42.45-7.07,20.21-12.13,4.04,10.11-30.32,19.2-2.02,23.24,10.11,21.22-59.63,16.17-21.22,24.25,52.55,88.93-16.17,7.07-58.61-44.47-36.38-4.04-58.61-107.12-101.06,20.21-96.01-35.37-38.4,18.19-39.41,84.89-12.13,35.37s75.79,65.69,77.82,67.71,2.02,16.17,2.02,16.17c0,0-83.88-72.76-84.89-72.76s-30.32,23.24-31.33,25.26c-1.01,2.02,132.39,72.76,132.39,72.76l-4.04,8.08,1.01,4.04-97.02-46.49-58.61-7.07-58.61-49.52,4.81-20.59c-14.4,6.91-26.52,18.27-37.51,30.59l17.54,51.64,17.18-3.03,66.7,112.18,53.56,49.52,20.72,11.62,27.29-16.17,14.15-4.04,3.03,5.05,19.2,21.22-16.17,21.22,62.66,48.51,15.16-22.23,186.96,39.41v-35.37l24.25-15.16,80.85-31.33,7.07-28.3,17.18-3.03,2.02,8.08-3.03,27.29,52.55-3.03s-20.21-54.57-23.24-54.57-23.24,4.04-23.24,4.04l-43.46-53.56,31.33-50.53,55.58-38.4,10.11,1.01,8.08-11.12,17.18-58.61,82.87-30.32,34.36,43.46,20.21-12.13,28.3,2.02,19.2-23.24-36.38-19.2Zm-397.67,132.89l-11.12-18.19-20.21,2.02s1.01-8.08-1.01-8.08-20.21-5.05-20.21-5.05l-10.11,5.05-41.43-26.28,19.2-20.21-15.16-6.06-16.17,16.17-31.33-23.24,26.28-26.28-9.1-11.12-26.28-7.07-22.23,24.25-24.25-11.12,22.23-43.46h10.11l7.07,11.12,14.15-5.05,84.89,13.14,44.47,69.73,29.31,67.71-9.1,2.02Zm387.06-96.01l-13.14-12.13-11.12-34.36-33.35,5.05-13.14,2.02-7.07-17.18-8.08-1.01-16.17,28.3-11.12-3.03-40.42,24.25-21.22,27.29-13.14-22.23-20.21-3.03-1.01-16.17,25.26-23.24,26.28-1.01,6.06-11.12,14.15-14.15-4.04-28.3-17.18-30.32,50.53-41.43,4.04-16.17-4.04-4.04-15.16,18.19-18.19-13.14,9.1-10.11,16.17-8.08-22.23-18.19,68.72-15.16,42.45,154.62,5.05-2.02-4.04-36.38,4.04-1.01,6.06,36.38,14.15,20.21-5.05,16.17,10.11,31.33,3.03,12.13-6.06,7.07Z"/><path class="i" d="M561.09,842.73l-14.15,2.02-7.07-13.14-35.37-34.36-20.21,8.08,4.04,14.15-25.26,10.11,3.03,5.05,28.3-5.05,19.2,39.41-83.88,26.28,4.04,16.17,10.11,10.11,1.01,3.03,10.11,4.04-1.01,7.07-20.21-4.04-15.16-30.32-13.14,1.01-12.13-43.46,49.52-23.24,7.07-9.1,4.04-6.06v-6.06l-52.55-1.01-18.19-32.34,45.48-35.37,23.24-11.12-13.14-30.32-44.47-24.25-42.45,19.2-2.54-.45c-15.73,7.47-32.58,12.85-48.65,19.4-12.54,5.11-23.97,12.68-36.66,17.3-6.11,2.22-12.53,3.94-18.79,6l23.78,36.58,29.31,21.22,34.36,23.24,4.04,19.2-51.54,13.14-20.21,34.36,4.04,34.36,23.24,44.47,21.22,6.06,13.14,27.29,2.02,16.17,24.25,33.35,129.36-76.81,109.14-71.75,45.48-65.69-12.13-14.15-63.67,20.21Z"/><polygon class="i" points="1124.49 389.48 1114.39 384.42 1110.35 375.33 1115.4 370.27 1099.23 363.2 1092.16 354.11 1065.88 354.11 1062.85 380.38 1068.91 381.39 1075.99 377.35 1093.17 376.34 1100.24 378.36 1110.35 385.43 1126.52 396.55 1130.56 392.51 1128.54 387.46 1124.49 389.48"/><path class="i" d="M1096.7,349.56l16.17,11.12,10.11-4.04-9.1-30.32-10.11,8.08,2.02,4.04,4.04,1.01,2.02,10.11s-11.12-4.04-13.14-5.05c-2.02-1.01-20.21-3.03-20.21-3.03l-16.17-20.21,11.12,24.25,23.24,4.04Z"/><polygon class="i" points="1084.58 321.26 1087.61 328.34 1078.51 331.37 1089.63 334.4 1109.84 323.28 1109.84 305.09 1099.74 307.11 1100.75 316.21 1094.68 315.2 1087.61 306.1 1078.51 307.11 1057.29 291.95 1052.24 294.99 1060.32 302.06 1058.3 309.13 1073.46 327.32 1084.58 321.26"/><polygon class="i" points="1075.48 285.89 1076.49 281.85 1086.6 281.85 1085.59 288.92 1088.62 296 1101.76 291.95 1094.68 272.75 1080.53 274.77 1061.33 280.84 1063.35 284.88 1075.48 285.89"/></g><polygon class="f" points="619.2 587.55 612.12 571.38 571.7 549.15 576.75 537.02 673.77 576.44 726.32 588.56 727.33 579.47 745.52 588.56 745.52 592.61 769.77 602.71 801.1 621.91 788.98 633.03 751.58 610.8 733.39 598.67 688.93 592.61 657.6 586.54 641.43 587.55 619.2 587.55"/><polygon class="e" points="347.34 839.19 334.21 809.89 297.83 795.74 285.7 805.84 297.83 821 278.62 825.04 260.43 844.25 250.33 884.67 241.23 885.68 247.3 935.2 264.48 938.23 272.56 969.56 275.59 985.73 282.67 990.78 276.6 1016.05 302.88 1032.22 319.05 1025.14 327.13 993.81 304.39 976.13 287.21 967.03 276.1 928.63 264.98 894.27 280.14 855.87 312.48 845.76 317.53 853.85 347.34 839.19"/><g><path class="h" d="M722.78,594.12s-.34-.08-.98-.23"/><path class="d" d="M719.15,596.38l-1.96-.46,1.38-5.9,1.97,.46-1.39,5.9Zm-3.93-.92l-1.96-.46,1.37-5.91,1.97,.46-1.38,5.91Zm-3.93-.91l-1.97-.46,1.37-5.91,1.96,.45-1.37,5.91Zm-3.93-.91l-1.97-.45,1.36-5.91,1.97,.45-1.36,5.91Zm-3.93-.9l-1.96-.45,1.34-5.91,1.97,.45-1.35,5.91Zm-3.93-.9l-1.96-.44,1.33-5.92,1.91,.43-1.28,5.93Zm-117.28-.61c-.71,0-1.41-.01-2.12-.04l.22-6.06c.64,.02,1.27,.03,1.91,.04v6.06Zm2.09-.03l-.17-6.06c.64-.02,1.28-.05,1.91-.08l.36,6.05c-.7,.04-1.4,.07-2.11,.09Zm-6.33-.12c-.71-.05-1.41-.11-2.12-.19l.65-6.03c.63,.07,1.26,.12,1.89,.17l-.42,6.05Zm117.59-.12l-1.97-.45,1.34-5.91,1.97,.44-1.33,5.92Zm-107.05,0l-.53-6.04c.64-.06,1.28-.12,1.92-.19l.69,6.02c-.69,.08-1.39,.15-2.08,.21Zm-14.77-.33c-.7-.1-1.41-.22-2.11-.35l1.13-5.96c.62,.12,1.24,.22,1.86,.31l-.88,6Zm18.92-.14l-.84-6.01c.64-.09,1.28-.19,1.92-.29l.97,5.98c-.68,.11-1.37,.22-2.06,.31Zm98.97-.41l-1.96-.44,1.32-5.92,1.97,.44-1.33,5.92Zm-122.09-.24c-.7-.16-1.39-.34-2.08-.53l1.64-5.84c.61,.17,1.21,.32,1.82,.47l-1.38,5.9Zm27.23-.02l-1.12-5.96c.64-.12,1.28-.25,1.92-.38l1.23,5.94c-.67,.14-1.35,.27-2.03,.4Zm90.93-.62l-1.97-.44,1.32-5.92,1.97,.44-1.32,5.92Zm-86.87-.22l-1.34-5.91c.64-.14,1.28-.3,1.91-.45l1.45,5.89c-.67,.17-1.34,.32-2.02,.48Zm-35.39-.28c-.68-.22-1.34-.43-1.96-.64l1.93-5.75c.59,.2,1.21,.4,1.86,.6l-1.82,5.78Zm118.33-.37l-1.97-.43,1.3-5.92,1.97,.43-1.31,5.92Zm-78.92-.34l-1.55-5.86c.64-.17,1.27-.34,1.9-.52l1.64,5.84c-.66,.18-1.32,.37-1.99,.54Zm74.99-.52l-1.97-.43,1.28-5.93,1.98,.43-1.29,5.92Zm-118.33-.09c-.69-.25-1.34-.5-1.96-.74l2.24-5.64c.56,.22,1.16,.45,1.79,.68l-2.07,5.7Zm47.31-.5l-1.72-5.81c.64-.19,1.27-.38,1.89-.57l1.8,5.79c-.65,.2-1.3,.4-1.97,.6Zm67.08-.27l-1.97-.42,1.28-5.93,1.97,.43-1.28,5.93Zm-118.31-.8c-.7-.31-1.35-.62-1.95-.92l2.74-5.41c.52,.26,1.07,.52,1.67,.79l-2.46,5.54Zm114.38-.04l-1.97-.42,1.26-5.93,1.97,.42-1.26,5.93Zm-59.22-.11l-1.87-5.77c.64-.21,1.27-.42,1.89-.62l1.92,5.75c-.64,.21-1.28,.42-1.94,.64Zm55.28-.73l-1.98-.41,1.25-5.93,1.97,.41-1.25,5.93Zm-51.41-.57l-1.98-5.73,1.89-.66,2.01,5.72-1.92,.67Zm47.47-.26l-1.97-.41,1.22-5.94,1.98,.41-1.23,5.94Zm-110.39-.29c-.67-.4-1.31-.81-1.9-1.24l3.54-4.92c.45,.32,.94,.64,1.45,.95l-3.1,5.21Zm106.45-.52l-1.97-.4,1.19-5.95,1.98,.4-1.2,5.94Zm-39.7-.28l-2.03-5.71,1.89-.68,2.05,5.71-1.91,.68Zm35.75-.51l-1.97-.39,1.16-5.95,1.99,.39-1.17,5.95Zm-3.94-.77l-1.97-.37,1.12-5.96,1.99,.38-1.14,5.96Zm-28.01-.08l-2.04-5.71c.66-.24,1.3-.46,1.92-.68l2.01,5.72c-.61,.21-1.23,.44-1.88,.67Zm-74.25-.52c-.55-.49-1.08-1.01-1.63-1.59l4.42-4.15c.42,.45,.82,.84,1.23,1.2l-4.02,4.54Zm98.32-.14l-1.97-.36,1.06-5.97c.65,.12,1.32,.24,2,.36l-1.09,5.96Zm-20.32-.66l-1.92-5.75c.7-.23,1.37-.45,1.99-.64l1.77,5.8c-.58,.18-1.2,.38-1.84,.59Zm16.38-.04c-.68-.12-1.33-.22-1.97-.33l.97-5.98c.65,.11,1.32,.22,2.02,.34l-1.02,5.98Zm-3.93-.63c-.69-.1-1.34-.2-1.95-.28l.81-6.01c.65,.09,1.33,.18,2.05,.29l-.9,6Zm-8.83-.41l-1.46-5.89c.88-.22,1.64-.36,2.33-.44h.14l.15,2.36,.47,3.65h-.1c-.41,.06-.93,.16-1.54,.31Zm4.94-.11c-.7-.08-1.32-.13-1.87-.17l.38-6.05c.63,.04,1.35,.1,2.16,.19l-.67,6.03Zm-89.64-1.23c-.29-.35-.59-.71-.89-1.08l-.4-.49,4.68-3.86,.41,.5c.29,.35,.57,.69,.85,1.03l-4.64,3.9Zm-2.53-3.03c-.39-.44-.81-.9-1.26-1.38l4.38-4.2c.52,.55,1,1.07,1.44,1.58l-4.56,3.99Zm-2.58-2.69c-.43-.41-.89-.82-1.39-1.26l3.97-4.58c.57,.49,1.1,.97,1.59,1.44l-4.17,4.4Zm-2.84-2.46c-.47-.38-.97-.76-1.51-1.16l3.62-4.87c.59,.44,1.15,.87,1.68,1.29l-3.79,4.73Zm-3.06-2.28c-.51-.35-1.04-.72-1.6-1.09l3.35-5.05c.6,.4,1.18,.79,1.72,1.17l-3.47,4.97Zm-3.23-2.14c-.53-.33-1.09-.68-1.66-1.02l3.13-5.19c.61,.37,1.2,.73,1.76,1.08l-3.23,5.13Zm-3.35-2.02c-.55-.32-1.12-.64-1.71-.97l2.97-5.29c.62,.35,1.21,.69,1.79,1.02l-3.05,5.24Zm-3.43-1.93c-.56-.31-1.14-.62-1.74-.93l2.83-5.36c.62,.33,1.22,.65,1.81,.97l-2.9,5.33Zm-3.49-1.85c-.58-.3-1.17-.59-1.77-.9l2.72-5.42c.62,.31,1.23,.62,1.82,.92l-2.77,5.39Zm-3.57-1.8l-1.8-.91,2.73-5.42,1.79,.9-2.72,5.42Zm-3.61-1.82l-1.8-.91,2.75-5.41,1.79,.91-2.74,5.41Zm-3.6-1.83l-1.8-.92,2.77-5.4,1.79,.92-2.76,5.4Zm-3.59-1.84l-1.79-.93,2.78-5.39,1.79,.92-2.77,5.39Zm-3.58-1.85l-1.79-.93,2.8-5.38,1.78,.92-2.79,5.38Zm-3.58-1.86l-1.78-.93,2.8-5.38,1.79,.93-2.8,5.38Zm-3.57-1.86l-1.78-.93,2.8-5.38,1.79,.93-2.8,5.38Zm-3.57-1.86l-1.78-.92,2.78-5.39,1.79,.93-2.8,5.38Zm-3.56-1.85l-1.78-.91,2.76-5.4,1.8,.92-2.78,5.39Zm-3.56-1.82c-.61-.3-1.2-.6-1.78-.89l2.7-5.43c.59,.29,1.2,.6,1.82,.91l-2.73,5.41Zm-3.56-1.77c-.61-.29-1.2-.58-1.78-.86l2.6-5.48c.6,.29,1.22,.58,1.84,.89l-2.65,5.45Zm-3.57-1.69c-.61-.28-1.2-.55-1.79-.8l2.43-5.55c.62,.27,1.24,.55,1.88,.84l-2.53,5.51Zm-3.59-1.58c-.61-.25-1.21-.5-1.8-.73l2.21-5.65c.64,.25,1.28,.51,1.93,.78l-2.34,5.6Zm-3.61-1.41c-.61-.22-1.21-.43-1.82-.63l1.9-5.76c.66,.22,1.32,.45,1.98,.69l-2.06,5.7Zm-3.65-1.2c-.61-.18-1.22-.35-1.84-.51l1.51-5.87c.68,.18,1.36,.36,2.04,.56l-1.72,5.81Zm-3.7-.96c-.62-.14-1.24-.27-1.87-.38l1.12-5.96c.7,.13,1.39,.27,2.07,.43l-1.33,5.92Zm-3.76-.71c-.62-.1-1.26-.19-1.9-.27l.76-6.02c.71,.09,1.4,.19,2.08,.29l-.94,5.99Zm-3.85-.5c-.65-.07-1.31-.14-1.97-.2l.58-6.04c.68,.07,1.36,.13,2.04,.21l-.65,6.03Zm-3.95-.38c-.66-.06-1.32-.11-1.99-.16l.48-6.04c.68,.05,1.35,.11,2.02,.17l-.51,6.04Zm-3.97-.31l-2-.14,.41-6.05,2.02,.14-.43,6.05Zm-4-.27l-2.01-.13,.38-6.05,2.02,.13-.39,6.05Zm-4.02-.25l-2.02-.13,.4-6.05,2,.13-.38,6.05Zm-4.04-.27c-.68-.05-1.36-.1-2.03-.15l.46-6.05c.66,.05,1.32,.1,1.99,.15l-.42,6.05Zm-4.06-.31c-.69-.06-1.37-.12-2.05-.18l.59-6.04c.65,.06,1.31,.12,1.97,.18l-.51,6.04Zm-4.09-.4c-.69-.08-1.38-.16-2.05-.24l.77-6.02c.64,.08,1.29,.16,1.95,.23l-.66,6.03Zm-4.11-.52c-.7-.1-1.39-.21-2.07-.33l1.05-5.97c.63,.11,1.26,.21,1.91,.31l-.89,6Zm-4.14-.72c-.71-.15-1.4-.3-2.07-.46l1.44-5.89c.61,.15,1.23,.29,1.86,.42l-1.22,5.94Zm-4.16-1.03c-.71-.21-1.41-.44-2.08-.67l2.04-5.71c.57,.2,1.15,.39,1.75,.57l-1.72,5.82Zm-4.15-1.5c-.72-.32-1.41-.66-2.05-1.01l2.94-5.3c.48,.27,1.01,.53,1.56,.77l-2.45,5.54Zm-4.12-2.37c-.53-.41-1.11-.9-1.73-1.46l4.08-4.49c.5,.45,.95,.84,1.36,1.15l-3.7,4.8Zm-3.29-2.95c-.47-.47-.96-.97-1.47-1.5l4.39-4.18c.47,.49,.92,.95,1.35,1.38l-4.27,4.3Zm-2.89-3.03c-.45-.49-.91-1.01-1.38-1.54l4.55-4.01c.45,.51,.89,1,1.31,1.47l-4.48,4.09Zm-2.73-3.09c-.44-.51-.88-1.03-1.33-1.56l4.63-3.91c.44,.52,.87,1.02,1.29,1.51l-4.59,3.96Zm-2.64-3.13c-.43-.52-.86-1.04-1.3-1.58l4.7-3.83c.43,.52,.85,1.04,1.27,1.54l-4.67,3.87Zm-2.58-3.16l-1.27-1.58,4.74-3.78,1.25,1.56-4.72,3.8Zm-2.53-3.18c-.42-.53-.84-1.06-1.25-1.6l4.78-3.73c.41,.53,.83,1.05,1.24,1.58l-4.76,3.75Zm-2.5-3.2l-1.24-1.61,4.81-3.69,1.22,1.59-4.79,3.71Zm-2.47-3.21l-1.23-1.61,4.83-3.66,1.21,1.6-4.82,3.68Zm-2.45-3.23l-1.22-1.62,4.85-3.63,1.21,1.6-4.84,3.65Zm-2.43-3.24l-1.21-1.62,4.87-3.61,1.2,1.61-4.86,3.62Zm-2.41-3.25l-1.2-1.63,4.89-3.59,1.19,1.62-4.88,3.6Zm-2.4-3.26l-1.19-1.64,4.9-3.57,1.18,1.62-4.89,3.58Zm-2.38-3.27l-1.19-1.64,4.92-3.55,1.18,1.63-4.91,3.56Zm-2.37-3.28l-1.18-1.64,4.93-3.54,1.17,1.64-4.92,3.54Zm-2.36-3.29l-1.17-1.64,4.94-3.52,1.17,1.64-4.94,3.52Zm-2.35-3.3l-1.17-1.65,4.95-3.5,1.17,1.65-4.95,3.51Zm-2.34-3.31l-1.17-1.66,4.97-3.48,1.16,1.65-4.96,3.49Z"/><path class="h" d="M365.6,463.57c-.37-.54-.57-.83-.57-.83"/></g><path class="j" d="M456.49,732.07s-61.65,25.26-80.85,34.36c-19.2,9.1-22.23,13.14-27.29,18.19s-25.26,27.29-25.26,29.31,8.08,16.17,8.08,19.2-8.08,7.07-15.16,6.06c-7.07-1.01-20.21,6.06-29.31,9.1-9.1,3.03-9.1,4.04-12.13,9.1s-13.14,26.28-15.16,35.37c-2.02,9.1,4.04,21.22,8.08,32.34,4.04,11.12,7.07,27.29,9.1,30.32s5.05,18.19,9.1,22.23,16.17,15.16,18.19,15.16,4.55-4.55,4.55-4.55c0,0,5.05-7.07,6.06-10.11,1.01-3.03,9.1-3.03,18.19-6.06,9.1-3.03,25.26-5.05,27.29-1.01,2.02,4.04-18.19,23.24-17.18,25.26,1.01,2.02,6.06-1.01,19.2-7.07,13.14-6.06,45.48-27.29,63.67-32.34,18.19-5.05,76.81-5.05,79.84-7.07,3.03-2.02,80.85-46.49,80.85-46.49,0,0-1.01-2.02-4.04-7.07-3.03-5.05-31.33-21.22-34.36-25.26s-11.12-22.23-12.13-31.33c-1.01-9.1-15.16-22.23-21.22-28.3-6.06-6.06-18.19-25.26-23.24-31.33-5.05-6.06-12.13-6.06-17.18-15.16-5.05-9.1-27.29-52.55-25.26-56.59s24.25-10.11,28.3-15.16c4.04-5.05-16.17-11.12-21.22-17.18-5.05-6.06-25.26-31.33-32.34-43.46-7.07-12.13-20.21-33.35-27.29-48.51-7.07-15.16-24.25-56.59-20.21-58.61,4.04-2.02,13.14,16.17,16.17,20.21s15.16,10.11,21.22,12.13c6.06,2.02-1.01-4.04-5.05-7.07-4.04-3.03-7.07-9.1-8.08-13.14-1.01-4.04-3.03-10.11-6.06-19.2-3.03-9.1-20.21-26.28-28.3-39.41-8.08-13.14-7.07-39.41-3.03-48.51,4.04-9.1,11.12-10.11,19.2-17.18,8.08-7.07,5.05-20.21-3.03-57.6-8.08-37.39-47.5-60.64-47.5-60.64"/><path class="j" d="M586.35,903.37s29.81,41.94,48,57.1"/><path class="j" d="M586.4,901.41s102.53-51.1,106.57-54.13c4.04-3.03,6.06-2.02,11.12-10.11,5.05-8.08,19.2-52.55,23.24-54.57,4.04-2.02,63.67,16.17,106.11,12.13,42.45-4.04,79.84-16.17,99.04-29.31,19.2-13.14,34.36-23.24,34.36-23.24,0,0,13.14-6.06,18.19-15.16,5.05-9.1,7.07-8.08,12.13-12.13,5.05-4.04,60.64-64.68,66.7-67.71,6.06-3.03,56.59-21.22,65.69-24.25,9.1-3.03,35.37-7.07,54.57-8.08,19.2-1.01,33.35,0,44.47-4.04,11.12-4.04,39.41-14.15,39.41-14.15"/><path class="j" d="M751.58,600.69s20.21,8.08,22.23,11.12,11.12,13.14,19.2,14.15c8.08,1.01,23.24,1.01,31.33,1.01s66.7-6.06,75.79-3.03c9.1,3.03,16.17,5.05,26.28,10.11,10.11,5.05,16.17,8.08,25.26,9.1,9.1,1.01,20.21,1.01,26.28,7.07,6.06,6.06,35.56,47.71,35.56,47.71"/><path class="j" d="M411.01,405.65s-5.05,4.04-6.06,6.06-6.06,15.16-9.1,15.16-6.06-6.06-6.06-14.15-2.31-11.73-2.31-11.73"/><path class="j" d="M393.33,426.36s2.02,24.25,4.04,28.3,4.04,7.07,4.04,7.07"/><line class="j" x1="371.09" y1="422.32" x2="390.91" y2="420.21"/><line class="j" x1="436.78" y1="405.14" x2="441.84" y2="427.37"/><path class="j" d="M451.94,426.36s-18.19,1.01-20.21,3.03-1.01,7.07-1.01,7.07l4.04,16.17"/><path class="j" d="M522.68,307.11s-8.08,28.3-8.08,33.35,0,19.2,3.03,22.23c3.03,3.03,5.05,2.02,10.11,3.03,5.05,1.01,19.2-13.14,23.24-17.18,4.04-4.04,8.08-5.05,8.08-7.07s-8.08-2.02-9.1-7.07c-1.01-5.05-4.04-3.03,2.02-7.07,6.06-4.04,8.08-4.04,8.08-4.04"/><path class="j" d="M279.63,850.31s-3.03-8.08-1.01-10.11,20.21-11.12,20.21-10.11,1.01,11.12,1.01,11.12"/><path class="j" d="M285.7,977.64s5.56,22.74,5.56,23.75,17.18,13.14,17.18,13.14"/><line class="j" x1="305.11" y1="992.02" x2="310.46" y2="1030.7"/><path class="d" d="M299.59,970.55s-.51-.58-1.35-1.57l4.61-3.93c.8,.94,1.29,1.5,1.3,1.51l-4.56,3.99Zm-2.67-3.13c-.41-.48-.85-1.01-1.31-1.57l4.67-3.87c.46,.55,.89,1.06,1.28,1.54l-4.64,3.9Zm-2.61-3.15c-.42-.51-.85-1.04-1.29-1.59l4.73-3.8c.43,.53,.85,1.05,1.26,1.55l-4.7,3.83Zm-2.56-3.2c-.42-.53-.84-1.07-1.26-1.62l4.8-3.71c.41,.53,.82,1.05,1.22,1.57l-4.76,3.75Zm-2.51-3.26c-.42-.55-.83-1.11-1.23-1.66l4.9-3.57c.38,.53,.78,1.06,1.18,1.59l-4.84,3.65Zm-2.47-3.4c-.38-.56-.77-1.17-1.17-1.85l5.21-3.11c.34,.57,.67,1.09,.99,1.57l-5.03,3.39Zm-2.23-3.72c-.32-.6-.65-1.23-.98-1.89l5.44-2.69c.29,.6,.59,1.16,.88,1.7l-5.33,2.89Zm-1.89-3.81c-.28-.62-.56-1.26-.84-1.94l5.59-2.34c.26,.61,.51,1.2,.77,1.77l-5.52,2.51Zm-1.63-3.89c-.25-.63-.49-1.29-.73-1.97l5.71-2.04c.22,.63,.45,1.23,.68,1.82l-5.65,2.19Zm-1.41-3.95c-.21-.65-.43-1.31-.64-1.99l5.8-1.78c.2,.64,.39,1.25,.59,1.86l-5.75,1.91Zm-1.23-3.99c-.19-.65-.37-1.32-.55-2.01l5.86-1.54c.17,.64,.34,1.27,.52,1.89l-5.83,1.66Zm-1.06-4.02c-.16-.66-.32-1.34-.47-2.02l5.92-1.32c.14,.65,.29,1.29,.44,1.91l-5.89,1.43Zm-.91-4.05c-.14-.67-.27-1.35-.4-2.04l5.96-1.11c.12,.65,.25,1.3,.38,1.93l-5.94,1.22Zm-.76-4.07c-.11-.67-.22-1.35-.33-2.04l5.99-.93c.1,.66,.21,1.31,.32,1.95l-5.98,1.02Zm-.63-4.09c-.09-.67-.18-1.36-.27-2.05l6.02-.75c.08,.66,.17,1.32,.26,1.96l-6.01,.83Zm-.51-4.1c-.07-.68-.14-1.36-.21-2.05l6.04-.58c.06,.66,.13,1.32,.2,1.97l-6.03,.66Zm-.39-4.11c-.06-.68-.11-1.36-.15-2.05l6.05-.42c.05,.67,.1,1.33,.15,1.98l-6.04,.49Zm-.28-4.11c-.04-.68-.07-1.36-.1-2.05l6.06-.27c.03,.67,.06,1.33,.1,1.98l-6.05,.34Zm-.18-4.11c-.02-.68-.04-1.37-.05-2.06l6.06-.12c.01,.67,.03,1.33,.05,1.98l-6.06,.19Zm-.08-4.11c0-.49,0-.99,0-1.49v-.56l6.06,.02v.54c0,.48,0,.97,0,1.45l-6.06,.05Zm6.07-4.04l-6.06-.06c0-.7,.02-1.38,.03-2.04l6.06,.11c-.01,.65-.02,1.32-.03,1.99Zm.07-3.98l-6.06-.17c.02-.7,.04-1.39,.07-2.06l6.06,.25c-.03,.65-.05,1.31-.07,1.98Zm.16-3.96l-6.05-.33c.04-.71,.08-1.39,.13-2.07l6.05,.43c-.05,.64-.09,1.3-.12,1.97Zm.28-3.92l-6.04-.54c.06-.71,.13-1.4,.21-2.08l6.03,.67c-.07,.63-.14,1.28-.19,1.94Zm.43-3.87l-6.01-.83c.1-.72,.21-1.41,.32-2.09l5.98,1.02c-.1,.61-.2,1.25-.29,1.9Zm.65-3.78l-5.94-1.24c.15-.72,.31-1.42,.48-2.1l5.88,1.5c-.15,.59-.29,1.2-.42,1.83Zm.93-3.62l-5.79-1.81c.22-.72,.47-1.42,.72-2.09l5.66,2.17c-.21,.55-.41,1.13-.6,1.73Zm1.3-3.38l-5.49-2.57c.32-.68,.67-1.36,1.04-2l5.27,3c-.29,.51-.56,1.04-.81,1.58Zm1.75-3.05l-4.98-3.45c.43-.62,.9-1.24,1.39-1.82l4.65,3.89c-.37,.44-.73,.91-1.06,1.38Zm2.24-2.68l-4.3-4.28c.52-.53,1.08-1.04,1.66-1.54l3.94,4.61c-.45,.39-.89,.79-1.3,1.21Zm2.72-2.34l-3.62-4.86c.57-.43,1.17-.85,1.79-1.26l3.34,5.06c-.52,.35-1.03,.7-1.51,1.06Zm3.1-2.06l-3.11-5.21c.6-.36,1.21-.71,1.85-1.06l2.91,5.32c-.57,.31-1.12,.63-1.66,.95Zm3.37-1.86l-2.77-5.39c.6-.31,1.22-.62,1.86-.93l2.67,5.45c-.6,.29-1.19,.58-1.75,.88Zm3.54-1.73l-2.59-5.48c.57-.27,1.11-.55,1.62-.83l2.95,5.3c-.63,.35-1.3,.69-1.98,1.01Zm3.91-2.19l-3.36-5.05c.5-.33,.96-.67,1.39-1.02l3.83,4.71c-.58,.47-1.21,.93-1.86,1.37Zm3.6-2.95l-4.32-4.26c.39-.4,.75-.81,1.07-1.23l4.82,3.67c-.47,.62-1,1.23-1.58,1.81Zm2.92-3.84l-5.28-2.98c.26-.46,.49-.94,.69-1.44l5.64,2.22c-.3,.76-.65,1.5-1.05,2.21Zm1.78-4.51l-5.89-1.46c.13-.52,.23-1.07,.3-1.64l6.02,.76c-.1,.8-.25,1.59-.43,2.33Zm.61-4.63l-6.06-.19c0-.23,.01-.46,.01-.69,0-.37,0-.74-.02-1.11l6.06-.25c.02,.45,.03,.91,.03,1.36,0,.29,0,.59-.01,.88Zm-6.21-3.85c-.06-.65-.14-1.29-.21-1.92l6.02-.76c.09,.69,.17,1.39,.23,2.1l-6.04,.57Zm-.48-3.9c-.09-.7-.18-1.39-.26-2.06l6.02-.7c.07,.63,.16,1.29,.25,1.95l-6.01,.8Zm-.46-4.25c-.03-.45-.04-.9-.04-1.33,0-.36,0-.71,.03-1.05l6.05,.37c-.01,.22-.02,.45-.02,.68,0,.32,.01,.64,.03,.98l-6.05,.35Zm6.19-2.84l-5.49-2.58c.36-.76,.87-1.55,1.53-2.33l4.65,3.89c-.4,.48-.6,.82-.69,1.02Zm1.83-2.19l-4.11-4.46c.51-.47,1.09-.96,1.72-1.46l3.76,4.75c-.51,.4-.97,.79-1.37,1.16Zm2.86-2.28l-3.51-4.94c.56-.4,1.15-.8,1.77-1.21l3.33,5.07c-.55,.36-1.08,.72-1.58,1.08Zm3.22-2.12l-3.19-5.16c.58-.36,1.17-.72,1.79-1.08l3.08,5.22c-.58,.34-1.14,.68-1.68,1.01Zm3.39-2l-2.99-5.28c.59-.33,1.2-.67,1.81-1.01l2.91,5.32c-.59,.32-1.16,.64-1.73,.96Zm3.48-1.91l-2.85-5.35c.6-.32,1.2-.63,1.81-.95l2.8,5.38c-.6,.31-1.19,.62-1.77,.93Zm3.54-1.84l-2.75-5.4c.6-.31,1.21-.61,1.82-.92l2.72,5.42c-.6,.3-1.2,.6-1.79,.9Zm3.59-1.79l-2.68-5.44,1.82-.89,2.66,5.45-1.8,.88Zm3.61-1.76l-2.64-5.46,1.84-.88,2.62,5.47-1.82,.87Zm3.64-1.74l-2.61-5.47,1.83-.87,2.6,5.48-1.83,.87Zm3.65-1.73l-2.6-5.48,1.83-.87,2.59,5.48-1.83,.87Zm3.66-1.73l-2.6-5.48,1.82-.87,2.61,5.47-1.83,.87Zm3.67-1.75l-2.63-5.46c.61-.3,1.22-.59,1.81-.88l2.66,5.45c-.6,.29-1.21,.59-1.84,.89Zm3.67-1.79l-2.7-5.43c.61-.3,1.2-.6,1.78-.9l2.76,5.4c-.59,.3-1.21,.61-1.84,.93Zm3.66-1.87l-2.82-5.37,.32-.17c.43-.23,.88-.48,1.36-.75l3,5.27c-.53,.3-1.03,.58-1.5,.83l-.36,.19Zm3.67-2.07l-3.1-5.21c.54-.32,1.11-.66,1.7-1.03l3.18,5.17c-.62,.38-1.21,.74-1.77,1.07Zm3.52-2.16l-3.23-5.13c.55-.34,1.11-.7,1.69-1.07l3.27,5.11c-.59,.38-1.17,.75-1.73,1.1Zm3.45-2.21l-3.31-5.08c.55-.36,1.11-.73,1.68-1.1l3.34,5.06c-.58,.38-1.15,.75-1.71,1.12Zm3.41-2.25l-3.36-5.04,1.67-1.12,3.39,5.03-1.69,1.13Zm3.38-2.28l-3.41-5.01,1.66-1.14,3.43,5-1.68,1.15Zm3.36-2.3l-3.45-4.99,1.66-1.15,3.46,4.98-1.67,1.16Zm3.34-2.32l-3.47-4.97,1.65-1.16,3.49,4.96-1.66,1.17Zm3.32-2.34l-3.5-4.95,1.65-1.17,3.51,4.94-1.66,1.17Zm3.31-2.35l-3.52-4.93,1.64-1.17,3.54,4.92-1.65,1.18Zm3.3-2.37l-3.55-4.92,1.63-1.18,3.57,4.9-1.64,1.19Zm3.28-2.38l-3.57-4.9,1.63-1.19,3.58,4.89-1.64,1.2Zm3.28-2.4l-3.59-4.89,1.62-1.2,3.6,4.88-1.64,1.2Zm3.27-2.41l-3.61-4.87,1.62-1.2,3.62,4.86-1.63,1.21Zm3.25-2.43l-3.63-4.86,1.61-1.21,3.65,4.84-1.63,1.22Zm3.25-2.44l-3.66-4.84,1.61-1.22,3.67,4.83-1.62,1.23Zm3.23-2.46l-3.68-4.82,1.6-1.22,3.7,4.8-1.62,1.24Zm3.23-2.48l-3.71-4.8,1.59-1.23,3.73,4.78-1.61,1.25Zm3.21-2.5l-3.74-4.77,1.58-1.24,3.76,4.76-1.6,1.26Zm3.2-2.52l-3.78-4.74,1.58-1.26,3.79,4.73-1.59,1.27Zm3.18-2.56l-3.83-4.71,1.56-1.27,3.85,4.69-1.58,1.29Zm3.16-2.6l-3.89-4.65c.53-.44,1.04-.87,1.53-1.29l3.93,4.62c-.5,.43-1.03,.87-1.57,1.32Zm3.13-2.67l-3.98-4.57c.52-.46,1.02-.89,1.48-1.31l4.05,4.51c-.49,.44-1,.89-1.55,1.37Zm3.1-2.8l-4.17-4.4c.34-.32,.65-.62,.94-.91,.16-.16,.32-.32,.48-.48l4.22,4.36-.41,.4c-.32,.32-.68,.67-1.06,1.03Zm2.86-2.74l-4.05-4.52c.52-.46,1.05-.93,1.61-1.39l3.89,4.65c-.5,.42-.98,.84-1.45,1.26Zm2.95-2.47l-3.75-4.76c.54-.43,1.09-.85,1.66-1.28l3.64,4.85c-.53,.4-1.04,.79-1.55,1.19Zm3.12-2.34l-3.53-4.93c.56-.4,1.13-.8,1.7-1.2l3.44,5c-.54,.38-1.08,.75-1.61,1.13Zm3.25-2.24l-3.36-5.05c.57-.38,1.14-.76,1.73-1.13l3.29,5.09c-.56,.36-1.11,.72-1.66,1.08Zm3.33-2.15l-3.22-5.13c.58-.36,1.16-.72,1.74-1.08l3.17,5.17c-.57,.35-1.13,.7-1.69,1.05Zm3.4-2.09l-3.13-5.2c.58-.35,1.17-.7,1.76-1.05l3.08,5.22c-.57,.34-1.14,.68-1.71,1.02Zm3.44-2.04l-3.05-5.24c.59-.34,1.18-.68,1.77-1.02l3.02,5.26c-.58,.33-1.16,.67-1.73,1Zm3.48-2l-3-5.27,1.76-1,2.99,5.27-1.76,1Zm3.51-1.99l-2.97-5.29,1.76-.99,2.97,5.29-1.76,.99Zm3.52-1.98l-2.97-5.29,1.76-.99,2.97,5.28-1.77,.99Zm3.53-1.99l-2.98-5.28,1.75-.99,3,5.27-1.77,1Zm3.54-2.02l-3.03-5.25c.58-.34,1.16-.67,1.73-1.01l3.06,5.23c-.58,.34-1.17,.68-1.76,1.02Zm3.53-2.07l-3.1-5.21c.58-.34,1.14-.69,1.7-1.03l3.17,5.17c-.58,.35-1.17,.71-1.76,1.06Zm3.51-2.15l-3.23-5.13c.35-.22,.69-.44,1.03-.66,.19-.12,.38-.25,.56-.37l3.43,5c-.24,.16-.48,.32-.72,.48-.35,.23-.71,.46-1.08,.69Zm3.61-2.52l-3.82-4.71c.46-.37,.91-.77,1.36-1.19l4.15,4.42c-.55,.52-1.12,1.01-1.68,1.47Zm3.25-3.03l-4.42-4.15c.42-.45,.83-.91,1.23-1.38l4.64,3.9c-.47,.56-.96,1.11-1.45,1.64Zm2.81-3.34l-4.83-3.66c.38-.5,.75-1.01,1.11-1.53l4.99,3.45c-.41,.59-.83,1.18-1.26,1.75Zm2.44-3.53l-5.12-3.25c.34-.54,.67-1.08,1-1.63l5.23,3.06c-.36,.62-.73,1.22-1.11,1.82Zm2.15-3.66l-5.33-2.9c.31-.57,.61-1.14,.9-1.72l5.4,2.75c-.32,.63-.65,1.25-.98,1.86Zm1.91-3.74l-5.47-2.61c.28-.59,.55-1.18,.82-1.77l5.53,2.48c-.29,.64-.58,1.27-.88,1.9Zm1.71-3.81l-5.58-2.37c.26-.6,.51-1.21,.75-1.82l5.62,2.26c-.26,.64-.52,1.28-.79,1.92Zm1.55-3.85l-5.66-2.17c.24-.62,.47-1.23,.69-1.85l5.69,2.09c-.24,.65-.48,1.29-.73,1.94Zm1.42-3.88l-5.72-2.01c.22-.63,.44-1.25,.65-1.88l5.74,1.94c-.22,.65-.44,1.3-.67,1.95Zm1.32-3.9l-5.77-1.88c.21-.64,.41-1.27,.61-1.9l5.78,1.83c-.2,.65-.41,1.3-.63,1.95Zm1.23-3.91l-5.8-1.78c.2-.65,.39-1.29,.58-1.92l5.81,1.75c-.19,.64-.39,1.29-.59,1.95Zm1.18-3.9l-5.81-1.72,.57-1.94,5.81,1.72-.57,1.94Zm1.15-3.88l-5.81-1.72c.2-.67,.39-1.33,.58-1.95l5.8,1.76c-.19,.62-.38,1.26-.57,1.92Zm1.16-3.84l-5.79-1.79,.6-1.94,5.79,1.81-.6,1.92Zm1.2-3.85l-5.78-1.83,.61-1.93,5.78,1.83-.61,1.92Zm1.22-3.85l-5.78-1.85,.62-1.93,5.77,1.85-.62,1.93Zm1.23-3.85l-5.77-1.86,.62-1.93,5.77,1.86-.62,1.92Zm1.24-3.85l-5.77-1.87,.62-1.92,5.77,1.86-.62,1.93Zm1.25-3.85l-5.77-1.87,.62-1.92,5.77,1.87-.62,1.92Zm1.24-3.84l-5.77-1.87,.62-1.92,5.77,1.87-.62,1.92Zm1.25-3.85l-5.77-1.87,.62-1.92,5.77,1.87-.62,1.93Zm1.25-3.85l-5.77-1.87,.62-1.92,5.77,1.87-.62,1.93Zm1.24-3.85l-5.77-1.86,.62-1.92,5.77,1.86-.62,1.93Zm1.24-3.86l-5.77-1.85,.61-1.92,5.78,1.84-.62,1.93Zm1.23-3.86l-5.78-1.84,.61-1.92,5.78,1.83-.61,1.93Zm1.22-3.87l-5.79-1.81,.6-1.92,5.79,1.8-.61,1.94Zm203.21-2.97h-.32l.06-6.07h.29c.51,0,1.06,0,1.6-.03l.2,6.06c-.61,.02-1.22,.03-1.84,.03Zm-2.43-.05c-.69-.03-1.39-.07-2.11-.12l.44-6.05c.66,.05,1.29,.08,1.92,.11l-.24,6.06Zm6.41-.1l-.45-6.05c.43-.03,.87-.07,1.31-.12l.58-.06,.69,6.02-.66,.07c-.5,.05-.99,.09-1.47,.13Zm-98.58-.11h-2.03l.02-6.07h2.01v6.07Zm-4.08-.02c-.75,0-1.44-.03-2.09-.05l.23-6.06c.6,.02,1.25,.04,1.94,.05l-.08,6.06Zm6.26-.02l-.33-6.05c.59-.03,1.2-.09,1.82-.16l.71,6.02c-.79,.09-1.51,.16-2.2,.19Zm85.8-.04c-.66-.06-1.34-.13-2.05-.21l.65-6.03c.68,.07,1.34,.14,1.97,.2l-.58,6.04Zm-96.31-.12c-.78-.07-1.5-.15-2.21-.26l.92-5.99c.57,.09,1.16,.16,1.8,.21l-.51,6.04Zm111.19-.19l-1-5.98c.64-.11,1.24-.23,1.81-.36l1.34,5.91c-.68,.15-1.4,.3-2.15,.42Zm-18.97-.13c-.65-.08-1.32-.16-2.02-.25l.74-6.02c.69,.08,1.35,.17,1.98,.24l-.71,6.02Zm-77.4,0l-.94-5.99c.62-.1,1.26-.21,1.92-.33l1.09,5.96c-.71,.13-1.4,.25-2.07,.35Zm-113.91-.11l-5.79-1.79c.2-.65,.4-1.3,.61-1.95l5.78,1.82c-.2,.64-.4,1.28-.6,1.92Zm94.69-.24c-.67-.15-1.36-.33-2.1-.54l1.63-5.84c.64,.18,1.23,.33,1.81,.46l-1.33,5.92Zm92.59-.14l-2.01-.25,.76-6.02,2,.25-.76,6.02Zm-69.28-.25l-1.17-5.95,1.97-.39,1.19,5.95-1.99,.4Zm96.57-.1l-1.7-5.82c.58-.17,1.16-.36,1.72-.57l2.1,5.69c-.69,.25-1.4,.49-2.12,.7Zm-31.3-.16l-2-.25,.76-6.02,2.01,.25-.76,6.02Zm-92.7-.49c-.61-.19-1.26-.4-1.96-.63l1.88-5.76c.67,.22,1.3,.42,1.88,.6l-1.81,5.79Zm88.7-.01l-2-.25,.74-6.02,2.01,.25-.74,6.02Zm-57.3-.04l-1.18-5.95c.65-.13,1.32-.26,2.01-.39l1.13,5.96c-.67,.13-1.32,.25-1.96,.38Zm53.3-.45l-2-.24,.7-6.02,2.02,.24-.72,6.02Zm-49.38-.29l-1.07-5.97c.66-.12,1.34-.24,2.03-.35l1,5.98c-.67,.11-1.32,.22-1.96,.34Zm92.9-.14l-2.57-5.49c.54-.25,1.05-.52,1.53-.8l3.09,5.21c-.64,.38-1.33,.75-2.05,1.08Zm-47.51-.04l-2.01-.23,.68-6.03,2.01,.23-.68,6.03Zm-84.58-.29c-.56-.18-1.14-.34-1.72-.48l1.41-5.9c.73,.17,1.46,.38,2.17,.61l-1.86,5.77Zm80.57-.16l-2-.22,.65-6.03,2.02,.22-.66,6.03Zm-37.48-.02l-.92-5.99c.67-.1,1.35-.2,2.05-.3l.81,6.01c-.66,.09-1.31,.18-1.95,.28Zm33.47-.41l-2.04-.21,.73-6.02,1.94,.2-.63,6.03Zm-29.57-.12l-.72-6.02c.67-.08,1.36-.16,2.06-.23l.62,6.03c-.67,.07-1.32,.14-1.96,.22Zm-50.48-.12c-.6-.1-1.21-.18-1.82-.24l.62-6.03c.74,.08,1.46,.17,2.18,.29l-.98,5.98Zm76.08-.16c-.67-.06-1.33-.11-1.98-.16l.45-6.05c.68,.05,1.36,.11,2.05,.17l-.53,6.04Zm-21.68-.13l-.51-6.04c.68-.06,1.37-.11,2.07-.16l.41,6.05c-.67,.04-1.32,.09-1.96,.15Zm-136.41-.09l-5.78-1.84,.62-1.94,5.77,1.86-.61,1.92Zm78.31-.02c-.63-.04-1.28-.06-1.94-.09l.21-6.06c.72,.02,1.41,.05,2.09,.09l-.35,6.05Zm75.83-.07c-.67-.04-1.32-.08-1.97-.11l.28-6.06c.68,.03,1.37,.07,2.06,.11l-.36,6.05Zm-79.75-.08l-2.02-.04,.14-6.06,2.01,.04-.13,6.06Zm65.95-.02l-.3-6.06c.68-.03,1.36-.06,2.06-.09l.22,6.06c-.67,.02-1.33,.05-1.98,.08Zm-70.01-.08c-.66-.02-1.35-.04-2.05-.07l.25-6.06c.68,.03,1.34,.05,1.98,.07l-.17,6.06Zm79.87-.01c-.67-.02-1.33-.04-1.98-.05l.1-6.06c.68,.01,1.37,.03,2.06,.05l-.18,6.06Zm-5.92-.04l-.1-6.06c.68-.01,1.37-.02,2.07-.02v6.06c-.66,0-1.32,0-1.97,.02Zm-78.05-.11c-.67-.04-1.35-.08-2.06-.13l.42-6.05c.68,.05,1.33,.09,1.97,.12l-.32,6.05Zm-4.12-.28c-.67-.06-1.35-.12-2.06-.19l.61-6.03c.67,.07,1.33,.13,1.96,.18l-.51,6.04Zm159.56-.25l-3.84-4.69c.08-.07,.13-.11,.16-.14l4.26,4.32s-.18,.19-.57,.51Zm-163.68-.16c-.67-.08-1.35-.16-2.05-.25l.78-6.01c.67,.09,1.33,.17,1.96,.24l-.7,6.02Zm-4.1-.53c-.66-.1-1.34-.2-2.03-.31l.94-5.99c.67,.11,1.32,.2,1.96,.3l-.87,6Zm-4.06-.64c-.66-.11-1.33-.23-2.02-.36l1.08-5.97c.67,.12,1.32,.24,1.96,.34l-1.02,5.98Zm-4.04-.73c-.69-.13-1.36-.26-2.01-.39l1.2-5.94c.63,.13,1.28,.25,1.95,.38l-1.14,5.96Zm-4.02-.81c-.7-.15-1.38-.3-2.02-.45l1.38-5.9c.61,.14,1.25,.29,1.92,.43l-1.27,5.93Zm-40.53,0l-5.77-1.88,.63-1.93,5.76,1.89-.63,1.91Zm36.48-.95c-.71-.18-1.38-.37-2.03-.55l1.67-5.83c.59,.17,1.21,.34,1.87,.51l-1.51,5.87Zm-4.07-1.17c-.72-.24-1.4-.48-2.04-.72l2.17-5.66c.55,.21,1.14,.42,1.76,.62l-1.89,5.76Zm-4.08-1.58c-.71-.32-1.39-.67-2.03-1.04l3-5.27c.49,.28,1.01,.55,1.56,.8l-2.53,5.51Zm-27.08-.13l-5.75-1.91,.64-1.92,5.75,1.92-.64,1.91Zm23.09-2.16c-.63-.45-1.23-.93-1.83-1.45l4.02-4.54c.43,.38,.87,.73,1.33,1.06l-3.52,4.94Zm-21.81-1.67l-5.74-1.94,.65-1.92,5.74,1.96-.65,1.91Zm18.34-1.38c-.49-.52-.97-1.07-1.46-1.64l4.65-3.9c.4,.48,.81,.94,1.22,1.37l-4.4,4.17Zm-17.04-2.44l-5.74-1.97,.66-1.92,5.73,1.98-.66,1.91Zm14.26-.85c-.4-.51-.82-1.05-1.26-1.62l4.8-3.7c.42,.55,.83,1.07,1.22,1.57l-4.76,3.75Zm-12.94-2.96l-5.73-1.99,.67-1.92,5.72,2.01-.67,1.9Zm10.46-.24c-.39-.5-.8-1.02-1.23-1.55l4.74-3.79c.45,.56,.87,1.1,1.27,1.61l-4.78,3.73Zm-2.37-2.87c-.41-.42-.81-.79-1.2-1.11l3.8-4.73c.59,.47,1.19,1.02,1.77,1.63l-4.37,4.2Zm-6.99-.13l-5.18-3.15c.25-.42,.81-1.26,1.67-2.13l4.34,4.24c-.48,.49-.77,.96-.83,1.04Zm4.61-1.77c-.37-.2-.73-.33-1.06-.39l1.14-5.96c.91,.17,1.83,.5,2.73,.97l-2.8,5.38Zm-2.83-.05l-3.1-5.21c.91-.54,1.87-.91,2.86-1.09l1.13,5.96c-.29,.06-.59,.17-.89,.35Z"/><g><path class="k" d="M187.75,620.31h9.41v3.38h-5.27v2.71h4.94v3.25h-4.94v6.54h-4.14v-15.88Z"/><path class="k" d="M199.34,620.31h6.47c3.16,0,4.36,1.78,4.36,4.23,0,2.14-.82,3.49-2.71,3.78v.04c1.98,.18,2.6,1.45,2.6,3.56v1.36c0,.82,0,1.87,.2,2.2,.11,.18,.2,.33,.47,.49v.22h-4.41c-.4-.82-.4-2.38-.4-3.03v-1.07c0-1.8-.36-2.27-1.36-2.27h-1.09v6.36h-4.14v-15.88Zm4.14,6.72h.82c1.18,0,1.74-.76,1.74-1.89,0-1.31-.51-1.85-1.76-1.85h-.8v3.74Z"/><path class="k" d="M215.61,620.31h5.21l3.87,15.88h-4.4l-.42-2.78h-3.29l-.42,2.78h-4.4l3.87-15.88Zm2.63,3.25h-.04l-1.13,6.74h2.31l-1.13-6.74Z"/><path class="k" d="M226.27,620.31h4.63l2.67,9.79h.04v-9.79h3.87v15.88h-4.54l-2.76-9.81h-.04v9.81h-3.87v-15.88Z"/><path class="k" d="M246.67,625.14c0-1.8-.33-2.34-1.13-2.34-1.25,0-1.4,1.16-1.4,5.45s.16,5.45,1.4,5.45c1,0,1.25-.89,1.25-3.89h4v1.18c0,4.45-2.58,5.52-5.25,5.52-4.65,0-5.67-2.31-5.67-8.25s1.38-8.25,5.67-8.25c3.74,0,5.14,1.96,5.14,5.03v1h-4v-.89Z"/><path class="k" d="M253.17,620.31h9.41v3.38h-5.27v2.71h4.94v3.25h-4.94v3.16h5.47v3.38h-9.61v-15.88Z"/></g><g><path class="k" d="M1008.36,553.61h4.14v12.5h5.09v3.38h-9.23v-15.88Z"/><path class="k" d="M1023.51,553.61v11.46c0,1.54,.47,1.94,1.25,1.94s1.25-.4,1.25-1.94v-11.46h4.14v10.41c0,4.45-1.91,5.79-5.38,5.79s-5.38-1.34-5.38-5.79v-10.41h4.14Z"/><path class="k" d="M1031.83,553.61h4.63l1.31,4.6h.04l1.31-4.6h4.63l-3.45,7.83,3.71,8.05h-4.63l-1.58-4.78h-.04l-1.58,4.78h-4.63l3.76-8.05-3.49-7.83Z"/><path class="k" d="M1045.63,553.61h9.41v3.38h-5.27v2.71h4.94v3.25h-4.94v3.16h5.47v3.38h-9.61v-15.88Z"/><path class="k" d="M1057.49,553.61h5.92l1.67,9.41h.04l1.67-9.41h5.92v15.88h-3.87v-11.83h-.04l-2.2,11.83h-2.98l-2.2-11.83h-.04v11.83h-3.87v-15.88Z"/><path class="k" d="M1075.53,553.61h6.25c2.96,0,4.34,1.56,4.34,3.96,0,1.69-.73,3.2-2.49,3.56v.04c2.07,.18,2.94,1.98,2.94,3.63,0,2.76-1.33,4.69-4.78,4.69h-6.25v-15.88Zm4.14,6.23h1c.87,0,1.31-.73,1.31-1.6s-.44-1.65-1.31-1.65h-1v3.25Zm0,6.67h1.16c.78,0,1.47-.65,1.47-1.96s-.69-1.91-1.47-1.91h-1.16v3.87Z"/><path class="k" d="M1094.27,553.3c4.23,0,5.67,2.31,5.67,8.25s-1.45,8.25-5.67,8.25-5.67-2.31-5.67-8.25,1.45-8.25,5.67-8.25Zm0,13.7c1.25,0,1.4-1.16,1.4-5.45s-.16-5.45-1.4-5.45-1.4,1.16-1.4,5.45,.16,5.45,1.4,5.45Z"/><path class="k" d="M1106.28,553.61v11.46c0,1.54,.47,1.94,1.25,1.94s1.25-.4,1.25-1.94v-11.46h4.14v10.41c0,4.45-1.91,5.79-5.38,5.79s-5.38-1.34-5.38-5.79v-10.41h4.14Z"/><path class="k" d="M1115.58,553.61h6.47c3.16,0,4.36,1.78,4.36,4.23,0,2.14-.82,3.49-2.71,3.78v.04c1.98,.18,2.6,1.45,2.6,3.56v1.36c0,.82,0,1.87,.2,2.2,.11,.18,.2,.33,.47,.49v.22h-4.41c-.4-.82-.4-2.38-.4-3.03v-1.07c0-1.8-.36-2.27-1.36-2.27h-1.09v6.36h-4.14v-15.88Zm4.14,6.72h.82c1.18,0,1.73-.76,1.73-1.89,0-1.31-.51-1.85-1.76-1.85h-.8v3.74Z"/><path class="k" d="M1134.58,560.86h5.34v8.63h-2.8l-.09-1.4h-.04c-.53,1.38-2.02,1.71-3.43,1.71-4.2,0-4.58-3-4.58-8.25s1.02-8.25,5.92-8.25c2.91,0,5.03,1.49,5.03,5.34h-4c0-.82-.07-1.45-.22-1.85-.16-.47-.49-.69-.96-.69-1.36,0-1.49,1.16-1.49,5.45s.16,5.45,1.4,5.45c.87,0,1.4-.58,1.4-3.34h-1.47v-2.8Z"/></g><g><path class="k" d="M348.44,267.61h6.47c3.16,0,4.36,1.78,4.36,4.23,0,2.14-.82,3.49-2.71,3.78v.04c1.98,.18,2.6,1.45,2.6,3.56v1.36c0,.82,0,1.87,.2,2.2,.11,.18,.2,.33,.47,.49v.22h-4.4c-.4-.82-.4-2.38-.4-3.03v-1.07c0-1.8-.36-2.27-1.36-2.27h-1.09v6.36h-4.14v-15.88Zm4.14,6.72h.82c1.18,0,1.74-.76,1.74-1.89,0-1.31-.51-1.85-1.76-1.85h-.8v3.74Z"/><path class="k" d="M367.3,267.3c4.23,0,5.67,2.31,5.67,8.25s-1.45,8.25-5.67,8.25-5.67-2.31-5.67-8.25,1.45-8.25,5.67-8.25Zm0,13.7c1.25,0,1.4-1.16,1.4-5.45s-.16-5.45-1.4-5.45-1.4,1.16-1.4,5.45,.16,5.45,1.4,5.45Z"/><path class="k" d="M375.36,267.61h6.01c4.78,0,5.03,3.78,5.03,7.94s-.24,7.94-5.03,7.94h-6.01v-15.88Zm4.14,12.9h.82c1.6,0,1.8-.67,1.8-4.96s-.2-4.96-1.8-4.96h-.82v9.92Z"/><path class="k" d="M391.22,267.61h5.21l3.87,15.88h-4.4l-.42-2.78h-3.29l-.42,2.78h-4.4l3.87-15.88Zm2.63,3.25h-.04l-1.13,6.74h2.31l-1.13-6.74Z"/><path class="k" d="M401.88,267.61h4.63l2.67,9.79h.04v-9.79h3.87v15.88h-4.54l-2.76-9.81h-.04v9.81h-3.87v-15.88Z"/><path class="k" d="M421.28,274.87h5.34v8.63h-2.8l-.09-1.4h-.04c-.53,1.38-2.02,1.71-3.43,1.71-4.2,0-4.58-3-4.58-8.25s1.02-8.25,5.92-8.25c2.92,0,5.03,1.49,5.03,5.34h-4c0-.82-.07-1.45-.22-1.85-.16-.47-.49-.69-.96-.69-1.36,0-1.49,1.16-1.49,5.45s.16,5.45,1.4,5.45c.87,0,1.4-.58,1.4-3.34h-1.47v-2.8Z"/><path class="k" d="M429.21,267.61h9.41v3.38h-5.27v2.71h4.94v3.25h-4.94v3.16h5.47v3.38h-9.61v-15.88Z"/></g><g><path class="k" d="M631.41,290.86h4.14v12.5h5.09v3.38h-9.23v-15.88Z"/><path class="k" d="M644.31,290.86h5.21l3.87,15.88h-4.4l-.42-2.78h-3.29l-.42,2.78h-4.4l3.87-15.88Zm2.63,3.25h-.04l-1.13,6.74h2.31l-1.13-6.74Z"/><path class="k" d="M653.92,290.86h5.92l1.67,9.41h.04l1.67-9.41h5.92v15.88h-3.87v-11.84h-.04l-2.2,11.84h-2.98l-2.2-11.84h-.04v11.84h-3.87v-15.88Z"/><path class="k" d="M673.55,290.86h5.21l3.87,15.88h-4.4l-.42-2.78h-3.29l-.42,2.78h-4.4l3.87-15.88Zm2.62,3.25h-.04l-1.13,6.74h2.31l-1.13-6.74Z"/><path class="k" d="M683.31,290.86h6.01c4.78,0,5.03,3.78,5.03,7.94s-.25,7.94-5.03,7.94h-6.01v-15.88Zm4.14,12.9h.82c1.6,0,1.8-.67,1.8-4.96s-.2-4.96-1.8-4.96h-.82v9.92Z"/><path class="k" d="M696.09,290.86h9.41v3.38h-5.27v2.71h4.94v3.25h-4.94v3.16h5.47v3.38h-9.61v-15.88Z"/><path class="k" d="M707.21,290.86h4.14v12.5h5.09v3.38h-9.23v-15.88Z"/><path class="k" d="M720.12,290.86h5.21l3.87,15.88h-4.41l-.42-2.78h-3.29l-.42,2.78h-4.41l3.87-15.88Zm2.62,3.25h-.04l-1.13,6.74h2.31l-1.13-6.74Z"/><path class="k" d="M729.73,290.86h4.14v15.88h-4.14v-15.88Z"/><path class="k" d="M735.67,290.86h4.63l2.67,9.79h.04v-9.79h3.87v15.88h-4.54l-2.76-9.81h-.04v9.81h-3.87v-15.88Z"/><path class="k" d="M748.84,290.86h9.41v3.38h-5.27v2.71h4.94v3.25h-4.94v3.16h5.47v3.38h-9.61v-15.88Z"/></g><g><path class="k" d="M984.96,121.08h6.21c3.16,0,4.58,2.14,4.58,4.89,0,3.27-1.82,4.94-5.21,4.94h-1.45v6.05h-4.14v-15.88Zm4.14,6.85h.78c1.05,0,1.6-.6,1.6-1.94s-.53-1.94-1.6-1.94h-.78v3.87Z"/><path class="k" d="M997.95,121.08h9.41v3.38h-5.27v2.71h4.94v3.25h-4.94v3.16h5.47v3.38h-9.61v-15.88Zm4.29-4.38h3.74l-2.13,3.25h-2.58l.98-3.25Z"/><path class="k" d="M1012.06,124.59h-3.11v-3.52h10.37v3.52h-3.12v12.37h-4.14v-12.37Z"/><path class="k" d="M1022.52,121.08h5.21l3.87,15.88h-4.4l-.42-2.78h-3.29l-.42,2.78h-4.4l3.87-15.88Zm2.62,3.25h-.04l-1.13,6.74h2.31l-1.13-6.74Z"/><path class="k" d="M1033.18,121.08h4.63l2.67,9.79h.04v-9.79h3.87v15.88h-4.54l-2.76-9.81h-.04v9.81h-3.87v-15.88Z"/><path class="k" d="M1052.58,128.33h5.34v8.63h-2.8l-.09-1.4h-.04c-.53,1.38-2.02,1.71-3.43,1.71-4.21,0-4.58-3-4.58-8.25s1.02-8.25,5.92-8.25c2.91,0,5.03,1.49,5.03,5.34h-4c0-.82-.07-1.45-.22-1.85-.16-.47-.49-.69-.96-.69-1.36,0-1.49,1.16-1.49,5.45s.16,5.45,1.4,5.45c.87,0,1.4-.58,1.4-3.34h-1.47v-2.8Z"/><path class="k" d="M1060.5,121.08h9.41v3.38h-5.27v2.71h4.94v3.25h-4.94v3.16h5.47v3.38h-9.61v-15.88Z"/></g></g><g><path class="d" d="M1027.81,61.11l-.65-6.03c.69-.08,1.07-.11,1.07-.11l.51,6.04s-.35,.03-.93,.09Z"/><path class="d" d="M626.7,576.87l-1.73-.98,2.95-5.3,1.76,1-2.99,5.28Zm-3.53-2.01l-1.77-1.01,3-5.27,1.76,1-2.99,5.27Zm-3.53-2.01l-1.76-1,3-5.27,1.76,1-3,5.27Zm-3.52-2.01l-1.76-1.01,3.01-5.26,1.76,1-3.01,5.27Zm-3.52-2.01l-1.77-1.01,3.02-5.26,1.75,1-3.01,5.27Zm-3.52-2.02l-1.76-1.01,3.02-5.26,1.75,1.01-3.02,5.26Zm-3.51-2.02l-1.76-1.01,3.03-5.25,1.75,1.01-3.02,5.26Zm-3.52-2.02l-1.75-1.01,3.03-5.25,1.75,1.01-3.03,5.25Zm-3.51-2.03l-1.76-1.02,3.04-5.25,1.75,1.01-3.04,5.25Zm-3.51-2.04l-1.75-1.02,3.05-5.24,1.75,1.02-3.05,5.24Zm-3.51-2.04l-1.76-1.02,3.06-5.23,1.75,1.02-3.05,5.24Zm-3.5-2.04l-1.75-1.02,3.07-5.23,1.74,1.02-3.06,5.23Zm-3.5-2.05l-1.75-1.03,3.08-5.23,1.74,1.03-3.07,5.23Zm-3.5-2.06l-1.75-1.03,3.09-5.22,1.74,1.03-3.09,5.22Zm-3.5-2.07l-1.74-1.04,3.11-5.21,1.74,1.04-3.11,5.21Zm-3.49-2.08l-1.74-1.05,3.13-5.19,1.73,1.04-3.12,5.2Zm-3.48-2.1l-1.74-1.06,3.16-5.18,1.72,1.05-3.14,5.19Zm-3.48-2.12l-1.74-1.07,3.2-5.15,1.71,1.06-3.18,5.17Zm-3.48-2.16l-.6-.38c-.38-.24-.77-.49-1.17-.76l3.38-5.04c.35,.23,.69,.46,1.02,.67l.61,.38-3.24,5.13Zm-3.51-2.35c-.55-.39-1.11-.81-1.69-1.25l3.65-4.84c.54,.41,1.06,.79,1.57,1.16l-3.53,4.93Zm-3.34-2.52c-.53-.42-1.07-.85-1.63-1.3l3.83-4.7c.52,.42,1.03,.84,1.54,1.23l-3.74,4.77Zm-3.22-2.62c-.52-.43-1.04-.88-1.58-1.34l3.96-4.59c.51,.44,1.01,.87,1.51,1.29l-3.9,4.65Zm-3.13-2.69c-.51-.45-1.02-.9-1.53-1.37l4.05-4.51c.5,.45,1,.89,1.49,1.33l-4.01,4.55Zm-3.06-2.75c-.5-.46-1-.92-1.5-1.39l4.14-4.43c.49,.46,.98,.91,1.47,1.36l-4.1,4.46Zm-2.99-2.79c-.49-.47-.99-.94-1.48-1.42l4.2-4.37c.49,.47,.97,.93,1.45,1.38l-4.17,4.4Zm-2.95-2.84c-.48-.47-.97-.95-1.46-1.43l4.26-4.31c.48,.47,.96,.94,1.43,1.41l-4.24,4.34Zm-2.91-2.87c-.48-.48-.96-.96-1.44-1.45l4.32-4.26c.47,.48,.94,.96,1.41,1.43l-4.29,4.28Zm-2.87-2.91c-.47-.49-.95-.97-1.42-1.47l4.37-4.21,1.4,1.44-4.34,4.23Zm-2.83-2.94c-.47-.49-.94-.99-1.4-1.48l4.42-4.16c.46,.49,.92,.98,1.38,1.46l-4.39,4.18Zm-2.8-2.97c-.46-.5-.93-1-1.39-1.5l4.46-4.11c.45,.49,.91,.99,1.36,1.47l-4.44,4.13Zm-2.77-3l-1.37-1.51,4.5-4.06,1.35,1.49-4.48,4.08Zm-2.73-3.03c-.45-.51-.9-1.02-1.35-1.53l4.55-4.01c.44,.5,.89,1,1.33,1.5l-4.53,4.03Zm-2.7-3.07l-1.34-1.54,4.59-3.96,1.32,1.52-4.57,3.98Zm-2.67-3.09c-.44-.52-.88-1.04-1.32-1.56l4.64-3.9c.43,.51,.86,1.02,1.29,1.53l-4.61,3.93Zm-2.63-3.12c-.44-.52-.87-1.05-1.3-1.58l4.69-3.85c.42,.52,.85,1.03,1.28,1.55l-4.66,3.88Zm-2.59-3.16c-.43-.53-.86-1.06-1.28-1.59l4.73-3.79c.42,.52,.84,1.04,1.26,1.56l-4.71,3.82Zm-2.55-3.19c-.42-.54-.84-1.07-1.26-1.61l4.79-3.72c.41,.52,.82,1.05,1.24,1.58l-4.76,3.76Zm-2.51-3.23c-.42-.54-.83-1.09-1.24-1.63l4.84-3.65c.4,.53,.8,1.06,1.21,1.59l-4.82,3.69Zm-2.47-3.28c-.41-.55-.81-1.1-1.21-1.65l4.9-3.57c.39,.54,.79,1.08,1.19,1.62l-4.88,3.6Zm-2.41-3.32c-.4-.56-.8-1.12-1.19-1.68l4.97-3.47c.38,.54,.76,1.08,1.15,1.63l-4.94,3.52Zm-2.35-3.37c-.39-.57-.77-1.14-1.15-1.71l5.05-3.36c.36,.55,.73,1.1,1.11,1.65l-5.01,3.42Zm-2.28-3.43c-.38-.59-.75-1.17-1.11-1.74l5.13-3.22c.35,.55,.7,1.11,1.07,1.67l-5.09,3.29Zm-2.2-3.51c-.37-.6-.72-1.2-1.06-1.79l5.24-3.05c.33,.56,.66,1.12,1.01,1.7l-5.18,3.14Zm-2.09-3.59c-.35-.62-.68-1.24-1-1.84l5.36-2.83c.3,.56,.61,1.14,.93,1.72l-5.29,2.96Zm-1.96-3.72c-.32-.65-.62-1.29-.91-1.91l5.52-2.52c.26,.57,.54,1.15,.83,1.75l-5.44,2.68Zm-1.76-3.88c-.28-.69-.54-1.37-.78-2.02l5.71-2.04c.2,.57,.43,1.16,.68,1.76l-5.61,2.3Zm-1.46-4.13c-.2-.71-.39-1.43-.54-2.17l5.93-1.27c.13,.59,.28,1.19,.44,1.76l-5.83,1.68Zm-.94-4.35c-.1-.72-.19-1.46-.25-2.19l6.04-.51c.05,.61,.12,1.22,.21,1.83l-6,.88Zm-.37-4.39c0-.36-.01-.71-.01-1.07s0-.74,.01-1.11l6.06,.16c0,.32-.01,.63-.01,.95s0,.61,.01,.91l-6.06,.16Zm355.86-2.67l-.09-3.03v-3.03c.63,0,1.18-.03,1.72-.08l.6,6.03c-.73,.07-1.48,.11-2.23,.11Zm-2.44-.13c-.76-.08-1.53-.21-2.3-.37l1.25-5.93c.57,.12,1.14,.21,1.7,.27l-.65,6.03Zm6.96-.33l-1.2-5.94c.55-.11,1.11-.25,1.67-.42l1.77,5.8c-.75,.23-1.5,.42-2.24,.57Zm-11.37-.54c-.7-.18-1.39-.38-2.07-.59l1.8-5.79c.6,.19,1.2,.36,1.81,.52l-1.54,5.87Zm-342.85-.23l-6.05-.46c.05-.71,.12-1.43,.21-2.15l6.02,.72c-.08,.63-.14,1.25-.18,1.88Zm358.61-.57l-2.27-5.62c.53-.22,1.08-.46,1.62-.73l2.71,5.42c-.68,.34-1.38,.66-2.06,.93Zm-19.88-.49c-.68-.25-1.35-.51-2.01-.79l2.34-5.59c.58,.24,1.16,.47,1.75,.68l-2.07,5.7Zm23.91-1.51l-3.09-5.22c.52-.31,1.04-.64,1.55-.98l3.41,5.02c-.61,.42-1.24,.81-1.86,1.18Zm-27.89-.16c-.65-.31-1.3-.63-1.93-.97l2.84-5.36c.55,.29,1.12,.57,1.68,.84l-2.59,5.48Zm-334.29-1.03l-5.99-.97c.11-.7,.24-1.4,.38-2.1l5.95,1.19c-.13,.63-.24,1.25-.34,1.88Zm330.47-.99c-.62-.36-1.23-.74-1.83-1.13l3.29-5.09c.53,.34,1.07,.67,1.61,1l-3.07,5.23Zm35.35-.28l-3.68-4.82c.49-.38,.98-.77,1.47-1.18l3.9,4.64c-.56,.47-1.12,.92-1.69,1.35Zm-38.97-2.05c-.58-.41-1.16-.84-1.73-1.28l3.7-4.8c.5,.39,1.01,.76,1.53,1.13l-3.5,4.95Zm-326.1-.42l-5.9-1.4c.16-.68,.34-1.37,.52-2.05l5.85,1.58c-.17,.62-.33,1.25-.47,1.87Zm368.38-.3l-4.1-4.47c.47-.43,.93-.87,1.39-1.32l4.26,4.32c-.51,.5-1.03,.99-1.55,1.47Zm-45.67-1.9c-.55-.46-1.09-.92-1.62-1.4l4.06-4.51c.47,.43,.95,.84,1.44,1.25l-3.88,4.66Zm48.7-1.09l-4.39-4.18c.44-.46,.88-.94,1.31-1.42l4.52,4.05c-.47,.53-.95,1.05-1.43,1.55Zm-370.4-.45l-5.81-1.75c.2-.67,.41-1.34,.64-2.01l5.76,1.91c-.2,.62-.4,1.23-.59,1.85Zm318.52-1.32c-.51-.49-1.01-1-1.5-1.51l4.37-4.21c.44,.46,.9,.92,1.36,1.36l-4.22,4.35Zm54.69-1.36l-4.61-3.94c.42-.49,.83-.99,1.25-1.5l4.71,3.82c-.44,.55-.89,1.08-1.34,1.61Zm-371.99-1.01l-5.71-2.05c.24-.66,.48-1.31,.73-1.97l5.66,2.18c-.23,.61-.46,1.22-.68,1.84Zm314.35-.69c-.47-.53-.94-1.06-1.4-1.6l4.64-3.91c.41,.49,.83,.98,1.26,1.45l-4.51,4.06Zm60.29-1.54l-4.78-3.73c.4-.51,.8-1.04,1.2-1.56l4.84,3.65c-.42,.56-.84,1.11-1.27,1.65Zm-373.22-1.43l-5.61-2.3c.26-.64,.53-1.28,.81-1.92l5.57,2.41c-.26,.6-.51,1.21-.76,1.81Zm310.2-.28c-.44-.55-.87-1.12-1.29-1.68l4.87-3.61c.38,.52,.78,1.03,1.18,1.54l-4.76,3.76Zm65.52-1.6l-4.9-3.58c.39-.53,.77-1.07,1.16-1.61l4.95,3.51c-.4,.56-.8,1.12-1.21,1.68Zm-374.16-1.74l-5.52-2.5c.29-.63,.58-1.26,.87-1.88l5.48,2.6c-.28,.59-.56,1.19-.83,1.79Zm306.11-.06c-.4-.58-.8-1.16-1.18-1.75l5.07-3.33c.36,.54,.72,1.08,1.09,1.61l-4.97,3.47Zm70.44-1.57l-4.99-3.44c.38-.55,.75-1.09,1.12-1.65l5.03,3.39c-.38,.57-.77,1.14-1.16,1.7Zm-374.86-1.93l-5.44-2.68c.31-.62,.62-1.24,.93-1.85l5.4,2.76c-.3,.58-.6,1.17-.89,1.77Zm302.11-.02c-.37-.6-.73-1.2-1.08-1.8l5.24-3.05c.33,.56,.66,1.12,1,1.67l-5.16,3.19Zm75.05-1.45l-5.06-3.34c.37-.56,.74-1.12,1.1-1.68l5.08,3.31c-.37,.57-.75,1.14-1.12,1.72Zm-375.35-2.06l-5.36-2.83c.32-.61,.65-1.22,.98-1.82l5.33,2.9c-.31,.58-.63,1.16-.94,1.75Zm298.19-.13c-.34-.62-.67-1.24-.99-1.86l5.39-2.77c.29,.57,.6,1.15,.91,1.72l-5.32,2.91Zm79.4-1.25l-5.11-3.27,1.08-1.69,5.12,3.25-1.09,1.72Zm-375.69-2.11l-5.29-2.96c.34-.6,.67-1.2,1.01-1.79l5.26,3.01c-.33,.57-.66,1.15-.98,1.74Zm294.37-.37c-.31-.63-.6-1.27-.89-1.91l5.53-2.49c.27,.59,.54,1.18,.82,1.76l-5.46,2.64Zm83.51-.95l-5.14-3.22,1.07-1.71,5.14,3.21-1.08,1.72Zm-375.89-2.14l-5.23-3.07c.35-.59,.7-1.18,1.04-1.76l5.21,3.11c-.34,.57-.68,1.14-1.02,1.72Zm290.65-.73c-.27-.65-.54-1.3-.79-1.94l5.64-2.23c.24,.6,.48,1.2,.74,1.8l-5.58,2.37Zm87.39-.57l-5.15-3.2,1.07-1.72,5.14,3.21-1.07,1.71Zm-375.99-2.13l-5.18-3.15c.36-.59,.71-1.17,1.07-1.74l5.16,3.18c-.34,.56-.69,1.13-1.05,1.71Zm287.06-1.2c-.24-.66-.48-1.32-.7-1.98l5.74-1.95c.21,.61,.42,1.22,.65,1.84l-5.69,2.09Zm91.07-.1l-5.14-3.21,1.08-1.73,5.13,3.24-1.07,1.7Zm-376.03-2.12l-5.15-3.2,1.08-1.73,5.13,3.22-1.07,1.71Zm378.17-1.28l-5.11-3.26c.37-.58,.74-1.15,1.1-1.72l5.09,3.29c-.36,.56-.72,1.12-1.08,1.69Zm-94.57-.47c-.21-.68-.41-1.35-.6-2.02l5.83-1.65c.17,.62,.36,1.24,.55,1.86l-5.79,1.81Zm-281.46-1.66l-5.13-3.23,1.08-1.71,5.13,3.23-1.08,1.72Zm378.2-1.22l-5.06-3.34c.38-.58,.77-1.15,1.15-1.71l5.02,3.4c-.37,.54-.74,1.09-1.11,1.66Zm-97.89-1.16c-.18-.69-.34-1.38-.49-2.06l5.92-1.32c.14,.62,.29,1.25,.45,1.88l-5.88,1.5Zm-278.15-1.06l-5.15-3.2c.37-.59,.72-1.16,1.04-1.7l5.19,3.14c-.34,.56-.7,1.14-1.08,1.76Zm378.27-1.06l-4.97-3.48c.41-.58,.81-1.15,1.22-1.7l4.89,3.59c-.38,.52-.76,1.05-1.14,1.59Zm-101.05-2.01c-.14-.71-.26-1.41-.37-2.09l5.99-.95c.1,.62,.21,1.25,.33,1.9l-5.96,1.14Zm-275.06-.56l-5.33-2.89c.27-.49,.54-1.04,.82-1.65l5.5,2.56c-.34,.73-.67,1.4-.99,1.98Zm378.41-.58l-4.8-3.71c.45-.58,.89-1.13,1.33-1.66l4.66,3.88c-.4,.48-.8,.98-1.2,1.5Zm2.44-2.92l-4.48-4.08c.52-.57,1.03-1.1,1.53-1.59l4.23,4.35c-.42,.41-.85,.85-1.28,1.32Zm-106.46-.04c-.09-.61-.2-1.23-.33-1.88l5.95-1.16c.14,.73,.26,1.43,.37,2.11l-5.99,.93Zm-272.54-.38l-5.58-2.37c.24-.57,.49-1.18,.75-1.82l5.63,2.26c-.27,.68-.54,1.32-.8,1.93Zm381.58-2.07l-3.82-4.71c.57-.46,1.19-.92,1.85-1.36l3.37,5.04c-.5,.34-.98,.68-1.41,1.03Zm-109.77-1.31c-.14-.61-.29-1.24-.46-1.88l5.87-1.54c.18,.7,.35,1.39,.51,2.06l-5.91,1.36Zm-270.26-.48l-5.66-2.18c.23-.6,.47-1.23,.71-1.87l5.67,2.14c-.25,.66-.49,1.3-.73,1.92Zm382.97-.19l-3.01-5.26c.62-.35,1.27-.7,1.93-1.03l2.71,5.42c-.56,.28-1.11,.57-1.63,.87Zm3.34-1.68l-2.47-5.54c.63-.28,1.29-.56,1.95-.83l2.29,5.62c-.61,.25-1.2,.5-1.77,.75Zm-117.04-1.41c-.18-.61-.37-1.23-.57-1.86l5.78-1.84c.22,.68,.42,1.35,.61,2.01l-5.82,1.69Zm120.62-.06l-2.14-5.67c.64-.24,1.29-.48,1.96-.72l2.03,5.71c-.63,.22-1.24,.45-1.84,.67Zm-388.45-.5l-5.69-2.1,.7-1.9,5.69,2.09-.7,1.91Zm392.17-.82l-1.95-5.74c.64-.22,1.29-.43,1.95-.65l1.89,5.76c-.64,.21-1.27,.42-1.89,.63Zm3.8-1.25l-1.86-5.77,1.94-.62,1.84,5.78-1.92,.61Zm-129.32-1.09c-.21-.61-.43-1.23-.66-1.85l5.69-2.09c.24,.66,.48,1.32,.7,1.97l-5.73,1.97Zm133.17-.14l-1.83-5.78,1.92-.61,1.85,5.78-1.94,.62Zm-398.42-.52l-5.7-2.08,.69-1.9,5.7,2.08-.69,1.9Zm402.3-.72l-1.88-5.77c.63-.21,1.26-.41,1.9-.63l1.92,5.75c-.65,.22-1.3,.43-1.94,.64Zm3.89-1.3l-1.97-5.73c.62-.21,1.25-.43,1.88-.66l2.04,5.71c-.65,.23-1.3,.46-1.94,.68Zm-142.29-1c-.24-.6-.48-1.21-.74-1.82l5.6-2.34c.27,.65,.53,1.3,.79,1.94l-5.64,2.21Zm146.19-.39l-2.13-5.68c.62-.23,1.23-.47,1.85-.71l2.22,5.64c-.64,.25-1.29,.5-1.93,.74Zm-408.69-.39l-5.69-2.08,.7-1.91,5.69,2.09-.7,1.9Zm412.56-1.13l-2.32-5.6c.6-.25,1.21-.51,1.81-.77l2.44,5.55c-.64,.28-1.28,.55-1.93,.82Zm3.84-1.69l-2.56-5.5c.59-.27,1.17-.56,1.75-.85l2.71,5.42c-.63,.31-1.26,.62-1.9,.92Zm-155.4-.02c-.26-.59-.53-1.19-.81-1.79l5.49-2.57c.3,.63,.58,1.27,.86,1.9l-5.54,2.46Zm-259.6-.95l-5.68-2.11,.71-1.91,5.67,2.14-.71,1.89Zm418.77-.92l-2.86-5.35c.57-.3,1.13-.62,1.69-.94l3.02,5.26c-.61,.35-1.23,.69-1.85,1.03Zm-160.83-1.69c-.29-.58-.58-1.17-.89-1.75l5.38-2.8c.32,.62,.64,1.24,.94,1.87l-5.44,2.68Zm164.51-.42l-3.19-5.16c.54-.34,1.08-.68,1.61-1.04l3.37,5.04c-.59,.39-1.19,.78-1.79,1.15Zm-421.03-.74l-5.67-2.16c.24-.63,.49-1.27,.73-1.91l5.65,2.19c-.24,.63-.48,1.25-.72,1.88Zm424.57-1.63l-3.56-4.91c.51-.37,1.02-.75,1.52-1.15l3.75,4.77c-.56,.44-1.13,.87-1.71,1.29Zm-169.86-.68c-.31-.57-.63-1.14-.96-1.71l5.26-3.02c.35,.61,.69,1.21,1.02,1.82l-5.32,2.91Zm-253.26-1.43l-5.64-2.22c.25-.63,.5-1.27,.76-1.9l5.62,2.26c-.25,.62-.5,1.24-.74,1.86Zm426.5-.55l-3.95-4.6c.48-.41,.95-.83,1.41-1.26l4.15,4.42c-.53,.49-1.06,.97-1.6,1.44Zm-285.82-1.03l-.19-6.06c.58-.02,1.18-.06,1.78-.13l.67,6.03c-.75,.08-1.51,.14-2.25,.16Zm-2.27-.02c-.32-.02-.64-.04-.96-.07-.43-.04-.86-.09-1.3-.15l.81-6.01c.35,.05,.69,.08,1.02,.11,.25,.02,.5,.04,.75,.05l-.31,6.06Zm112.9-.36c-.33-.56-.68-1.11-1.03-1.66l5.12-3.25c.38,.59,.74,1.18,1.1,1.78l-5.19,3.13Zm-106.15-.1l-1.1-5.96c.58-.11,1.18-.24,1.78-.39l1.5,5.88c-.73,.19-1.46,.35-2.17,.48Zm-11.2-.12c-.68-.14-1.39-.3-2.11-.48l1.48-5.88c.63,.16,1.24,.3,1.84,.42l-1.2,5.94Zm15.48-.96l-1.84-5.78c.59-.19,1.17-.39,1.76-.61l2.14,5.67c-.69,.26-1.37,.5-2.06,.72Zm-19.65-.08c-.66-.19-1.33-.4-2.02-.62l1.86-5.77c.63,.2,1.25,.39,1.85,.57l-1.69,5.82Zm299.87-.27l-4.35-4.23c.43-.45,.86-.91,1.28-1.38l4.54,4.01c-.48,.54-.97,1.07-1.47,1.59Zm-428.15-.22l-5.61-2.31c.26-.63,.52-1.26,.79-1.9l5.59,2.35c-.26,.62-.52,1.23-.77,1.85Zm124.28-.8c-.64-.22-1.3-.46-1.96-.7l2.09-5.69c.63,.23,1.25,.45,1.85,.66l-1.99,5.73Zm27.72-.16l-2.39-5.57c.58-.25,1.16-.51,1.74-.79l2.6,5.48c-.65,.31-1.3,.6-1.95,.88Zm95.71-.58c-.36-.54-.73-1.07-1.1-1.61l4.96-3.49c.4,.57,.8,1.15,1.18,1.73l-5.04,3.37Zm-127.34-.69c-.63-.24-1.27-.5-1.92-.76l2.26-5.63c.62,.25,1.24,.49,1.85,.73l-2.18,5.66Zm35.47-.55l-2.78-5.39c.57-.29,1.14-.6,1.71-.91l2.92,5.31c-.62,.34-1.24,.67-1.86,.99Zm275.17-.25l-4.74-3.78c.39-.49,.77-.98,1.14-1.49l4.91,3.55c-.43,.59-.86,1.16-1.31,1.72Zm-429.47-.65l-5.57-2.41c.27-.63,.55-1.26,.83-1.89l5.54,2.46c-.27,.61-.54,1.22-.8,1.83Zm115-.08c-.62-.26-1.25-.52-1.89-.79l2.37-5.58c.62,.26,1.23,.52,1.84,.77l-2.32,5.6Zm128.93-.96c-.38-.52-.78-1.04-1.18-1.55l4.78-3.73c.43,.55,.86,1.11,1.27,1.67l-4.88,3.61Zm-85.95-.07l-3.04-5.25c.56-.33,1.13-.66,1.7-1l3.13,5.19c-.6,.36-1.19,.71-1.79,1.06Zm-46.75-.57c-.62-.27-1.25-.54-1.88-.83l2.46-5.54c.62,.27,1.23,.54,1.83,.81l-2.42,5.56Zm320.79-1.17l-5.08-3.31c.34-.52,.66-1.05,.98-1.59l5.24,3.05c-.37,.63-.75,1.25-1.14,1.85Zm-270.49-.4l-3.2-5.15c.56-.35,1.12-.7,1.69-1.06l3.25,5.12c-.58,.37-1.16,.73-1.74,1.09Zm-54.04-.09l-1.86-.84,2.52-5.51,1.83,.83-2.49,5.53Zm-105.86-.3l-5.51-2.52c.29-.62,.57-1.25,.87-1.87l5.48,2.59c-.28,.6-.56,1.2-.84,1.8Zm239.91-.46c-.41-.5-.83-.99-1.26-1.48l4.57-3.98c.46,.53,.92,1.07,1.36,1.61l-4.68,3.86Zm-137.76-.94l-1.85-.86,2.57-5.49,1.83,.85-2.54,5.5Zm61.21-.41l-3.29-5.09,1.69-1.1,3.3,5.09-1.71,1.1Zm269.21-1.15l-5.38-2.8c.29-.55,.56-1.11,.83-1.68l5.51,2.54c-.31,.66-.62,1.31-.95,1.94Zm-334.11-.16l-1.84-.87,2.59-5.48,1.83,.86-2.58,5.49Zm138.9-.27c-.44-.47-.88-.94-1.33-1.4l4.33-4.25c.49,.5,.98,1.02,1.46,1.54l-4.46,4.11Zm-235.67-.2l-5.45-2.66c.3-.62,.61-1.24,.92-1.85l5.41,2.74c-.3,.59-.59,1.18-.88,1.78Zm165.07-.42l-3.3-5.09,1.71-1.1,3.29,5.09-1.69,1.1Zm-71.98-.85l-1.83-.87,2.61-5.47,1.82,.87-2.61,5.47Zm139.86-1.29c-.46-.44-.93-.88-1.41-1.31l4.05-4.51c.53,.47,1.05,.96,1.56,1.45l-4.2,4.38Zm-64.5-.05l-3.27-5.11c.57-.37,1.15-.73,1.73-1.1l3.22,5.14c-.57,.35-1.13,.71-1.69,1.07Zm-79.02-.41l-1.83-.88,2.62-5.47,1.83,.87-2.62,5.47Zm343.25-.27l-5.62-2.29c.23-.57,.46-1.16,.67-1.76l5.71,2.03c-.24,.69-.5,1.36-.77,2.02Zm-430.9-.24l-5.37-2.82c.32-.62,.65-1.23,.98-1.83l5.32,2.91c-.31,.57-.63,1.15-.93,1.74Zm170.05-1.2l-3.17-5.17c.58-.36,1.17-.71,1.77-1.07l3.1,5.21c-.57,.34-1.13,.68-1.7,1.03Zm-86.06-.04l-1.83-.88,2.62-5.47,1.83,.88-2.62,5.47Zm144.31-.36c-.49-.41-.99-.81-1.49-1.2l3.72-4.79c.56,.44,1.12,.88,1.66,1.34l-3.89,4.65Zm-147.96-1.39l-1.82-.87,2.61-5.47,1.83,.88-2.62,5.47Zm93.11-.23l-3.02-5.26c.6-.35,1.21-.69,1.82-1.02l2.92,5.31c-.58,.32-1.15,.64-1.72,.97Zm-171.57-.23l-5.26-3.02c.35-.61,.7-1.21,1.06-1.8l5.2,3.13c-.33,.56-.67,1.12-.99,1.69Zm430.44-.36l-5.79-1.79c.18-.6,.36-1.2,.52-1.82l5.86,1.54c-.18,.7-.38,1.39-.59,2.06Zm-207.06-.13c-.51-.37-1.04-.73-1.57-1.08l3.34-5.06c.6,.39,1.18,.8,1.77,1.22l-3.54,4.92Zm-148.58-.78l-1.83-.87,2.59-5.48,1.84,.87-2.6,5.48Zm100.21-.39l-2.81-5.37c.62-.32,1.24-.64,1.87-.95l2.69,5.44c-.59,.29-1.17,.59-1.74,.89Zm45.2-.92c-.54-.33-1.09-.64-1.64-.95l2.91-5.32c.63,.34,1.25,.7,1.86,1.07l-3.13,5.19Zm-149.07-.42l-1.83-.86,2.57-5.49,1.84,.86-2.58,5.49Zm-69.13-.35l-5.12-3.25c.38-.6,.76-1.19,1.15-1.76l5.03,3.38c-.36,.53-.71,1.08-1.06,1.63Zm176.5-.04l-2.55-5.5c.64-.3,1.28-.58,1.93-.86l2.39,5.57c-.59,.25-1.19,.52-1.77,.79Zm38.38-1c-.56-.28-1.13-.54-1.71-.79l2.43-5.56c.66,.29,1.31,.59,1.95,.91l-2.67,5.44Zm214.64-.1l-5.92-1.33c.08-.36,.16-.72,.23-1.08,.05-.27,.1-.52,.15-.78l5.97,1.08c-.05,.3-.11,.59-.17,.89-.08,.4-.17,.81-.26,1.21Zm-364.04-.22l-1.83-.84,2.53-5.51c.62,.28,1.23,.57,1.85,.85l-2.55,5.5Zm114.59-.21l-2.22-5.64c.66-.26,1.32-.51,1.99-.75l2.03,5.71c-.61,.22-1.21,.44-1.8,.68Zm31.38-.98c-.58-.22-1.17-.43-1.77-.63l1.89-5.76c.69,.23,1.37,.47,2.04,.72l-2.16,5.67Zm-27.75-.31l-1.83-5.78c.68-.21,1.36-.42,2.05-.61l1.62,5.84c-.62,.17-1.23,.35-1.83,.54Zm-121.87-.18c-.61-.28-1.22-.55-1.83-.83l2.48-5.53c.62,.28,1.24,.56,1.86,.84l-2.51,5.52Zm-59.65-.18l-4.94-3.52c.42-.58,.84-1.15,1.26-1.71l4.82,3.68c-.39,.5-.77,1.02-1.14,1.55Zm205.71-.49c-.6-.16-1.21-.32-1.82-.45l1.31-5.92c.71,.16,1.41,.33,2.11,.52l-1.61,5.85Zm-20.52-.16l-1.38-5.9c.69-.16,1.39-.31,2.1-.45l1.14,5.95c-.62,.12-1.24,.25-1.86,.4Zm16.87-.65c-.61-.1-1.23-.19-1.85-.27l.72-6.02c.72,.09,1.44,.19,2.15,.31l-1.02,5.98Zm-13.14-.07l-.9-6c.71-.11,1.42-.2,2.13-.27l.64,6.03c-.63,.07-1.26,.15-1.88,.24Zm-132.94-.1c-.61-.27-1.23-.54-1.84-.81l2.43-5.56c.62,.27,1.24,.55,1.87,.82l-2.46,5.54Zm142.36-.28l-.26-.02c-.55-.03-1.09-.06-1.62-.07l.15-6.06c.61,.02,1.22,.04,1.84,.08l.31,.02-.43,6.05Zm-5.66-.02l-.38-6.05c.71-.04,1.43-.07,2.15-.09l.11,6.06c-.63,.01-1.26,.04-1.89,.08Zm235.43-.42l-6.01-.77c.08-.63,.14-1.24,.18-1.84l6.05,.43c-.05,.71-.12,1.44-.22,2.18Zm-425.78-.87l-4.68-3.85c.46-.56,.93-1.11,1.4-1.63l4.51,4.05c-.42,.46-.83,.94-1.23,1.44Zm49.97-.02c-.62-.26-1.23-.53-1.84-.78l2.35-5.59c.63,.26,1.25,.53,1.88,.8l-2.39,5.57Zm-3.69-1.55c-.62-.26-1.24-.51-1.85-.75l2.26-5.62c.63,.25,1.26,.51,1.9,.77l-2.31,5.61Zm-43.75-1.23l-4.32-4.26c.52-.53,1.04-1.03,1.58-1.52l4.08,4.49c-.45,.41-.9,.84-1.34,1.29Zm40.05-.26c-.62-.24-1.24-.48-1.86-.72l2.15-5.67c.64,.24,1.27,.49,1.92,.74l-2.21,5.65Zm383.51-.44l-6.06-.08v-.2c0-.55-.02-1.08-.05-1.6l6.05-.38c.04,.65,.06,1.3,.06,1.98v.27Zm-387.24-.97c-.63-.23-1.25-.45-1.87-.67l2.02-5.72c.64,.23,1.29,.46,1.94,.7l-2.09,5.69Zm-33.59-.81l-3.79-4.73c.59-.48,1.2-.93,1.79-1.34l3.45,4.99c-.48,.33-.97,.7-1.45,1.08Zm29.85-.51c-.63-.21-1.26-.42-1.88-.62l1.84-5.78c.65,.21,1.31,.42,1.97,.64l-1.93,5.75Zm-3.76-1.19c-.64-.19-1.26-.37-1.89-.54l1.61-5.85c.66,.18,1.33,.37,2.01,.58l-1.73,5.81Zm388.45-.17c-.08-.59-.19-1.17-.31-1.74l5.92-1.33c.16,.73,.3,1.48,.4,2.23l-6.01,.84Zm-411.6-.16l-3.03-5.25c.67-.39,1.36-.74,2.04-1.06l2.54,5.5c-.51,.24-1.03,.51-1.54,.8Zm19.37-.71c-.64-.16-1.27-.31-1.89-.45l1.31-5.92c.67,.15,1.36,.31,2.05,.48l-1.47,5.88Zm-16.23-.73l-1.98-5.73c.25-.09,.5-.17,.75-.24,.5-.15,1.02-.29,1.55-.4l1.27,5.93c-.36,.08-.71,.17-1.05,.27-.18,.05-.36,.11-.54,.18Zm12.46-.1c-.64-.12-1.26-.23-1.88-.32l.89-6c.69,.1,1.4,.22,2.11,.35l-1.12,5.96Zm-3.75-.55c-.63-.06-1.25-.11-1.85-.14l.28-6.06c.71,.03,1.44,.09,2.18,.16l-.62,6.03Zm-5.43-.06l-.64-6.03c.73-.08,1.49-.12,2.28-.14l.12,6.06c-.61,.01-1.21,.05-1.76,.11Zm404.42-1.11c-.17-.55-.38-1.1-.6-1.63l5.58-2.36c.3,.7,.56,1.43,.8,2.15l-5.78,1.84Zm-1.35-3.19c-.28-.51-.58-1.01-.89-1.5l5.06-3.34c.42,.63,.81,1.29,1.17,1.96l-5.34,2.88Zm-1.92-2.9c-.37-.46-.76-.91-1.16-1.33l4.41-4.16c.52,.55,1.02,1.12,1.49,1.71l-4.74,3.79Zm-2.43-2.58c-.44-.4-.9-.79-1.38-1.17l3.75-4.77c.59,.46,1.16,.95,1.71,1.44l-4.07,4.49Zm-2.86-2.25c-.5-.35-1.02-.68-1.55-1l3.15-5.18c.63,.38,1.25,.78,1.84,1.19l-3.45,4.99Zm-3.17-1.93c-.55-.3-1.11-.58-1.68-.86l2.64-5.46c.65,.32,1.29,.64,1.92,.98l-2.88,5.33Zm-3.41-1.65c-.58-.25-1.17-.5-1.77-.73l2.22-5.64c.67,.26,1.32,.53,1.97,.81l-2.42,5.56Zm-3.58-1.41c-.6-.22-1.22-.42-1.83-.63l1.88-5.76c.67,.22,1.34,.45,2,.68l-2.04,5.71Zm-3.69-1.21c-.62-.19-1.25-.36-1.88-.54l1.6-5.85c.68,.19,1.35,.38,2.01,.58l-1.73,5.81Zm-3.78-1.03c-.63-.16-1.27-.31-1.92-.46l1.37-5.91c.68,.16,1.35,.32,2.02,.49l-1.47,5.88Zm-3.84-.89c-.64-.14-1.29-.27-1.94-.4l1.18-5.95c.68,.13,1.36,.27,2.03,.42l-1.27,5.93Zm-3.89-.77c-.65-.12-1.31-.24-1.96-.35l1.04-5.97c.68,.12,1.36,.24,2.03,.36l-1.11,5.96Zm-3.93-.68c-.66-.11-1.32-.21-1.97-.31l.92-5.99c.67,.1,1.35,.21,2.02,.32l-.97,5.98Zm-3.95-.61c-.66-.1-1.33-.19-1.99-.28l.84-6c.67,.09,1.35,.19,2.02,.29l-.88,6Zm-3.98-.56l-2-.27,.79-6.01,2.02,.27-.81,6.01Zm-4-.53l-2.01-.26,.78-6.01,2.01,.26-.78,6.01Zm-4.02-.52l-2.02-.27,.8-6.01,2,.26-.78,6.01Zm-4.05-.54c-.69-.1-1.37-.19-2.03-.29l.89-6c.65,.1,1.31,.19,1.98,.28l-.84,6.01Zm-4.07-.6c-.7-.11-1.38-.23-2.04-.34l1.05-5.97c.63,.11,1.29,.22,1.95,.33l-.96,5.99Zm-4.1-.73c-.72-.14-1.41-.29-2.08-.45l1.38-5.9c.61,.14,1.24,.28,1.89,.41l-1.19,5.95Zm-4.21-.99c-.79-.23-1.48-.46-2.15-.72l2.18-5.66c.5,.19,1.02,.37,1.54,.52l-1.58,5.86Zm-4.27-1.65c-.68-.34-1.36-.73-2.01-1.14l3.24-5.12c.49,.31,.99,.59,1.5,.85l-2.73,5.42Zm-3.9-2.46c-.6-.46-1.18-.96-1.75-1.47l4.11-4.46c.43,.4,.88,.78,1.34,1.13l-3.7,4.8Zm-3.35-3.07c-.5-.54-.99-1.11-1.46-1.7l4.73-3.79c.38,.48,.78,.94,1.18,1.37l-4.45,4.12Zm-2.78-3.47c-.42-.59-.82-1.2-1.21-1.83l5.15-3.2c.33,.53,.67,1.05,1.02,1.55l-4.96,3.48Zm-2.3-3.7c-.35-.62-.68-1.26-1.01-1.9l5.42-2.73c.29,.57,.58,1.13,.89,1.68l-5.3,2.95Zm-1.93-3.83c-.29-.64-.58-1.29-.85-1.94l5.59-2.35c.25,.6,.51,1.18,.77,1.76l-5.51,2.53Zm-1.64-3.89c-.25-.65-.5-1.31-.74-1.97l5.7-2.06c.22,.61,.45,1.22,.68,1.83l-5.65,2.2Zm-1.43-3.93c-.22-.65-.44-1.31-.65-1.97l5.77-1.87c.2,.63,.41,1.26,.62,1.88l-5.74,1.95Zm-1.27-3.94c-.2-.66-.4-1.31-.6-1.97l5.81-1.73c.19,.64,.38,1.27,.58,1.91l-5.79,1.79Zm-1.17-3.93l-.56-1.96,5.83-1.66,.55,1.93-5.82,1.68Zm-1.11-3.91l-.55-1.95,5.83-1.65,.55,1.95-5.84,1.65Zm-1.1-3.89c-.18-.65-.37-1.28-.56-1.92l5.81-1.73c.19,.65,.39,1.31,.58,1.97l-5.83,1.67Zm-1.14-3.82c-.2-.64-.4-1.26-.6-1.88l5.76-1.89c.21,.65,.42,1.31,.63,1.98l-5.79,1.79Zm-1.23-3.73c-.22-.62-.44-1.23-.67-1.82l5.65-2.19c.25,.65,.49,1.31,.73,1.98l-5.71,2.02Zm-1.39-3.58c-.25-.59-.51-1.15-.78-1.7l5.43-2.69c.31,.64,.62,1.3,.91,1.98l-5.56,2.41Zm-1.64-3.3c-.15-.27-.31-.52-.47-.78-.11-.18-.24-.35-.38-.52l4.71-3.82c.28,.35,.54,.71,.77,1.06,.21,.32,.41,.66,.62,1.01l-5.24,3.05Zm-1.91-2.39c-.39-.35-.84-.71-1.33-1.07l3.55-4.91c.66,.48,1.27,.97,1.82,1.46l-4.04,4.52Zm-2.84-2.07c-.51-.32-1.05-.63-1.62-.95l2.94-5.3c.66,.37,1.29,.73,1.88,1.1l-3.2,5.15Zm-3.31-1.84c-.56-.29-1.14-.57-1.74-.85l2.6-5.48c.65,.31,1.29,.62,1.9,.93l-2.75,5.41Zm-3.53-1.67c-.59-.26-1.19-.53-1.81-.79l2.39-5.57c.65,.28,1.28,.56,1.9,.83l-2.48,5.53Zm-3.64-1.56c-.61-.25-1.22-.5-1.85-.75l2.26-5.62c.65,.26,1.28,.52,1.91,.78l-2.32,5.6Zm-3.71-1.5l-1.87-.73,2.2-5.65,1.9,.74-2.22,5.64Zm-3.75-1.46l-1.89-.72,2.17-5.66,1.89,.73-2.18,5.66Zm-3.78-1.45l-1.89-.72,2.17-5.66,1.89,.72-2.17,5.66Zm-3.79-1.45l-1.9-.74,2.2-5.65,1.88,.73-2.18,5.66Zm-3.8-1.48c-.63-.25-1.26-.5-1.9-.75l2.26-5.63c.62,.25,1.25,.5,1.87,.74l-2.22,5.64Zm-3.79-1.52c-.63-.26-1.26-.52-1.89-.78l2.33-5.6c.62,.26,1.23,.51,1.85,.76l-2.29,5.62Zm-3.78-1.58c-.63-.27-1.26-.54-1.89-.82l2.43-5.55c.61,.27,1.22,.53,1.84,.79l-2.38,5.58Zm-3.78-1.65c-.63-.28-1.25-.57-1.87-.86l2.56-5.5c.6,.28,1.2,.55,1.81,.83l-2.49,5.53Zm-3.74-1.74c-.62-.3-1.24-.6-1.85-.91l2.71-5.42c.59,.29,1.18,.59,1.78,.87l-2.63,5.46Zm-3.71-1.85c-.61-.32-1.23-.65-1.83-.97l2.89-5.33c.58,.31,1.16,.62,1.74,.93l-2.8,5.38Zm-3.65-1.99c-.61-.35-1.21-.7-1.81-1.05l3.11-5.2c.56,.33,1.12,.66,1.69,.99l-3,5.27Zm-3.6-2.15c-.59-.38-1.18-.76-1.76-1.14l3.37-5.04c.54,.36,1.08,.71,1.63,1.06l-3.24,5.13Zm-3.5-2.34c-.58-.41-1.15-.83-1.71-1.26l3.67-4.83c.51,.39,1.02,.77,1.55,1.14l-3.51,4.94Zm-3.38-2.58c-.56-.46-1.1-.92-1.63-1.39l4.02-4.54c.47,.42,.95,.83,1.45,1.23l-3.84,4.7Zm-3.21-2.85c-.52-.51-1.03-1.02-1.52-1.54l4.41-4.16c.43,.45,.87,.9,1.32,1.34l-4.21,4.36Zm-2.98-3.17c-.48-.56-.93-1.13-1.37-1.71l4.84-3.65c.37,.49,.75,.97,1.16,1.44l-4.63,3.92Zm-2.64-3.52c-.41-.62-.8-1.26-1.16-1.89l5.27-3c.3,.52,.62,1.04,.95,1.55l-5.06,3.34Zm-2.2-3.87c-.32-.68-.62-1.37-.89-2.06l5.65-2.2c.21,.55,.45,1.1,.71,1.64l-5.47,2.61Zm-1.63-4.19c-.22-.72-.41-1.45-.57-2.18l5.92-1.29c.12,.57,.28,1.15,.45,1.72l-5.8,1.75Zm-.96-4.4c-.07-.48-.12-.96-.17-1.45-.02-.25-.04-.51-.06-.77l6.05-.41c.01,.21,.03,.42,.05,.63,.04,.4,.08,.78,.13,1.17l-6.01,.83Zm-.31-4.4v-.47c0-.59,.01-1.17,.04-1.74l6.06,.29c-.02,.48-.04,.96-.04,1.45v.38l-6.06,.08Zm6.24-3.73l-6.03-.68c.08-.73,.19-1.48,.33-2.21l5.96,1.11c-.11,.59-.2,1.19-.27,1.78Zm.66-3.54l-5.87-1.54c.19-.72,.41-1.45,.66-2.15l5.73,1.99c-.19,.56-.37,1.14-.52,1.71Zm1.17-3.37l-5.56-2.42c.3-.69,.63-1.37,.98-2.03l5.36,2.84c-.28,.52-.54,1.06-.77,1.61Zm1.67-3.15l-5.12-3.24c.4-.63,.83-1.25,1.27-1.85l4.87,3.61c-.36,.48-.7,.98-1.02,1.48Zm2.14-2.89l-4.6-3.95c.48-.55,.98-1.1,1.5-1.63l4.33,4.24c-.43,.43-.84,.88-1.23,1.34Zm2.56-2.61l-4.05-4.51c.54-.49,1.1-.96,1.68-1.42l3.78,4.74c-.48,.38-.95,.78-1.41,1.19Zm2.89-2.31l-3.53-4.93c.59-.42,1.19-.83,1.8-1.22l3.28,5.1c-.53,.34-1.04,.69-1.55,1.05Zm3.16-2.03l-3.04-5.25c.62-.36,1.25-.7,1.88-1.04l2.82,5.37c-.56,.29-1.12,.6-1.66,.92Zm3.37-1.77l-2.61-5.47c.64-.31,1.29-.6,1.94-.88l2.41,5.56c-.59,.25-1.17,.52-1.74,.79Zm3.53-1.53l-2.23-5.64c.66-.26,1.32-.51,1.99-.75l2.05,5.71c-.61,.22-1.21,.44-1.81,.68Zm3.64-1.31l-1.89-5.76c.67-.22,1.34-.43,2.01-.63l1.73,5.81c-.62,.18-1.24,.38-1.85,.58Zm3.73-1.11l-1.59-5.85c.68-.18,1.35-.36,2.03-.52l1.45,5.89c-.63,.16-1.26,.32-1.89,.49Zm3.8-.94l-1.32-5.92c.69-.15,1.37-.3,2.05-.43l1.19,5.95c-.63,.13-1.28,.26-1.92,.41Zm3.85-.77l-1.07-5.97c.69-.12,1.38-.24,2.06-.35l.96,5.99c-.64,.1-1.29,.21-1.94,.33Zm3.89-.62l-.84-6c.7-.1,1.39-.19,2.07-.27l.73,6.02c-.64,.08-1.29,.16-1.95,.25Zm3.91-.47l-.62-6.03c.71-.07,1.4-.14,2.08-.19l.51,6.04c-.64,.05-1.29,.11-1.96,.18Zm3.93-.33l-.39-6.05c.73-.05,1.42-.09,2.08-.12l.28,6.06c-.62,.03-1.28,.07-1.97,.11Zm3.93-.18l-.15-6.06c.67-.02,1.29-.02,1.85-.02h.25v6.06h-.25c-.52,0-1.09,0-1.7,.02Zm4-.03l-.04-6.06,2.02-.02,.06,6.06-2.04,.02Zm4.07-.04l-.08-6.06,2.02-.03,.1,6.06-2.04,.03Zm4.08-.06l-.12-6.06,2.02-.04,.12,6.06-2.03,.04Zm4.06-.08l-.14-6.06,2.02-.05,.15,6.06-2.03,.05Zm4.07-.1l-.16-6.06,2.02-.06,.17,6.06-2.03,.06Zm4.06-.12l-.19-6.06,2.02-.06,.2,6.06-2.03,.06Zm4.06-.14l-.21-6.06,2.02-.07,.23,6.06-2.03,.07Zm4.07-.15l-.25-6.06,2.02-.08,.26,6.06-2.04,.08Zm4.07-.17l-.28-6.06,2.01-.09,.29,6.06-2.03,.09Zm4.06-.2l-.31-6.06,2.01-.11,.33,6.05-2.03,.11Zm4.07-.22l-.35-6.05,2.01-.12,.38,6.05-2.04,.12Zm4.07-.26l-.41-6.05c.68-.05,1.34-.09,2-.14l.44,6.05c-.67,.05-1.35,.1-2.04,.14Zm4.08-.3l-.47-6.04c.68-.05,1.34-.11,1.99-.16l.52,6.04c-.67,.06-1.35,.11-2.04,.17Zm4.09-.35l-.58-6.04c.68-.06,1.34-.13,1.98-.2l.64,6.03c-.66,.07-1.35,.14-2.05,.21Zm4.11-.44l-.73-6.02c.68-.08,1.34-.17,1.96-.25l.84,6c-.66,.09-1.35,.18-2.07,.27Zm4.16-.59l-1.01-5.98c.67-.11,1.29-.23,1.84-.35l1.32,5.92c-.64,.14-1.36,.28-2.15,.42Zm4.36-1.02l-1.84-5.78c.68-.22,1.43-.42,2.21-.59l1.32,5.92c-.61,.14-1.18,.29-1.7,.45Zm3.5-.79l-.96-5.99c.69-.11,1.4-.21,2.13-.29l.71,6.02c-.65,.08-1.27,.16-1.88,.26Zm3.8-.45l-.52-6.04c.68-.06,1.38-.11,2.09-.15l.38,6.05c-.66,.04-1.31,.09-1.95,.14Zm3.92-.25l-.28-6.06c.68-.03,1.37-.06,2.06-.08l.2,6.06c-.67,.02-1.33,.05-1.99,.08Zm3.98-.13l-.14-6.06,2.04-.04,.11,6.06-2.01,.04Zm4.03-.08l-.1-6.06,2.02-.03,.1,6.06-2.03,.03Zm4.06-.07l-.12-6.06c.67-.01,1.34-.03,2-.05l.17,6.06c-.67,.02-1.36,.03-2.05,.05Zm4.11-.12l-.24-6.06c.67-.03,1.33-.06,1.97-.1l.35,6.05c-.68,.04-1.37,.07-2.08,.1Zm4.17-.25l-.5-6.04c.66-.05,1.29-.12,1.9-.19l.73,6.02c-.68,.08-1.39,.15-2.13,.22Zm4.31-.54l-1.09-5.96c.27-.05,.54-.1,.8-.16,.14-.03,.29-.08,.46-.16l2.46,5.54c-.54,.24-1.08,.42-1.61,.54-.33,.07-.67,.14-1.02,.21Zm4.95-2.13l-3.65-4.84c.38-.29,.8-.65,1.22-1.07l4.25,4.32c-.62,.61-1.23,1.14-1.83,1.59Zm3.38-3.26l-4.6-3.96c.39-.45,.78-.93,1.16-1.44l4.82,3.68c-.46,.6-.92,1.18-1.39,1.72Zm2.66-3.46l-4.97-3.47c.36-.52,.72-1.05,1.07-1.6l5.09,3.3c-.39,.61-.79,1.2-1.19,1.77Zm2.31-3.56l-5.18-3.16c.34-.55,.67-1.11,1-1.68l5.25,3.03c-.35,.61-.71,1.21-1.07,1.81Zm2.1-3.63l-5.31-2.92c.32-.58,.63-1.16,.94-1.74l5.36,2.84c-.32,.61-.65,1.22-.99,1.83Zm1.94-3.67l-5.4-2.76c.3-.59,.6-1.19,.89-1.77l5.44,2.68c-.3,.61-.61,1.23-.93,1.85Zm1.83-3.71l-5.47-2.62c.29-.61,.58-1.22,.85-1.8l5.5,2.55c-.28,.61-.58,1.23-.88,1.87Zm1.74-3.73l-5.52-2.5c.29-.63,.56-1.24,.81-1.82l5.55,2.44c-.26,.6-.54,1.23-.84,1.89Zm1.66-3.77l-5.57-2.39c.29-.68,.55-1.29,.77-1.84l5.6,2.32c-.23,.56-.5,1.2-.8,1.91Zm-3.31-3.66c-.7-.84-.82-1.64-.66-2.38l-.08-.03,.24-.61,.04,.02c.29-.66,.75-1.28,1.18-1.84l2.66,2.02,1.26-1.07,1.16,1.37-.46,1.19,.2,.16c-.23,.31-.42,.55-.55,.72l-.11,.29-.08-.03s-.02,.03-.03,.04l-.14-.1-2.92-1.17-1.73,1.43Zm6.77-2.75l-4.78-3.74c.38-.49,.81-1.03,1.28-1.62l4.73,3.79c-.46,.57-.87,1.09-1.24,1.56Zm2.49-3.11l-4.69-3.84c.41-.51,.85-1.04,1.31-1.58l4.66,3.88c-.45,.53-.87,1.05-1.27,1.54Zm2.55-3.06l-4.61-3.94c.43-.51,.88-1.03,1.34-1.56l4.58,3.98c-.45,.52-.88,1.02-1.3,1.51Zm2.62-3.01l-4.53-4.03c.45-.5,.91-1.02,1.38-1.53l4.49,4.08c-.45,.5-.9,.99-1.33,1.48Zm2.68-2.94l-4.44-4.13c.46-.5,.94-1,1.42-1.5l4.38,4.19c-.46,.48-.92,.97-1.36,1.45Zm2.75-2.87l-4.33-4.25c.48-.49,.97-.98,1.46-1.47l4.26,4.32c-.47,.46-.94,.93-1.39,1.4Zm2.81-2.78l-4.19-4.38c.5-.48,1.01-.95,1.52-1.42l4.11,4.46c-.48,.44-.96,.89-1.44,1.35Zm2.89-2.66l-4.02-4.54c.52-.46,1.05-.92,1.58-1.37l3.92,4.63c-.5,.42-.99,.85-1.48,1.28Zm2.92-2.45l-3.65-4.84c.57-.43,1.18-.86,1.82-1.28l3.33,5.07c-.51,.34-1.01,.69-1.49,1.05Zm3.07-2.03l-3.05-5.24c.62-.36,1.25-.71,1.9-1.05l2.8,5.38c-.56,.29-1.11,.59-1.65,.91Zm3.35-1.75l-2.57-5.49c.64-.3,1.29-.59,1.95-.87l2.37,5.58c-.59,.25-1.17,.51-1.75,.78Zm3.53-1.5l-2.18-5.66c.66-.25,1.32-.5,1.98-.73l2.02,5.72c-.61,.21-1.21,.44-1.82,.67Zm3.65-1.29l-1.85-5.77c.67-.21,1.34-.42,2-.62l1.71,5.82c-.62,.18-1.24,.37-1.87,.57Zm3.75-1.11l-1.58-5.85c.68-.18,1.36-.36,2.02-.52l1.46,5.89c-.62,.15-1.26,.32-1.9,.49Zm3.81-.94l-1.34-5.91c.69-.16,1.37-.3,2.03-.44l1.23,5.94c-.63,.13-1.27,.27-1.92,.42Zm3.86-.8l-1.12-5.96c.71-.13,1.4-.26,2.05-.37l1.01,5.98c-.62,.1-1.27,.22-1.94,.35Zm3.89-.66l-.91-6c.76-.11,1.45-.21,2.06-.29l.79,6.01c-.58,.08-1.23,.17-1.95,.28Z"/><rect class="d" x="626.84" y="574.68" width="6.06" height="1.01" transform="translate(-181.01 839.82) rotate(-60.48)"/></g></g><rect class="g" width="1300" height="1080"/></g></g></svg>