<?xml version="1.0" encoding="UTF-8"?><svg xmlns="http://www.w3.org/2000/svg" viewBox="0 0 1300 1080"><defs><style>.d{fill:#ad773e;}.e{fill:none;}</style></defs><g id="a"/><g id="b"><g id="c"><g><path class="d" d="M262.96,766.67h2.63v7.95h3.24v2.15h-5.87v-10.1Z"/><path class="d" d="M269.23,766.67h5.98v2.15h-3.35v1.73h3.14v2.07h-3.14v2.01h3.48v2.15h-6.11v-10.1Z"/><path class="d" d="M283.45,769.74c0-1.15-.21-1.49-.72-1.49-.79,0-.89,.74-.89,3.46s.1,3.47,.89,3.47c.64,0,.79-.57,.79-2.48h2.55v.75c0,2.83-1.64,3.51-3.34,3.51-2.96,0-3.61-1.47-3.61-5.25s.88-5.25,3.61-5.25c2.38,0,3.27,1.24,3.27,3.2v.64h-2.55v-.57Z"/><path class="d" d="M288.39,766.67h3.31l2.46,10.1h-2.8l-.27-1.77h-2.09l-.27,1.77h-2.8l2.46-10.1Zm1.67,2.06h-.03l-.72,4.29h1.47l-.72-4.29Z"/><path class="d" d="M294.31,766.67h4.12c2.01,0,2.77,1.13,2.77,2.69,0,1.36-.52,2.22-1.73,2.4v.03c1.26,.11,1.66,.92,1.66,2.26v.86c0,.52,0,1.19,.13,1.4,.07,.11,.13,.21,.3,.31v.14h-2.8c-.25-.52-.25-1.51-.25-1.92v-.68c0-1.15-.23-1.44-.86-1.44h-.69v4.04h-2.63v-10.1Zm2.63,4.27h.52c.75,0,1.1-.48,1.1-1.2,0-.83-.33-1.17-1.12-1.17h-.51v2.38Z"/><path class="d" d="M302.15,766.67h4.12c2.01,0,2.77,1.13,2.77,2.69,0,1.36-.52,2.22-1.73,2.4v.03c1.26,.11,1.66,.92,1.66,2.26v.86c0,.52,0,1.19,.13,1.4,.07,.11,.13,.21,.3,.31v.14h-2.8c-.25-.52-.25-1.51-.25-1.92v-.68c0-1.15-.23-1.44-.86-1.44h-.69v4.04h-2.63v-10.1Zm2.63,4.27h.52c.75,0,1.1-.48,1.1-1.2,0-.83-.33-1.17-1.12-1.17h-.51v2.38Z"/><path class="d" d="M309.99,766.67h5.98v2.15h-3.35v1.73h3.14v2.07h-3.14v2.01h3.48v2.15h-6.11v-10.1Z"/><path class="d" d="M318.44,766.67h3.31l2.46,10.1h-2.8l-.27-1.77h-2.09l-.27,1.77h-2.8l2.46-10.1Zm1.67,2.06h-.03l-.72,4.29h1.47l-.72-4.29Z"/><path class="d" d="M326.74,766.67v7.28c0,.98,.3,1.23,.79,1.23s.79-.25,.79-1.23v-7.28h2.63v6.62c0,2.83-1.22,3.68-3.42,3.68s-3.42-.85-3.42-3.68v-6.62h2.63Z"/></g><g><path class="d" d="M301.55,859.18h3.76l1.06,5.98h.03l1.06-5.98h3.76v10.1h-2.46v-7.53h-.03l-1.4,7.53h-1.9l-1.4-7.53h-.03v7.53h-2.46v-10.1Z"/><path class="d" d="M314.61,859.18v7.28c0,.98,.3,1.23,.79,1.23s.79-.25,.79-1.23v-7.28h2.63v6.62c0,2.83-1.22,3.68-3.42,3.68s-3.42-.85-3.42-3.68v-6.62h2.63Z"/><path class="d" d="M323.61,862.1v-.24c0-.61-.24-1.09-.75-1.09-.57,0-.82,.44-.82,.89,0,1.99,4.3,1.02,4.3,4.71,0,2.15-1.26,3.11-3.58,3.11-2.18,0-3.4-.75-3.4-2.84v-.35h2.55v.24c0,.86,.35,1.17,.86,1.17,.55,0,.85-.42,.85-.98,0-1.99-4.13-1-4.13-4.58,0-2.05,1.09-3.15,3.31-3.15s3.27,.95,3.27,3.11h-2.46Z"/><path class="d" d="M326.99,859.18h5.98v2.15h-3.35v1.73h3.14v2.06h-3.14v2.01h3.48v2.15h-6.11v-10.1Zm2.73-2.79h2.38l-1.36,2.06h-1.64l.62-2.06Z"/><path class="d" d="M333.78,859.18h5.98v2.15h-3.35v1.73h3.14v2.06h-3.14v2.01h3.48v2.15h-6.11v-10.1Z"/><path class="d" d="M343.97,859.18h5.98v2.15h-3.35v1.73h3.14v2.06h-3.14v2.01h3.48v2.15h-6.11v-10.1Z"/><path class="d" d="M353.28,859.18v7.28c0,.98,.3,1.23,.79,1.23s.79-.25,.79-1.23v-7.28h2.63v6.62c0,2.83-1.22,3.68-3.42,3.68s-3.42-.85-3.42-3.68v-6.62h2.63Z"/><path class="d" d="M361.74,863.79h3.4v5.49h-1.78l-.06-.89h-.03c-.34,.88-1.29,1.09-2.18,1.09-2.67,0-2.91-1.91-2.91-5.25s.65-5.25,3.76-5.25c1.85,0,3.2,.95,3.2,3.39h-2.55c0-.52-.04-.92-.14-1.17-.1-.3-.31-.44-.61-.44-.86,0-.95,.73-.95,3.46s.1,3.47,.89,3.47c.55,0,.89-.37,.89-2.12h-.93v-1.78Z"/><path class="d" d="M365.93,859.18h5.98v2.15h-3.35v1.73h3.14v2.06h-3.14v2.01h3.48v2.15h-6.11v-10.1Zm1.32-2.79h2.38l.62,2.06h-1.64l-1.36-2.06Z"/><path class="d" d="M372.72,859.18h2.94l1.7,6.22h.03v-6.22h2.46v10.1h-2.89l-1.75-6.24h-.03v6.24h-2.46v-10.1Z"/><path class="d" d="M380.81,859.18h5.98v2.15h-3.35v1.73h3.14v2.06h-3.14v2.01h3.48v2.15h-6.11v-10.1Z"/><path class="d" d="M390.9,859.18h3.95c2.01,0,2.91,1.36,2.91,3.11,0,2.08-1.16,3.14-3.31,3.14h-.92v3.85h-2.63v-10.1Zm2.63,4.36h.5c.67,0,1.02-.38,1.02-1.23s-.34-1.23-1.02-1.23h-.5v2.46Z"/><path class="d" d="M398.31,859.18h5.98v2.15h-3.35v1.73h3.14v2.06h-3.14v2.01h3.48v2.15h-6.11v-10.1Z"/><path class="d" d="M409.04,862.1v-.24c0-.61-.24-1.09-.75-1.09-.57,0-.82,.44-.82,.89,0,1.99,4.3,1.02,4.3,4.71,0,2.15-1.26,3.11-3.58,3.11-2.18,0-3.39-.75-3.39-2.84v-.35h2.55v.24c0,.86,.35,1.17,.86,1.17,.55,0,.85-.42,.85-.98,0-1.99-4.13-1-4.13-4.58,0-2.05,1.09-3.15,3.31-3.15s3.27,.95,3.27,3.11h-2.46Z"/><path class="d" d="M416.45,862.25c0-1.15-.21-1.48-.72-1.48-.79,0-.89,.73-.89,3.46s.1,3.47,.89,3.47c.64,0,.79-.57,.79-2.48h2.55v.75c0,2.83-1.64,3.51-3.34,3.51-2.96,0-3.61-1.47-3.61-5.25s.88-5.25,3.61-5.25c2.38,0,3.27,1.25,3.27,3.2v.64h-2.55v-.57Z"/><path class="d" d="M419.73,859.18h2.63v3.71h1.61v-3.71h2.63v10.1h-2.63v-4.16h-1.61v4.16h-2.63v-10.1Z"/></g><g><path class="d" d="M289.52,889.5h5.98v2.15h-3.35v1.73h3.14v2.06h-3.14v2.01h3.48v2.15h-6.11v-10.1Z"/><path class="d" d="M300.25,892.41v-.24c0-.61-.24-1.09-.75-1.09-.57,0-.82,.44-.82,.89,0,1.99,4.3,1.02,4.3,4.71,0,2.15-1.26,3.11-3.58,3.11-2.18,0-3.4-.75-3.4-2.84v-.35h2.55v.24c0,.86,.35,1.17,.86,1.17,.55,0,.85-.42,.85-.98,0-2-4.13-1-4.13-4.58,0-2.05,1.09-3.15,3.31-3.15s3.27,.95,3.27,3.11h-2.46Z"/><path class="d" d="M303.53,889.5h3.95c2.01,0,2.91,1.36,2.91,3.11,0,2.08-1.16,3.14-3.31,3.14h-.92v3.85h-2.63v-10.1Zm2.63,4.36h.5c.66,0,1.02-.38,1.02-1.23s-.34-1.23-1.02-1.23h-.5v2.46Z"/><path class="d" d="M312.08,889.5h3.31l2.46,10.1h-2.8l-.27-1.77h-2.09l-.27,1.77h-2.8l2.46-10.1Zm1.67,2.07h-.03l-.72,4.29h1.47l-.72-4.29Z"/><path class="d" d="M322.03,892.57c0-1.15-.21-1.49-.72-1.49-.79,0-.89,.74-.89,3.47s.1,3.46,.89,3.46c.64,0,.79-.57,.79-2.47h2.55v.75c0,2.83-1.64,3.51-3.34,3.51-2.96,0-3.61-1.47-3.61-5.25s.88-5.25,3.61-5.25c2.38,0,3.27,1.24,3.27,3.2v.64h-2.55v-.57Z"/><path class="d" d="M325.32,889.5h5.98v2.15h-3.35v1.73h3.14v2.06h-3.14v2.01h3.48v2.15h-6.11v-10.1Z"/><path class="d" d="M335.41,889.5h3.76l1.06,5.98h.03l1.06-5.98h3.76v10.1h-2.46v-7.52h-.03l-1.4,7.52h-1.9l-1.4-7.52h-.03v7.52h-2.46v-10.1Z"/><path class="d" d="M348.46,889.5v7.28c0,.98,.3,1.23,.79,1.23s.79-.25,.79-1.23v-7.28h2.63v6.62c0,2.83-1.22,3.68-3.42,3.68s-3.42-.85-3.42-3.68v-6.62h2.63Z"/><path class="d" d="M357.46,892.41v-.24c0-.61-.24-1.09-.75-1.09-.57,0-.82,.44-.82,.89,0,1.99,4.3,1.02,4.3,4.71,0,2.15-1.26,3.11-3.58,3.11-2.18,0-3.39-.75-3.39-2.84v-.35h2.55v.24c0,.86,.35,1.17,.86,1.17,.55,0,.85-.42,.85-.98,0-2-4.13-1-4.13-4.58,0-2.05,1.09-3.15,3.31-3.15s3.27,.95,3.27,3.11h-2.46Z"/><path class="d" d="M360.84,889.5h5.98v2.15h-3.35v1.73h3.14v2.06h-3.14v2.01h3.48v2.15h-6.11v-10.1Zm2.73-2.79h2.38l-1.36,2.07h-1.64l.62-2.07Z"/><path class="d" d="M370.95,889.3c2.69,0,3.61,1.47,3.61,5.25s-.92,5.25-3.61,5.25-3.61-1.47-3.61-5.25,.92-5.25,3.61-5.25Zm0,8.71c.79,0,.89-.74,.89-3.46s-.1-3.47-.89-3.47-.89,.74-.89,3.47,.1,3.46,.89,3.46Z"/><path class="d" d="M375.22,889.5h2.63v7.95h3.24v2.15h-5.87v-10.1Z"/><path class="d" d="M384.8,889.3c2.69,0,3.61,1.47,3.61,5.25s-.92,5.25-3.61,5.25-3.61-1.47-3.61-5.25,.92-5.25,3.61-5.25Zm0,8.71c.79,0,.89-.74,.89-3.46s-.1-3.47-.89-3.47-.89,.74-.89,3.47,.1,3.46,.89,3.46Z"/><path class="d" d="M392.46,894.11h3.39v5.49h-1.78l-.06-.89h-.03c-.34,.88-1.29,1.09-2.18,1.09-2.67,0-2.91-1.91-2.91-5.25s.65-5.25,3.76-5.25c1.85,0,3.2,.95,3.2,3.39h-2.55c0-.52-.04-.92-.14-1.17-.1-.3-.31-.44-.61-.44-.86,0-.95,.74-.95,3.47s.1,3.46,.89,3.46c.55,0,.89-.37,.89-2.12h-.93v-1.78Z"/><path class="d" d="M396.55,889.5h2.63v10.1h-2.63v-10.1Z"/><path class="d" d="M405.75,901.28l-1.44-1.56c-.16,.01-.3,.04-.45,.06-.07,.01-.16,.01-.24,.01h-.25c-2.69,0-3.61-1.47-3.61-5.25s.92-5.25,3.61-5.25,3.61,1.47,3.61,5.25c0,1.94-.24,3.25-.85,4.1l1.22,1.26-1.58,1.37Zm-2.39-3.27c.79,0,.89-.74,.89-3.46s-.1-3.47-.89-3.47-.89,.74-.89,3.47,.1,3.46,.89,3.46Z"/><path class="d" d="M410.15,889.5v7.28c0,.98,.3,1.23,.79,1.23s.79-.25,.79-1.23v-7.28h2.63v6.62c0,2.83-1.22,3.68-3.42,3.68s-3.42-.85-3.42-3.68v-6.62h2.63Z"/><path class="d" d="M415.22,889.5h5.98v2.15h-3.35v1.73h3.14v2.06h-3.14v2.01h3.48v2.15h-6.11v-10.1Z"/></g><g><path class="d" d="M349.04,819.65v-.24c0-.61-.24-1.09-.75-1.09-.57,0-.82,.44-.82,.89,0,2,4.3,1.02,4.3,4.71,0,2.15-1.26,3.11-3.58,3.11-2.18,0-3.39-.75-3.39-2.84v-.35h2.55v.24c0,.86,.35,1.17,.86,1.17,.55,0,.85-.42,.85-.98,0-1.99-4.13-1-4.13-4.58,0-2.05,1.09-3.15,3.31-3.15s3.27,.95,3.27,3.11h-2.46Z"/><path class="d" d="M354.08,816.74h3.31l2.46,10.1h-2.8l-.27-1.77h-2.09l-.27,1.77h-2.8l2.46-10.1Zm1.67,2.06h-.03l-.72,4.29h1.47l-.72-4.29Z"/><path class="d" d="M360,816.74h2.63v7.95h3.24v2.15h-5.87v-10.1Z"/><path class="d" d="M366.27,816.74h2.63v7.95h3.24v2.15h-5.87v-10.1Z"/><path class="d" d="M372.54,816.74h5.98v2.15h-3.35v1.73h3.14v2.07h-3.14v2.01h3.48v2.15h-6.11v-10.1Z"/><path class="d" d="M382.73,816.74h3.82c3.04,0,3.2,2.4,3.2,5.05s-.16,5.05-3.2,5.05h-3.82v-10.1Zm2.63,8.2h.52c1.02,0,1.15-.42,1.15-3.15s-.13-3.15-1.15-3.15h-.52v6.31Z"/><path class="d" d="M390.56,816.74h5.98v2.15h-3.35v1.73h3.14v2.07h-3.14v2.01h3.48v2.15h-6.11v-10.1Z"/><path class="d" d="M401.29,819.65v-.24c0-.61-.24-1.09-.75-1.09-.57,0-.82,.44-.82,.89,0,2,4.3,1.02,4.3,4.71,0,2.15-1.26,3.11-3.58,3.11-2.18,0-3.4-.75-3.4-2.84v-.35h2.55v.24c0,.86,.35,1.17,.86,1.17,.55,0,.85-.42,.85-.98,0-1.99-4.13-1-4.13-4.58,0-2.05,1.09-3.15,3.31-3.15s3.27,.95,3.27,3.11h-2.46Z"/><path class="d" d="M407.97,816.74h3.95c2.01,0,2.91,1.36,2.91,3.11,0,2.08-1.16,3.14-3.31,3.14h-.92v3.85h-2.63v-10.1Zm2.63,4.36h.5c.66,0,1.02-.38,1.02-1.23s-.34-1.23-1.02-1.23h-.5v2.46Z"/><path class="d" d="M415.38,816.74h5.98v2.15h-3.35v1.73h3.14v2.07h-3.14v2.01h3.48v2.15h-6.11v-10.1Z"/><path class="d" d="M422.17,816.74h2.94l1.7,6.22h.03v-6.22h2.46v10.1h-2.89l-1.75-6.24h-.03v6.24h-2.46v-10.1Z"/><path class="d" d="M430.26,816.74h3.82c3.04,0,3.2,2.4,3.2,5.05s-.16,5.05-3.2,5.05h-3.82v-10.1Zm2.63,8.2h.52c1.02,0,1.15-.42,1.15-3.15s-.13-3.15-1.15-3.15h-.52v6.31Z"/><path class="d" d="M440.62,816.74v7.28c0,.98,.3,1.23,.79,1.23s.79-.25,.79-1.23v-7.28h2.63v6.62c0,2.83-1.22,3.68-3.42,3.68s-3.42-.85-3.42-3.68v-6.62h2.63Z"/><path class="d" d="M449.62,819.65v-.24c0-.61-.24-1.09-.75-1.09-.57,0-.82,.44-.82,.89,0,2,4.3,1.02,4.3,4.71,0,2.15-1.26,3.11-3.58,3.11-2.18,0-3.4-.75-3.4-2.84v-.35h2.55v.24c0,.86,.35,1.17,.86,1.17,.55,0,.85-.42,.85-.98,0-1.99-4.13-1-4.13-4.58,0-2.05,1.09-3.15,3.31-3.15s3.27,.95,3.27,3.11h-2.46Z"/></g><g><path class="d" d="M119.67,958.45h5.98v2.15h-3.35v1.73h3.14v2.07h-3.14v2.01h3.48v2.15h-6.11v-10.1Z"/><path class="d" d="M129.85,963.06h3.39v5.49h-1.78l-.06-.89h-.03c-.34,.88-1.29,1.09-2.18,1.09-2.67,0-2.91-1.91-2.91-5.25s.65-5.25,3.76-5.25c1.85,0,3.2,.95,3.2,3.39h-2.55c0-.52-.04-.92-.14-1.17-.1-.3-.31-.44-.61-.44-.86,0-.95,.74-.95,3.46s.1,3.47,.89,3.47c.55,0,.89-.37,.89-2.12h-.93v-1.78Z"/><path class="d" d="M134.04,958.45h2.63v7.95h3.24v2.15h-5.87v-10.1Z"/><path class="d" d="M140.21,958.45h2.63v10.1h-2.63v-10.1Z"/><path class="d" d="M147.64,961.37v-.24c0-.61-.24-1.09-.75-1.09-.57,0-.82,.44-.82,.89,0,2,4.3,1.02,4.3,4.71,0,2.15-1.26,3.11-3.58,3.11-2.18,0-3.4-.75-3.4-2.84v-.35h2.55v.24c0,.86,.35,1.17,.86,1.17,.55,0,.85-.42,.85-.98,0-1.99-4.13-1-4.13-4.58,0-2.05,1.09-3.15,3.31-3.15s3.27,.95,3.27,3.11h-2.46Z"/><path class="d" d="M151.02,958.45h5.98v2.15h-3.35v1.73h3.14v2.07h-3.14v2.01h3.48v2.15h-6.11v-10.1Z"/><path class="d" d="M165.14,961.37v-.24c0-.61-.24-1.09-.75-1.09-.57,0-.82,.44-.82,.89,0,2,4.3,1.02,4.3,4.71,0,2.15-1.26,3.11-3.58,3.11-2.18,0-3.39-.75-3.39-2.84v-.35h2.55v.24c0,.86,.35,1.17,.86,1.17,.55,0,.85-.42,.85-.98,0-1.99-4.13-1-4.13-4.58,0-2.05,1.09-3.15,3.31-3.15s3.27,.95,3.27,3.11h-2.46Z"/><path class="d" d="M170.17,958.45h3.31l2.46,10.1h-2.8l-.27-1.77h-2.09l-.27,1.77h-2.8l2.46-10.1Zm1.67,2.06h-.03l-.72,4.29h1.47l-.72-4.29Z"/><path class="d" d="M176,958.45h2.63v10.1h-2.63v-10.1Z"/><path class="d" d="M179.5,958.45h2.94l1.7,6.22h.03v-6.22h2.46v10.1h-2.89l-1.75-6.24h-.03v6.24h-2.46v-10.1Z"/><path class="d" d="M188.92,960.69h-1.98v-2.23h6.59v2.23h-1.98v7.87h-2.63v-7.87Z"/><path class="d" d="M193.85,958.45h5.98v2.15h-3.35v1.73h3.14v2.07h-3.14v2.01h3.48v2.15h-6.11v-10.1Z"/><path class="d" d="M204.12,958.45h3.97c1.88,0,2.76,.99,2.76,2.52,0,1.08-.47,2.04-1.58,2.26v.03c1.32,.11,1.87,1.26,1.87,2.31,0,1.75-.85,2.99-3.04,2.99h-3.97v-10.1Zm2.63,3.96h.64c.55,0,.83-.47,.83-1.02s-.28-1.05-.83-1.05h-.64v2.07Zm0,4.24h.74c.5,0,.93-.41,.93-1.24s-.44-1.22-.93-1.22h-.74v2.46Z"/><path class="d" d="M213.53,958.45h3.31l2.46,10.1h-2.8l-.27-1.77h-2.09l-.27,1.77h-2.8l2.46-10.1Zm1.67,2.06h-.03l-.72,4.29h1.47l-.72-4.29Z"/><path class="d" d="M219.45,958.45h4.12c2.01,0,2.77,1.13,2.77,2.69,0,1.36-.52,2.22-1.73,2.4v.03c1.26,.11,1.66,.92,1.66,2.26v.86c0,.52,0,1.19,.13,1.4,.07,.11,.13,.21,.3,.31v.14h-2.8c-.25-.52-.25-1.51-.25-1.92v-.68c0-1.15-.23-1.44-.86-1.44h-.69v4.05h-2.63v-10.1Zm2.63,4.27h.52c.75,0,1.1-.48,1.1-1.2,0-.83-.33-1.17-1.12-1.17h-.51v2.38Z"/><path class="d" d="M227.38,958.45h3.97c1.88,0,2.76,.99,2.76,2.52,0,1.08-.47,2.04-1.58,2.26v.03c1.32,.11,1.87,1.26,1.87,2.31,0,1.75-.85,2.99-3.04,2.99h-3.97v-10.1Zm2.63,3.96h.64c.55,0,.83-.47,.83-1.02s-.28-1.05-.83-1.05h-.64v2.07Zm0,4.24h.74c.5,0,.93-.41,.93-1.24s-.44-1.22-.93-1.22h-.74v2.46Z"/><path class="d" d="M235.13,958.45h5.98v2.15h-3.35v1.73h3.14v2.07h-3.14v2.01h3.48v2.15h-6.11v-10.1Z"/></g><rect class="e" width="1300" height="1080"/><g><path class="d" d="M303.72,921.34h7.33v22.15h9.03v5.99h-16.36v-28.14Z"/><path class="d" d="M326.58,921.34h9.22l6.86,28.14h-7.8l-.75-4.93h-5.83l-.75,4.93h-7.8l6.86-28.14Zm4.65,5.75h-.08l-2.01,11.94h4.1l-2.01-11.94Z"/><path class="d" d="M354.83,929.46v-.67c0-1.69-.67-3.03-2.09-3.03-1.58,0-2.29,1.22-2.29,2.48,0,5.56,11.98,2.84,11.98,13.12,0,5.99-3.51,8.67-9.97,8.67-6.07,0-9.46-2.09-9.46-7.92v-.99h7.09v.67c0,2.4,.99,3.27,2.4,3.27,1.54,0,2.36-1.18,2.36-2.72,0-5.56-11.51-2.8-11.51-12.77,0-5.71,3.03-8.79,9.22-8.79s9.1,2.64,9.1,8.67h-6.86Z"/><path class="d" d="M369.65,921.34h9.22l6.86,28.14h-7.8l-.75-4.93h-5.83l-.75,4.93h-7.8l6.86-28.14Zm4.65,5.75h-.08l-2.01,11.94h4.1l-2.01-11.94Z"/><path class="d" d="M393.58,921.34v20.3c0,2.72,.83,3.43,2.21,3.43s2.21-.71,2.21-3.43v-20.3h7.33v18.45c0,7.88-3.39,10.25-9.54,10.25s-9.54-2.37-9.54-10.25v-18.45h7.33Z"/><path class="d" d="M406.19,921.34h7.8l2.96,21.21h.08l2.96-21.21h7.8l-6.07,28.14h-9.46l-6.07-28.14Z"/><path class="d" d="M432.12,921.34h9.22l6.86,28.14h-7.8l-.75-4.93h-5.83l-.75,4.93h-7.8l6.86-28.14Zm4.65,5.75h-.08l-2.01,11.94h4.1l-2.01-11.94Z"/><path class="d" d="M458.89,934.19h9.46v15.29h-4.97l-.16-2.48h-.08c-.95,2.44-3.59,3.04-6.07,3.04-7.45,0-8.12-5.32-8.12-14.62s1.81-14.62,10.48-14.62c5.16,0,8.91,2.64,8.91,9.46h-7.09c0-1.46-.12-2.56-.39-3.27-.28-.83-.87-1.22-1.69-1.22-2.4,0-2.64,2.05-2.64,9.66s.28,9.66,2.48,9.66c1.54,0,2.48-1.02,2.48-5.91h-2.6v-4.97Z"/><path class="d" d="M471.34,921.34h16.67v5.99h-9.34v4.81h8.75v5.75h-8.75v5.6h9.7v5.99h-17.03v-28.14Z"/></g></g></g></svg>