<?xml version="1.0" encoding="UTF-8"?><svg xmlns="http://www.w3.org/2000/svg" viewBox="0 0 1300 1080"><defs><style>.d{fill:#a0563a;}.e{fill:none;}</style></defs><g id="a"/><g id="b"><g id="c"><g><path class="d" d="M581.37,621.36h3.4v5.49h-1.78l-.06-.89h-.03c-.34,.88-1.29,1.09-2.18,1.09-2.67,0-2.91-1.91-2.91-5.25s.65-5.25,3.76-5.25c1.85,0,3.2,.95,3.2,3.4h-2.55c0-.52-.04-.92-.14-1.17-.1-.3-.31-.44-.61-.44-.86,0-.95,.74-.95,3.47s.1,3.47,.89,3.47c.55,0,.89-.37,.89-2.12h-.93v-1.78Z"/><path class="d" d="M586.93,616.75h3.31l2.46,10.1h-2.8l-.27-1.77h-2.09l-.27,1.77h-2.8l2.46-10.1Zm1.67,2.07h-.03l-.72,4.29h1.47l-.72-4.29Z"/><path class="d" d="M592.58,616.75h4.12c2.01,0,2.77,1.13,2.77,2.69,0,1.36-.52,2.22-1.73,2.4v.03c1.26,.11,1.65,.92,1.65,2.26v.86c0,.52,0,1.19,.13,1.4,.07,.11,.13,.21,.3,.31v.14h-2.8c-.25-.52-.25-1.51-.25-1.92v-.68c0-1.15-.23-1.44-.86-1.44h-.69v4.05h-2.63v-10.1Zm2.63,4.27h.52c.75,0,1.1-.48,1.1-1.2,0-.83-.33-1.17-1.12-1.17h-.51v2.38Z"/><path class="d" d="M600.13,616.75h5.98v2.15h-3.35v1.73h3.14v2.07h-3.14v2.01h3.48v2.15h-6.11v-10.1Z"/><path class="d" d="M609.75,616.75h3.82c3.04,0,3.2,2.4,3.2,5.05s-.16,5.05-3.2,5.05h-3.82v-10.1Zm2.63,8.2h.52c1.02,0,1.15-.42,1.15-3.15s-.13-3.15-1.15-3.15h-.52v6.31Z"/><path class="d" d="M619.83,616.75v7.29c0,.98,.3,1.23,.79,1.23s.79-.25,.79-1.23v-7.29h2.63v6.62c0,2.83-1.22,3.68-3.42,3.68s-3.42-.85-3.42-3.68v-6.62h2.63Z"/><path class="d" d="M627.72,616.75h5.98v2.15h-3.35v1.73h3.14v2.07h-3.14v4.16h-2.63v-10.1Z"/><path class="d" d="M637.27,616.55c2.69,0,3.61,1.47,3.61,5.25s-.92,5.25-3.61,5.25-3.61-1.47-3.61-5.25,.92-5.25,3.61-5.25Zm0,8.71c.79,0,.89-.74,.89-3.47s-.1-3.47-.89-3.47-.89,.74-.89,3.47,.1,3.47,.89,3.47Z"/><path class="d" d="M641.26,616.75h2.94l1.7,6.22h.03v-6.22h2.46v10.1h-2.89l-1.75-6.24h-.03v6.24h-2.46v-10.1Z"/><path class="d" d="M649.07,616.75h3.82c3.04,0,3.2,2.4,3.2,5.05s-.16,5.05-3.2,5.05h-3.82v-10.1Zm2.63,8.2h.52c1.02,0,1.15-.42,1.15-3.15s-.13-3.15-1.15-3.15h-.52v6.31Z"/><path class="d" d="M656.4,621.69h4.41v2.15h-4.41v-2.15Z"/><path class="d" d="M661.27,616.75h3.82c3.04,0,3.2,2.4,3.2,5.05s-.16,5.05-3.2,5.05h-3.82v-10.1Zm2.63,8.2h.52c1.02,0,1.15-.42,1.15-3.15s-.13-3.15-1.15-3.15h-.52v6.31Z"/><path class="d" d="M668.82,616.75h5.98v2.15h-3.35v1.73h3.14v2.07h-3.14v2.01h3.48v2.15h-6.11v-10.1Z"/><path class="d" d="M675.1,621.69h4.41v2.15h-4.41v-2.15Z"/><path class="d" d="M683.37,621.36h3.39v5.49h-1.78l-.06-.89h-.03c-.34,.88-1.29,1.09-2.18,1.09-2.67,0-2.91-1.91-2.91-5.25s.65-5.25,3.76-5.25c1.85,0,3.2,.95,3.2,3.4h-2.55c0-.52-.04-.92-.14-1.17-.1-.3-.31-.44-.61-.44-.86,0-.95,.74-.95,3.47s.1,3.47,.89,3.47c.55,0,.89-.37,.89-2.12h-.93v-1.78Z"/><path class="d" d="M687.27,616.75h4.12c2.01,0,2.77,1.13,2.77,2.69,0,1.36-.52,2.22-1.73,2.4v.03c1.26,.11,1.66,.92,1.66,2.26v.86c0,.52,0,1.19,.13,1.4,.07,.11,.13,.21,.3,.31v.14h-2.8c-.25-.52-.25-1.51-.25-1.92v-.68c0-1.15-.23-1.44-.86-1.44h-.69v4.05h-2.63v-10.1Zm2.63,4.27h.52c.75,0,1.1-.48,1.1-1.2,0-.83-.33-1.17-1.12-1.17h-.51v2.38Z"/><path class="d" d="M696.48,616.75h3.31l2.46,10.1h-2.8l-.27-1.77h-2.09l-.27,1.77h-2.8l2.46-10.1Zm1.67,2.07h-.03l-.72,4.29h1.47l-.72-4.29Z"/><path class="d" d="M706.06,619.66v-.24c0-.61-.24-1.09-.75-1.09-.57,0-.82,.44-.82,.89,0,1.99,4.3,1.02,4.3,4.71,0,2.15-1.26,3.11-3.58,3.11-2.18,0-3.39-.75-3.39-2.84v-.35h2.55v.24c0,.86,.35,1.17,.86,1.17,.55,0,.85-.42,.85-.98,0-1.99-4.13-1-4.13-4.58,0-2.05,1.09-3.15,3.31-3.15s3.27,.95,3.27,3.11h-2.46Z"/></g><g><path class="d" d="M753.99,579.74h5.98v2.15h-3.35v1.73h3.14v2.07h-3.14v2.01h3.48v2.15h-6.11v-10.1Zm2.73-2.79h2.38l-1.36,2.07h-1.64l.62-2.07Z"/><path class="d" d="M760.69,579.74h3.95c2.01,0,2.91,1.36,2.91,3.11,0,2.08-1.16,3.14-3.31,3.14h-.92v3.85h-2.63v-10.1Zm2.63,4.36h.49c.67,0,1.02-.38,1.02-1.23s-.34-1.23-1.02-1.23h-.49v2.46Z"/><path class="d" d="M768,579.74h2.63v10.1h-2.63v-10.1Z"/><path class="d" d="M775.53,582.81c0-1.15-.21-1.49-.72-1.49-.79,0-.89,.74-.89,3.47s.1,3.46,.89,3.46c.64,0,.79-.57,.79-2.48h2.55v.75c0,2.83-1.64,3.51-3.34,3.51-2.96,0-3.61-1.47-3.61-5.25s.88-5.25,3.61-5.25c2.38,0,3.27,1.24,3.27,3.2v.64h-2.55v-.57Z"/><path class="d" d="M778.81,579.74h5.98v2.15h-3.35v1.73h3.14v2.07h-3.14v2.01h3.48v2.15h-6.11v-10.1Z"/><path class="d" d="M785.6,579.74h4.12c2.01,0,2.77,1.13,2.77,2.69,0,1.36-.52,2.22-1.73,2.41v.03c1.26,.11,1.66,.92,1.66,2.26v.86c0,.52,0,1.19,.13,1.4,.07,.11,.13,.21,.3,.31v.14h-2.8c-.25-.52-.25-1.51-.25-1.92v-.68c0-1.15-.23-1.44-.86-1.44h-.69v4.04h-2.63v-10.1Zm2.63,4.27h.52c.75,0,1.1-.48,1.1-1.2,0-.83-.33-1.17-1.12-1.17h-.51v2.38Z"/><path class="d" d="M793.34,579.74h2.63v10.1h-2.63v-10.1Z"/><path class="d" d="M796.83,579.74h5.98v2.15h-3.35v1.73h3.14v2.07h-3.14v2.01h3.48v2.15h-6.11v-10.1Z"/><path class="d" d="M805.68,579.74h2.8l1.06,7.61h.03l1.06-7.61h2.8l-2.18,10.1h-3.4l-2.18-10.1Z"/><path class="d" d="M813.47,579.74h2.63v10.1h-2.63v-10.1Z"/><path class="d" d="M821,582.81c0-1.15-.21-1.49-.72-1.49-.79,0-.89,.74-.89,3.47s.1,3.46,.89,3.46c.64,0,.79-.57,.79-2.48h2.55v.75c0,2.83-1.64,3.51-3.34,3.51-2.96,0-3.61-1.47-3.61-5.25s.88-5.25,3.61-5.25c2.38,0,3.27,1.24,3.27,3.2v.64h-2.55v-.57Z"/><path class="d" d="M825.61,581.98h-1.98v-2.24h6.59v2.24h-1.98v7.86h-2.63v-7.86Z"/><path class="d" d="M833.85,579.54c2.69,0,3.61,1.47,3.61,5.25s-.92,5.25-3.61,5.25-3.61-1.47-3.61-5.25,.92-5.25,3.61-5.25Zm0,8.71c.79,0,.89-.74,.89-3.46s-.1-3.47-.89-3.47-.89,.74-.89,3.47,.1,3.46,.89,3.46Z"/><path class="d" d="M838.12,579.74h4.12c2.01,0,2.77,1.13,2.77,2.69,0,1.36-.52,2.22-1.73,2.41v.03c1.26,.11,1.66,.92,1.66,2.26v.86c0,.52,0,1.19,.13,1.4,.07,.11,.13,.21,.3,.31v.14h-2.8c-.25-.52-.25-1.51-.25-1.92v-.68c0-1.15-.23-1.44-.86-1.44h-.69v4.04h-2.63v-10.1Zm2.63,4.27h.52c.75,0,1.1-.48,1.1-1.2,0-.83-.33-1.17-1.12-1.17h-.51v2.38Z"/><path class="d" d="M849.44,579.74h3.97c1.88,0,2.76,.99,2.76,2.52,0,1.08-.47,2.04-1.58,2.26v.03c1.32,.11,1.87,1.26,1.87,2.31,0,1.75-.85,2.98-3.04,2.98h-3.97v-10.1Zm2.63,3.96h.64c.55,0,.83-.47,.83-1.02s-.28-1.05-.83-1.05h-.64v2.06Zm0,4.24h.74c.5,0,.93-.41,.93-1.25s-.44-1.22-.93-1.22h-.74v2.46Z"/><path class="d" d="M857.09,579.74h2.63v10.1h-2.63v-10.1Z"/><path class="d" d="M860.59,579.74h2.94l1.7,6.22h.03v-6.22h2.46v10.1h-2.89l-1.75-6.24h-.03v6.24h-2.46v-10.1Z"/><path class="d" d="M872.71,582.81c0-1.15-.21-1.49-.72-1.49-.79,0-.89,.74-.89,3.47s.1,3.46,.89,3.46c.64,0,.79-.57,.79-2.48h2.55v.75c0,2.83-1.64,3.51-3.34,3.51-2.96,0-3.61-1.47-3.61-5.25s.88-5.25,3.61-5.25c2.38,0,3.27,1.24,3.27,3.2v.64h-2.55v-.57Z"/><path class="d" d="M875.9,579.74h2.63v3.88h.03l1.95-3.88h2.8l-2.55,4.41,2.86,5.69h-3l-1.54-3.52-.55,.85v2.67h-2.63v-10.1Z"/></g><g><path class="d" d="M625.41,541.59h2.63v3.71h1.61v-3.71h2.63v10.1h-2.63v-4.16h-1.61v4.16h-2.63v-10.1Z"/><path class="d" d="M634.62,541.59h3.31l2.46,10.1h-2.8l-.27-1.77h-2.09l-.27,1.77h-2.8l2.46-10.1Zm1.67,2.06h-.03l-.72,4.29h1.47l-.72-4.29Z"/><path class="d" d="M640.26,541.59h2.63v7.95h3.24v2.15h-5.87v-10.1Z"/><path class="d" d="M646.25,541.59h2.63v7.95h3.24v2.15h-5.87v-10.1Z"/><path class="d" d="M655.24,541.59h3.95c2.01,0,2.91,1.36,2.91,3.11,0,2.08-1.16,3.14-3.31,3.14h-.92v3.85h-2.63v-10.1Zm2.63,4.36h.5c.67,0,1.02-.38,1.02-1.23s-.34-1.23-1.02-1.23h-.5v2.46Z"/><path class="d" d="M663.51,541.59h3.31l2.46,10.1h-2.8l-.27-1.77h-2.09l-.27,1.77h-2.8l2.46-10.1Zm1.67,2.06h-.03l-.72,4.29h1.47l-.72-4.29Z"/><path class="d" d="M671.53,541.59v7.28c0,.98,.3,1.23,.79,1.23s.79-.25,.79-1.23v-7.28h2.63v6.62c0,2.83-1.22,3.68-3.42,3.68s-3.42-.85-3.42-3.68v-6.62h2.63Z"/><path class="d" d="M676.31,541.59h2.63v7.95h3.24v2.15h-5.87v-10.1Z"/><path class="d" d="M688.58,541.59h2.38l1.03,6.99h.03l.71-6.99h2.55l-1.73,10.1h-2.89l-.88-6.79h-.03l-.88,6.79h-2.89l-1.73-10.1h2.55l.79,6.99h.03l.95-6.99Z"/><path class="d" d="M697.84,541.59v7.28c0,.98,.3,1.23,.79,1.23s.79-.25,.79-1.23v-7.28h2.63v6.62c0,2.83-1.22,3.68-3.42,3.68s-3.42-.85-3.42-3.68v-6.62h2.63Z"/><path class="d" d="M702.63,541.59h4.12c2.01,0,2.77,1.13,2.77,2.69,0,1.36-.52,2.22-1.73,2.4v.03c1.26,.11,1.66,.92,1.66,2.26v.86c0,.52,0,1.19,.13,1.4,.07,.11,.13,.21,.3,.31v.14h-2.8c-.25-.52-.25-1.51-.25-1.92v-.68c0-1.15-.23-1.44-.86-1.44h-.69v4.04h-2.63v-10.1Zm2.63,4.27h.52c.75,0,1.1-.48,1.1-1.2,0-.83-.33-1.17-1.12-1.17h-.51v2.38Z"/><path class="d" d="M711.26,543.82h-1.98v-2.23h6.59v2.23h-1.98v7.86h-2.63v-7.86Z"/><path class="d" d="M715.9,541.59h2.63v3.71h1.61v-3.71h2.63v10.1h-2.63v-4.16h-1.61v4.16h-2.63v-10.1Z"/></g><g><path class="d" d="M716.27,656.23h-1.98v-2.24h6.59v2.24h-1.98v7.86h-2.63v-7.86Z"/><path class="d" d="M721.19,653.99h4.12c2.01,0,2.77,1.13,2.77,2.69,0,1.36-.52,2.22-1.73,2.4v.03c1.26,.11,1.66,.92,1.66,2.26v.86c0,.52,0,1.19,.13,1.4,.07,.11,.13,.21,.3,.31v.14h-2.8c-.25-.52-.25-1.51-.25-1.92v-.68c0-1.15-.23-1.44-.86-1.44h-.69v4.05h-2.63v-10.1Zm2.63,4.27h.52c.75,0,1.1-.48,1.1-1.2,0-.83-.33-1.17-1.12-1.17h-.51v2.38Z"/><path class="d" d="M730.68,653.99h3.31l2.46,10.1h-2.8l-.27-1.77h-2.09l-.27,1.77h-2.8l2.46-10.1Zm1.67,2.07h-.03l-.72,4.29h1.47l-.72-4.29Z"/><path class="d" d="M736.51,653.99h2.63v10.1h-2.63v-10.1Z"/><path class="d" d="M740.01,653.99h2.94l1.7,6.22h.03v-6.22h2.46v10.1h-2.89l-1.75-6.24h-.03v6.24h-2.46v-10.1Z"/><path class="d" d="M751.5,653.99h3.82c3.04,0,3.2,2.4,3.2,5.05s-.16,5.05-3.2,5.05h-3.82v-10.1Zm2.63,8.2h.52c1.02,0,1.15-.42,1.15-3.15s-.13-3.15-1.15-3.15h-.52v6.31Z"/><path class="d" d="M759.33,653.99h5.98v2.15h-3.35v1.73h3.14v2.06h-3.14v2.01h3.48v2.15h-6.11v-10.1Z"/><path class="d" d="M769.52,653.99h2.63v7.95h3.24v2.15h-5.87v-10.1Z"/><path class="d" d="M777.44,653.99h3.31l2.46,10.1h-2.8l-.27-1.77h-2.09l-.27,1.77h-2.8l2.46-10.1Zm1.67,2.07h-.03l-.72,4.29h1.47l-.72-4.29Z"/><path class="d" d="M783.27,653.99h3.76l1.06,5.98h.03l1.06-5.98h3.76v10.1h-2.46v-7.53h-.03l-1.4,7.53h-1.9l-1.4-7.53h-.03v7.53h-2.46v-10.1Z"/><path class="d" d="M793.72,653.99h2.63v10.1h-2.63v-10.1Z"/><path class="d" d="M797.21,653.99h2.94l1.7,6.22h.03v-6.22h2.46v10.1h-2.89l-1.75-6.24h-.03v6.24h-2.46v-10.1Z"/><path class="d" d="M808.61,653.79c2.69,0,3.61,1.47,3.61,5.25s-.92,5.25-3.61,5.25-3.61-1.47-3.61-5.25,.92-5.25,3.61-5.25Zm0,8.71c.79,0,.89-.74,.89-3.46s-.1-3.47-.89-3.47-.89,.74-.89,3.47,.1,3.46,.89,3.46Z"/><path class="d" d="M812.79,653.99h2.63v10.1h-2.63v-10.1Z"/><path class="d" d="M816.28,653.99h4.12c2.01,0,2.77,1.13,2.77,2.69,0,1.36-.52,2.22-1.73,2.4v.03c1.26,.11,1.65,.92,1.65,2.26v.86c0,.52,0,1.19,.13,1.4,.07,.11,.13,.21,.3,.31v.14h-2.8c-.25-.52-.25-1.51-.25-1.92v-.68c0-1.15-.23-1.44-.86-1.44h-.69v4.05h-2.63v-10.1Zm2.63,4.27h.52c.75,0,1.1-.48,1.1-1.2,0-.83-.32-1.17-1.12-1.17h-.51v2.38Z"/><path class="d" d="M828.05,656.91v-.24c0-.61-.24-1.09-.75-1.09-.57,0-.82,.44-.82,.89,0,1.99,4.3,1.02,4.3,4.71,0,2.15-1.26,3.11-3.58,3.11-2.18,0-3.39-.75-3.39-2.84v-.35h2.55v.24c0,.86,.35,1.17,.86,1.17,.55,0,.85-.42,.85-.98,0-1.99-4.13-1-4.13-4.58,0-2.05,1.09-3.15,3.31-3.15s3.27,.95,3.27,3.11h-2.46Z"/></g><rect class="e" width="1300" height="1080"/><g><path class="d" d="M614.98,487.79h16.67v5.99h-9.34v4.81h8.75v5.75h-8.75v11.59h-7.33v-28.14Z"/><path class="d" d="M643.16,487.24c7.49,0,10.05,4.1,10.05,14.62s-2.56,14.62-10.05,14.62-10.05-4.1-10.05-14.62,2.56-14.62,10.05-14.62Zm0,24.28c2.21,0,2.48-2.05,2.48-9.66s-.28-9.66-2.48-9.66-2.48,2.05-2.48,9.66,.28,9.66,2.48,9.66Z"/><path class="d" d="M655.85,487.79h8.2l4.73,17.34h.08v-17.34h6.86v28.14h-8.04l-4.89-17.38h-.08v17.38h-6.86v-28.14Z"/><path class="d" d="M679.18,487.79h10.64c8.47,0,8.91,6.7,8.91,14.07s-.43,14.07-8.91,14.07h-10.64v-28.14Zm7.33,22.86h1.46c2.84,0,3.19-1.18,3.19-8.79s-.35-8.79-3.19-8.79h-1.46v17.58Z"/><path class="d" d="M701.18,501.55h12.3v5.99h-12.3v-5.99Z"/><path class="d" d="M716.31,487.79h10.64c8.47,0,8.91,6.7,8.91,14.07s-.43,14.07-8.91,14.07h-10.64v-28.14Zm7.33,22.86h1.46c2.84,0,3.19-1.18,3.19-8.79s-.35-8.79-3.19-8.79h-1.46v17.58Z"/><path class="d" d="M738.93,487.79h16.67v5.99h-9.34v4.81h8.75v5.75h-8.75v5.6h9.7v5.99h-17.03v-28.14Z"/><path class="d" d="M758.01,501.55h12.3v5.99h-12.3v-5.99Z"/><path class="d" d="M782.6,500.64h9.46v15.29h-4.97l-.16-2.48h-.08c-.95,2.44-3.59,3.03-6.07,3.03-7.45,0-8.12-5.32-8.12-14.62s1.81-14.62,10.48-14.62c5.16,0,8.91,2.64,8.91,9.46h-7.09c0-1.46-.12-2.56-.39-3.27-.28-.83-.87-1.22-1.7-1.22-2.4,0-2.64,2.05-2.64,9.66s.28,9.66,2.48,9.66c1.54,0,2.48-1.02,2.48-5.91h-2.6v-4.97Z"/><path class="d" d="M795.06,487.79h11.47c5.6,0,7.72,3.15,7.72,7.49,0,3.78-1.46,6.19-4.81,6.7v.08c3.51,.32,4.61,2.56,4.61,6.31v2.4c0,1.46,0,3.31,.36,3.9,.2,.32,.35,.59,.83,.87v.39h-7.8c-.71-1.46-.71-4.22-.71-5.36v-1.89c0-3.19-.63-4.02-2.4-4.02h-1.93v11.27h-7.33v-28.14Zm7.33,11.9h1.46c2.09,0,3.07-1.34,3.07-3.35,0-2.33-.91-3.27-3.11-3.27h-1.42v6.62Z"/><path class="d" d="M822.29,487.79h9.22l6.86,28.14h-7.8l-.75-4.93h-5.83l-.75,4.93h-7.8l6.86-28.14Zm4.65,5.75h-.08l-2.01,11.94h4.1l-2.01-11.94Z"/><path class="d" d="M850.55,495.91v-.67c0-1.7-.67-3.04-2.09-3.04-1.58,0-2.29,1.22-2.29,2.48,0,5.56,11.98,2.84,11.98,13.12,0,5.99-3.51,8.67-9.97,8.67-6.07,0-9.46-2.09-9.46-7.92v-.99h7.09v.67c0,2.4,.98,3.27,2.4,3.27,1.54,0,2.36-1.18,2.36-2.72,0-5.56-11.51-2.8-11.51-12.77,0-5.71,3.04-8.79,9.22-8.79s9.1,2.64,9.1,8.67h-6.86Z"/></g></g></g></svg>