<?xml version="1.0" encoding="UTF-8"?><svg xmlns="http://www.w3.org/2000/svg" viewBox="0 0 1300 1080"><defs><style>.d{fill:none;}.e{fill:#4a7783;}</style></defs><g id="a"/><g id="b"><g id="c"><g><path class="e" d="M461.35,562.68h4.07c1.26,0,2.08,.48,2.53,1.32,.45,.78,.54,1.34,.54,3.73,0,2.21-.08,5.05-3.03,5.05h-4.12v-10.1Zm2.83,8.06h.58c.72,0,.82-.79,.82-1.54v-2.94c0-1.02-.11-1.54-.99-1.54h-.41v6.03Z"/><path class="e" d="M470.04,562.68h4.24c1.97,0,2.79,.95,2.79,2.64s-.71,2.28-1.68,2.43v.03c.57,.04,1.08,.31,1.34,.81,.27,.45,.27,1.12,.27,1.73v.83c0,.57,.06,1.03,.13,1.19,.07,.14,.17,.24,.3,.3v.14h-3c-.18-.23-.21-.96-.21-1.46s-.04-1-.04-1.5c0-.86-.28-1.02-.78-1.02h-.52v3.97h-2.83v-10.1Zm2.83,4.26h.41c.47,0,.96-.21,.96-1.19,0-.83-.41-1.03-1.05-1.03h-.33v2.22Z"/><path class="e" d="M483.17,571.23h-1.9l-.28,1.54h-2.91l2.39-10.1h3.55l2.38,10.1h-2.91l-.31-1.54Zm-.92-6.35h-.03l-.65,4.14h1.29l-.61-4.14Z"/><path class="e" d="M487.27,562.68h2.83v10.1h-2.83v-10.1Z"/><path class="e" d="M495.5,565.17c0-.44-.17-.82-.67-.82-.44,0-.65,.35-.65,.76,0,2.02,4.22,.96,4.22,4.58,0,2.33-1.09,3.28-3.71,3.28-2.16,0-3.35-.74-3.35-2.96v-.27h2.74v.47c0,.5,.21,.89,.71,.89,.52,0,.69-.45,.69-.89,0-.64-.25-.79-.61-1-.38-.21-.89-.4-1.4-.66-1.54-.75-2.04-1.32-2.04-2.82,0-1.41,.41-2.16,1.08-2.63,.5-.34,1.19-.62,2.31-.62,2.86,0,3.34,1.41,3.34,3.1h-2.66v-.41Z"/><path class="e" d="M499.65,562.68h2.83v10.1h-2.83v-10.1Z"/><path class="e" d="M508.59,562.68h2.66v10.1h-3.03l-1.57-6.22h-.03v6.22h-2.57v-10.1h3.07l1.44,6.17h.03v-6.17Z"/><path class="e" d="M512.96,562.68h6.08v2.29h-3.25v1.56h3.04v2.21h-3.04v1.75h3.38v2.29h-6.21v-10.1Z"/></g><rect class="d" width="1300" height="1080"/></g></g></svg>