<?xml version="1.0" encoding="UTF-8"?><svg xmlns="http://www.w3.org/2000/svg" viewBox="0 0 1300 1080"><defs><style>.d{fill:none;}.e{fill:#866381;}</style></defs><g id="a"/><g id="b"><g id="c"><g><path class="e" d="M137.57,832.76h3.76l1.06,5.98h.03l1.06-5.98h3.76v10.1h-2.46v-7.53h-.03l-1.4,7.53h-1.9l-1.4-7.53h-.03v7.53h-2.46v-10.1Z"/><path class="e" d="M149.77,832.76h3.31l2.46,10.1h-2.8l-.27-1.77h-2.09l-.27,1.77h-2.8l2.46-10.1Zm1.67,2.07h-.03l-.72,4.29h1.47l-.72-4.29Z"/><path class="e" d="M155.6,832.76h2.63v10.1h-2.63v-10.1Z"/><path class="e" d="M163.03,835.67v-.24c0-.61-.24-1.09-.75-1.09-.57,0-.82,.44-.82,.89,0,1.99,4.3,1.02,4.3,4.71,0,2.15-1.26,3.11-3.58,3.11-2.18,0-3.39-.75-3.39-2.84v-.35h2.55v.24c0,.86,.35,1.17,.86,1.17,.55,0,.85-.42,.85-.98,0-1.99-4.13-1-4.13-4.58,0-2.05,1.09-3.15,3.31-3.15s3.27,.95,3.27,3.11h-2.46Z"/><path class="e" d="M169.72,832.56c2.69,0,3.61,1.47,3.61,5.25s-.92,5.25-3.61,5.25-3.61-1.47-3.61-5.25,.92-5.25,3.61-5.25Zm0,8.71c.79,0,.89-.74,.89-3.47s-.1-3.47-.89-3.47-.89,.74-.89,3.47,.1,3.47,.89,3.47Z"/><path class="e" d="M173.99,832.76h2.94l1.7,6.22h.03v-6.22h2.46v10.1h-2.89l-1.75-6.24h-.03v6.24h-2.46v-10.1Z"/><path class="e" d="M186.02,835.67v-.24c0-.61-.24-1.09-.75-1.09-.57,0-.82,.44-.82,.89,0,1.99,4.3,1.02,4.3,4.71,0,2.15-1.26,3.11-3.58,3.11-2.18,0-3.4-.75-3.4-2.84v-.35h2.55v.24c0,.86,.35,1.17,.86,1.17,.55,0,.85-.42,.85-.98,0-1.99-4.13-1-4.13-4.58,0-2.05,1.09-3.15,3.31-3.15s3.27,.95,3.27,3.11h-2.46Z"/><path class="e" d="M192.79,832.76h3.82c3.04,0,3.2,2.4,3.2,5.05s-.16,5.05-3.2,5.05h-3.82v-10.1Zm2.63,8.2h.52c1.02,0,1.15-.42,1.15-3.15s-.13-3.15-1.15-3.15h-.52v6.31Z"/><path class="e" d="M200.63,832.76h5.98v2.15h-3.35v1.73h3.14v2.07h-3.14v2.01h3.48v2.15h-6.11v-10.1Z"/><path class="e" d="M210.72,832.76h3.76l1.06,5.98h.03l1.06-5.98h3.76v10.1h-2.46v-7.53h-.03l-1.4,7.53h-1.9l-1.4-7.53h-.03v7.53h-2.46v-10.1Z"/><path class="e" d="M221.16,832.76h2.63v10.1h-2.63v-10.1Z"/><path class="e" d="M224.66,832.76h2.94l1.7,6.22h.03v-6.22h2.46v10.1h-2.89l-1.75-6.24h-.03v6.24h-2.46v-10.1Z"/><path class="e" d="M232.75,832.76h5.98v2.15h-3.35v1.73h3.14v2.07h-3.14v2.01h3.48v2.15h-6.11v-10.1Z"/><path class="e" d="M242.06,832.76v7.29c0,.98,.3,1.23,.79,1.23s.79-.25,.79-1.23v-7.29h2.63v6.62c0,2.83-1.22,3.68-3.42,3.68s-3.42-.85-3.42-3.68v-6.62h2.63Z"/><path class="e" d="M247.12,832.76h4.12c2.01,0,2.77,1.13,2.77,2.69,0,1.36-.52,2.22-1.73,2.4v.03c1.26,.11,1.66,.92,1.66,2.26v.86c0,.52,0,1.19,.13,1.4,.07,.11,.13,.21,.3,.31v.14h-2.8c-.25-.52-.25-1.51-.25-1.92v-.68c0-1.15-.23-1.44-.86-1.44h-.69v4.04h-2.63v-10.1Zm2.63,4.27h.52c.75,0,1.1-.48,1.1-1.2,0-.83-.33-1.17-1.12-1.17h-.51v2.38Z"/></g><rect class="d" width="1300" height="1080"/></g></g></svg>