<?xml version="1.0" encoding="UTF-8"?><svg xmlns="http://www.w3.org/2000/svg" viewBox="0 0 1300 1080"><defs><style>.d{fill:#6f8980;}.e{fill:none;}</style></defs><g id="a"/><g id="b"><g id="c"><g><path class="d" d="M992.42,348.06h3.39v5.49h-1.78l-.06-.89h-.03c-.34,.88-1.29,1.09-2.18,1.09-2.67,0-2.91-1.91-2.91-5.25s.65-5.25,3.76-5.25c1.85,0,3.2,.95,3.2,3.4h-2.55c0-.52-.04-.92-.14-1.17-.1-.3-.31-.44-.61-.44-.86,0-.95,.74-.95,3.47s.1,3.47,.89,3.47c.55,0,.89-.37,.89-2.12h-.93v-1.78Z"/><path class="d" d="M997.07,343.45h2.63v10.1h-2.63v-10.1Z"/><path class="d" d="M1001.13,343.45h5.98v2.15h-3.35v1.73h3.14v2.07h-3.14v2.01h3.48v2.15h-6.11v-10.1Z"/><path class="d" d="M1008.49,343.45h2.63v7.95h3.24v2.15h-5.87v-10.1Z"/><path class="d" d="M1015.32,343.45h5.98v2.15h-3.35v1.73h3.14v2.07h-3.14v2.01h3.48v2.15h-6.11v-10.1Z"/><path class="d" d="M1026.73,343.45h3.97c1.88,0,2.76,.99,2.76,2.52,0,1.08-.47,2.04-1.58,2.26v.03c1.32,.11,1.87,1.26,1.87,2.31,0,1.75-.85,2.98-3.04,2.98h-3.97v-10.1Zm2.63,3.96h.64c.55,0,.83-.47,.83-1.02s-.28-1.05-.83-1.05h-.64v2.07Zm0,4.24h.74c.5,0,.93-.41,.93-1.24s-.44-1.22-.93-1.22h-.74v2.46Z"/><path class="d" d="M1038.35,343.26c2.69,0,3.61,1.47,3.61,5.25s-.92,5.25-3.61,5.25-3.61-1.47-3.61-5.25,.92-5.25,3.61-5.25Zm0,8.71c.79,0,.89-.74,.89-3.47s-.1-3.47-.89-3.47-.89,.74-.89,3.47,.1,3.47,.89,3.47Z"/><path class="d" d="M1044.52,345.69h-1.98v-2.23h6.59v2.23h-1.98v7.86h-2.63v-7.86Z"/><path class="d" d="M1051.34,345.69h-1.98v-2.23h6.59v2.23h-1.98v7.86h-2.63v-7.86Z"/><path class="d" d="M1056.83,343.45h5.98v2.15h-3.35v1.73h3.14v2.07h-3.14v2.01h3.48v2.15h-6.11v-10.1Z"/><path class="d" d="M1064.19,343.45h4.12c2.01,0,2.77,1.13,2.77,2.69,0,1.36-.52,2.22-1.73,2.4v.03c1.26,.11,1.66,.92,1.66,2.26v.86c0,.52,0,1.19,.13,1.4,.07,.11,.13,.21,.3,.31v.14h-2.8c-.25-.52-.25-1.51-.25-1.92v-.68c0-1.15-.23-1.44-.86-1.44h-.69v4.04h-2.63v-10.1Zm2.63,4.27h.52c.75,0,1.1-.48,1.1-1.2,0-.83-.33-1.17-1.12-1.17h-.51v2.38Z"/></g><g><path class="d" d="M653.01,449.53h-1.98v-2.24h6.59v2.24h-1.98v7.86h-2.63v-7.86Z"/><path class="d" d="M658.4,447.3h2.63v10.1h-2.63v-10.1Z"/><path class="d" d="M663.79,449.53h-1.98v-2.24h6.59v2.24h-1.98v7.86h-2.63v-7.86Z"/><path class="d" d="M669.28,447.3h5.98v2.15h-3.35v1.73h3.14v2.07h-3.14v2.01h3.48v2.15h-6.11v-10.1Z"/><path class="d" d="M676.64,447.3h2.63v7.95h3.24v2.15h-5.87v-10.1Z"/><path class="d" d="M683.56,447.3h3.97c1.88,0,2.76,.99,2.76,2.52,0,1.08-.47,2.04-1.58,2.26v.03c1.32,.11,1.87,1.26,1.87,2.31,0,1.75-.85,2.98-3.04,2.98h-3.97v-10.1Zm2.63,3.96h.64c.55,0,.83-.47,.83-1.02s-.28-1.05-.83-1.05h-.64v2.07Zm0,4.24h.74c.5,0,.93-.41,.93-1.24s-.44-1.22-.93-1.22h-.74v2.46Z"/><path class="d" d="M691.88,447.3h5.98v2.15h-3.35v1.73h3.14v2.07h-3.14v2.01h3.48v2.15h-6.11v-10.1Z"/><path class="d" d="M699.23,447.3h4.12c2.01,0,2.77,1.13,2.77,2.69,0,1.36-.52,2.22-1.73,2.41v.03c1.26,.11,1.66,.92,1.66,2.26v.86c0,.52,0,1.19,.13,1.4,.07,.11,.13,.21,.3,.31v.14h-2.8c-.25-.52-.25-1.51-.25-1.92v-.68c0-1.15-.23-1.44-.86-1.44h-.69v4.04h-2.63v-10.1Zm2.63,4.27h.52c.75,0,1.1-.48,1.1-1.2,0-.83-.33-1.17-1.12-1.17h-.51v2.38Z"/><path class="d" d="M711.03,451.91h3.39v5.49h-1.78l-.06-.89h-.03c-.34,.88-1.29,1.09-2.18,1.09-2.67,0-2.91-1.91-2.91-5.25s.65-5.25,3.76-5.25c1.85,0,3.2,.95,3.2,3.39h-2.54c0-.52-.04-.92-.14-1.17-.1-.3-.31-.44-.61-.44-.86,0-.95,.74-.95,3.47s.1,3.47,.89,3.47c.55,0,.89-.37,.89-2.12h-.93v-1.78Z"/></g><rect class="e" width="1300" height="1080"/></g></g></svg>